<?xml version="1.0" standalone="no"?>
<!DOCTYPE svg PUBLIC "-//W3C//DTD SVG 1.1//EN" "http://www.w3.org/Graphics/SVG/1.1/DTD/svg11.dtd" >
<svg xmlns="http://www.w3.org/2000/svg" xmlns:xlink="http://www.w3.org/1999/xlink" version="1.1">
<metadata>
Created by FontForge 20201107 at Mon Oct 11 05:24:47 2021
 By Jimmy Wärting
Copyright 2019 The Work Sans Project Authors (https://github.com/weiweihuanghuang/Work-Sans)
</metadata>
<defs>
<font id="WorkSans-Black" horiz-adv-x="588" >
  <font-face 
    font-family="Work Sans Black"
    font-weight="900"
    font-stretch="normal"
    units-per-em="1000"
    panose-1="2 0 10 3 0 0 0 0 0 0"
    ascent="800"
    descent="-200"
    x-height="500"
    cap-height="660"
    bbox="-291 -343 1406 1105"
    underline-thickness="50"
    underline-position="-125"
    unicode-range="U+0020-FB06"
  />
<missing-glyph horiz-adv-x="500" 
d="M50 0v660h400v-660h-400zM130 80h240v500h-240v-500z" />
    <glyph glyph-name=".notdef" horiz-adv-x="500" 
d="M50 0v660h400v-660h-400zM130 80h240v500h-240v-500z" />
    <glyph glyph-name="A" unicode="A" horiz-adv-x="689" 
d="M699 0h-238l-30 126h-178l-31 -126h-232l214 660h280zM288 271h109l-54 229z" />
    <glyph glyph-name="Aacute" unicode="&#xc1;" horiz-adv-x="689" 
d="M699 0h-238l-30 126h-178l-31 -126h-232l214 660h280zM288 271h109l-54 229zM311 876h196l-91 -167h-163z" />
    <glyph glyph-name="Abreve" unicode="&#x102;" horiz-adv-x="689" 
d="M699 0h-238l-30 126h-178l-31 -126h-232l214 660h280zM288 271h109l-54 229zM527 873c0 -55 -16 -97 -49 -127c-32 -31 -77 -46 -134 -46s-101 15 -134 46c-33 30 -49 72 -49 127h139c0 -37 15 -55 44 -55s44 18 44 55h139z" />
    <glyph glyph-name="uni1EAE" unicode="&#x1eae;" horiz-adv-x="689" 
d="M259 880l52 151h176l-82 -151h-146zM509 856c0 -50 -15 -88 -44 -116c-29 -26 -70 -40 -121 -40s-92 14 -121 40c-29 28 -44 66 -44 116h125c0 -33 13 -50 40 -50s40 17 40 50h125zM699 0h-238l-30 126h-178l-31 -126h-232l214 660h280zM288 271h109l-54 229z" />
    <glyph glyph-name="uni1EB6" unicode="&#x1eb6;" horiz-adv-x="689" 
d="M699 0h-238l-30 126h-178l-31 -126h-232l214 660h280zM288 271h109l-54 229zM344 -226c-75 0 -112 31 -112 94s37 94 112 94c77 0 115 -31 115 -94s-38 -94 -115 -94zM527 873c0 -55 -16 -97 -49 -127c-32 -31 -77 -46 -134 -46s-101 15 -134 46c-33 30 -49 72 -49 127
h139c0 -37 15 -55 44 -55s44 18 44 55h139z" />
    <glyph glyph-name="uni1EB0" unicode="&#x1eb0;" horiz-adv-x="689" 
d="M430 880h-147l-82 151h176zM509 856c0 -50 -15 -88 -44 -116c-29 -26 -70 -40 -121 -40s-92 14 -121 40c-29 28 -44 66 -44 116h125c0 -33 13 -50 40 -50s40 17 40 50h125zM699 0h-238l-30 126h-178l-31 -126h-232l214 660h280zM288 271h109l-54 229z" />
    <glyph glyph-name="uni1EB2" unicode="&#x1eb2;" horiz-adv-x="689" 
d="M345 863l-39 57c17 6 29 13 36 20s10 14 10 21c0 18 -9 27 -27 27c-9 0 -15 -2 -20 -6c-5 -5 -8 -11 -11 -18l-89 38c7 28 22 50 45 65c24 15 53 23 87 23c21 0 41 -4 59 -12c20 -7 35 -18 47 -34c12 -14 18 -34 18 -57c0 -27 -7 -48 -19 -65c-14 -17 -29 -30 -47 -38
c-18 -10 -35 -16 -50 -21zM509 856c0 -50 -15 -88 -44 -116c-29 -26 -70 -40 -121 -40s-92 14 -121 40c-29 28 -44 66 -44 116h125c0 -33 13 -50 40 -50s40 17 40 50h125zM699 0h-238l-30 126h-178l-31 -126h-232l214 660h280zM288 271h109l-54 229z" />
    <glyph glyph-name="uni1EB4" unicode="&#x1eb4;" horiz-adv-x="689" 
d="M534 1035c-1 -54 -14 -94 -38 -119c-23 -26 -50 -39 -80 -39c-23 0 -41 4 -56 11s-27 15 -38 22c-11 8 -21 12 -32 12c-16 0 -25 -14 -28 -43h-106c1 54 14 94 39 119c25 26 54 39 89 39c22 0 40 -4 52 -11c14 -8 25 -16 34 -23s20 -11 31 -11c15 0 24 14 27 43h106z
M509 856c0 -50 -15 -88 -44 -116c-29 -26 -70 -40 -121 -40s-92 14 -121 40c-29 28 -44 66 -44 116h125c0 -33 13 -50 40 -50s40 17 40 50h125zM699 0h-238l-30 126h-178l-31 -126h-232l214 660h280zM288 271h109l-54 229z" />
    <glyph glyph-name="Acircumflex" unicode="&#xc2;" horiz-adv-x="689" 
d="M699 0h-238l-30 126h-178l-31 -126h-232l214 660h280zM288 271h109l-54 229zM547 709h-148l-55 82l-55 -82h-148l94 167h218z" />
    <glyph glyph-name="uni1EA4" unicode="&#x1ea4;" horiz-adv-x="689" 
d="M561 952h177l-82 -150h-147zM536 707h-141l-51 64l-51 -64h-141l96 160h192zM699 0h-238l-30 126h-178l-31 -126h-232l214 660h280zM288 271h109l-54 229z" />
    <glyph glyph-name="uni1EAC" unicode="&#x1eac;" horiz-adv-x="689" 
d="M699 0h-238l-30 126h-178l-31 -126h-232l214 660h280zM288 271h109l-54 229zM344 -226c-75 0 -112 31 -112 94s37 94 112 94c77 0 115 -31 115 -94s-38 -94 -115 -94zM547 709h-148l-55 82l-55 -82h-148l94 167h218z" />
    <glyph glyph-name="uni1EA6" unicode="&#x1ea6;" horiz-adv-x="689" 
d="M621 952l52 -150h-147l-82 150h177zM536 707h-141l-51 64l-51 -64h-141l96 160h192zM699 0h-238l-30 126h-178l-31 -126h-232l214 660h280zM288 271h109l-54 229z" />
    <glyph glyph-name="uni1EA8" unicode="&#x1ea8;" horiz-adv-x="689" 
d="M531 788l-43 62c19 7 33 15 40 23s11 16 11 23c0 9 -3 16 -7 21c-6 5 -13 8 -23 8c-9 0 -17 -2 -21 -7c-6 -5 -10 -11 -13 -19l-98 42c7 31 24 54 50 71s58 25 95 25c23 0 44 -4 66 -12c20 -8 38 -20 51 -37s20 -38 20 -64c0 -29 -7 -52 -21 -70c-15 -19 -32 -33 -52 -44
c-20 -10 -38 -17 -55 -22zM536 707h-141l-51 64l-51 -64h-141l96 160h192zM699 0h-238l-30 126h-178l-31 -126h-232l214 660h280zM288 271h109l-54 229z" />
    <glyph glyph-name="uni1EAA" unicode="&#x1eaa;" horiz-adv-x="689" 
d="M534 1047c-1 -54 -14 -94 -38 -119c-23 -26 -50 -39 -80 -39c-23 0 -41 4 -56 11s-27 15 -38 22c-11 8 -21 12 -32 12c-16 0 -25 -14 -28 -43h-106c1 54 14 94 39 119c25 26 54 39 89 39c22 0 40 -4 52 -11c14 -8 25 -16 34 -23s20 -11 31 -11c15 0 24 14 27 43h106z
M536 707h-141l-51 64l-51 -64h-141l96 160h192zM699 0h-238l-30 126h-178l-31 -126h-232l214 660h280zM288 271h109l-54 229z" />
    <glyph glyph-name="uni0200" unicode="&#x200;" horiz-adv-x="689" 
d="M699 0h-238l-30 126h-178l-31 -126h-232l214 660h280zM288 271h109l-54 229zM249 876l58 -167h-163l-91 167h196zM504 876l58 -167h-163l-91 167h196z" />
    <glyph glyph-name="Adieresis" unicode="&#xc4;" horiz-adv-x="689" 
d="M699 0h-238l-30 126h-178l-31 -126h-232l214 660h280zM288 271h109l-54 229zM224 880c33 0 59 -8 78 -24c18 -15 27 -38 27 -67s-9 -51 -27 -67c-19 -16 -45 -24 -78 -24s-58 8 -76 24c-17 16 -26 38 -26 67s9 52 26 67c18 16 43 24 76 24zM461 880c33 0 59 -8 77 -24
c19 -15 28 -38 28 -67s-9 -51 -28 -67c-18 -16 -44 -24 -77 -24s-58 8 -75 24c-18 16 -27 38 -27 67s9 52 27 67c17 16 42 24 75 24z" />
    <glyph glyph-name="uni1EA0" unicode="&#x1ea0;" horiz-adv-x="689" 
d="M699 0h-238l-30 126h-178l-31 -126h-232l214 660h280zM288 271h109l-54 229zM344 -226c-75 0 -112 31 -112 94s37 94 112 94c77 0 115 -31 115 -94s-38 -94 -115 -94z" />
    <glyph glyph-name="Agrave" unicode="&#xc0;" horiz-adv-x="689" 
d="M699 0h-238l-30 126h-178l-31 -126h-232l214 660h280zM288 271h109l-54 229zM377 876l58 -167h-163l-91 167h196z" />
    <glyph glyph-name="uni1EA2" unicode="&#x1ea2;" horiz-adv-x="689" 
d="M699 0h-238l-30 126h-178l-31 -126h-232l214 660h280zM288 271h109l-54 229zM345 690l-43 62c19 7 33 15 40 23s11 16 11 23c0 9 -3 16 -7 21c-6 5 -13 8 -23 8c-9 0 -17 -2 -21 -7c-6 -5 -10 -11 -13 -19l-98 42c7 31 24 54 50 71s58 25 95 25c23 0 44 -4 66 -12
c20 -8 38 -20 51 -37s20 -38 20 -64c0 -29 -7 -52 -21 -70c-15 -19 -32 -33 -52 -44c-20 -10 -38 -17 -55 -22z" />
    <glyph glyph-name="uni0202" unicode="&#x202;" horiz-adv-x="689" 
d="M699 0h-238l-30 126h-178l-31 -126h-232l214 660h280zM288 271h109l-54 229zM527 700h-139c0 37 -15 55 -44 55s-44 -18 -44 -55h-139c0 55 16 98 49 128s77 45 134 45s102 -15 134 -45c33 -30 49 -73 49 -128z" />
    <glyph glyph-name="Amacron" unicode="&#x100;" horiz-adv-x="689" 
d="M699 0h-238l-30 126h-178l-31 -126h-232l214 660h280zM288 271h109l-54 229zM538 841v-130h-388v130h388z" />
    <glyph glyph-name="Aogonek" unicode="&#x104;" horiz-adv-x="689" 
d="M584 -215c-27 0 -53 4 -76 13c-23 8 -42 21 -56 38c-13 17 -20 40 -20 68c0 21 5 40 15 56s24 29 41 40h-27l-30 126h-178l-31 -126h-232l214 660h280l215 -660c-43 -3 -72 -9 -89 -18c-16 -10 -24 -23 -24 -38c0 -25 16 -38 49 -38c7 0 15 1 22 2s13 3 18 6l27 -103
c-16 -10 -33 -17 -52 -21c-19 -3 -41 -5 -66 -5zM288 271h109l-54 229z" />
    <glyph glyph-name="Aring" unicode="&#xc5;" horiz-adv-x="689" 
d="M699 0h-238l-30 126h-178l-31 -126h-232l214 660h280zM288 271h109l-54 229zM345 839c45 0 81 -12 109 -35c26 -24 40 -56 40 -96s-14 -72 -40 -95c-28 -23 -64 -35 -109 -35s-81 12 -109 35c-26 23 -40 55 -40 95s14 72 40 96c28 23 64 35 109 35zM345 750
c-13 0 -23 -4 -31 -11c-7 -7 -11 -18 -11 -31s4 -23 11 -30c8 -7 18 -11 31 -11s24 4 31 11s11 17 11 30s-4 24 -11 31s-18 11 -31 11z" />
    <glyph glyph-name="Aringacute" unicode="&#x1fa;" horiz-adv-x="689" 
d="M699 0h-238l-30 126h-178l-31 -126h-232l214 660h280zM288 271h109l-54 229zM345 839c45 0 81 -12 109 -35c26 -24 40 -56 40 -96s-14 -72 -40 -95c-28 -23 -64 -35 -109 -35s-81 12 -109 35c-26 23 -40 55 -40 95s14 72 40 96c28 23 64 35 109 35zM345 750
c-13 0 -23 -4 -31 -11c-7 -7 -11 -18 -11 -31s4 -23 11 -30c8 -7 18 -11 31 -11s24 4 31 11s11 17 11 30s-4 24 -11 31s-18 11 -31 11zM328 1035h196l-91 -167h-163z" />
    <glyph glyph-name="Atilde" unicode="&#xc3;" horiz-adv-x="689" 
d="M699 0h-238l-30 126h-178l-31 -126h-232l214 660h280zM288 271h109l-54 229zM554 879c-1 -40 -7 -73 -20 -99s-29 -45 -48 -58c-20 -13 -41 -19 -63 -19c-25 0 -45 4 -62 13c-17 8 -31 16 -43 24c-11 9 -23 13 -35 13c-18 0 -28 -16 -31 -48h-118c1 60 16 104 43 133
s60 43 99 43c25 0 44 -4 58 -13c15 -8 27 -16 38 -24c11 -9 22 -13 34 -13c17 0 27 16 30 48h118z" />
    <glyph glyph-name="AE" unicode="&#xc6;" horiz-adv-x="904" 
d="M615 161h273v-161h-487v185h-135l-46 -185h-230l214 660h672v-161h-261v-96h200v-149h-200v-93zM299 321h102v186h-56z" />
    <glyph glyph-name="AEacute" unicode="&#x1fc;" horiz-adv-x="904" 
d="M615 161h273v-161h-487v185h-135l-46 -185h-230l214 660h672v-161h-261v-96h200v-149h-200v-93zM299 321h102v186h-56zM475 876h196l-91 -167h-163z" />
    <glyph glyph-name="B" unicode="B" horiz-adv-x="704" 
d="M50 0v660h378c83 -1 145 -16 186 -44c41 -30 61 -73 61 -132c0 -39 -12 -73 -36 -100s-62 -45 -113 -52v-1c57 -6 99 -23 126 -51s40 -63 40 -106c0 -58 -20 -102 -58 -130c-40 -30 -99 -44 -180 -44h-404zM273 404h104c40 0 60 16 60 48s-20 48 -60 48h-104v-96z
M273 152h119c41 0 62 16 62 49c0 31 -21 47 -62 47h-119v-96z" />
    <glyph glyph-name="C" unicode="C" horiz-adv-x="677" 
d="M670 202c-12 -51 -32 -93 -62 -124c-28 -31 -64 -54 -105 -68c-41 -13 -87 -20 -138 -20c-69 0 -129 13 -179 40c-51 27 -90 65 -116 116c-28 51 -41 112 -41 184s13 133 41 184c26 51 65 89 116 116c50 27 110 40 179 40c49 0 94 -7 136 -20c42 -14 77 -36 107 -65
c28 -29 48 -68 57 -115l-200 -78c-5 43 -16 71 -33 84c-16 13 -36 19 -61 19c-35 0 -61 -13 -78 -39c-17 -27 -26 -69 -26 -126s8 -98 25 -125c16 -27 44 -40 84 -40c24 0 44 7 59 21c15 15 25 38 29 69z" />
    <glyph glyph-name="Cacute" unicode="&#x106;" horiz-adv-x="677" 
d="M670 202c-12 -51 -32 -93 -62 -124c-28 -31 -64 -54 -105 -68c-41 -13 -87 -20 -138 -20c-69 0 -129 13 -179 40c-51 27 -90 65 -116 116c-28 51 -41 112 -41 184s13 133 41 184c26 51 65 89 116 116c50 27 110 40 179 40c49 0 94 -7 136 -20c42 -14 77 -36 107 -65
c28 -29 48 -68 57 -115l-200 -78c-5 43 -16 71 -33 84c-16 13 -36 19 -61 19c-35 0 -61 -13 -78 -39c-17 -27 -26 -69 -26 -126s8 -98 25 -125c16 -27 44 -40 84 -40c24 0 44 7 59 21c15 15 25 38 29 69zM323 876h196l-91 -167h-163z" />
    <glyph glyph-name="Ccaron" unicode="&#x10c;" horiz-adv-x="677" 
d="M670 202c-12 -51 -32 -93 -62 -124c-28 -31 -64 -54 -105 -68c-41 -13 -87 -20 -138 -20c-69 0 -129 13 -179 40c-51 27 -90 65 -116 116c-28 51 -41 112 -41 184s13 133 41 184c26 51 65 89 116 116c50 27 110 40 179 40c49 0 94 -7 136 -20c42 -14 77 -36 107 -65
c28 -29 48 -68 57 -115l-200 -78c-5 43 -16 71 -33 84c-16 13 -36 19 -61 19c-35 0 -61 -13 -78 -39c-17 -27 -26 -69 -26 -126s8 -98 25 -125c16 -27 44 -40 84 -40c24 0 44 7 59 21c15 15 25 38 29 69zM559 876l-94 -167h-218l-94 167h148l55 -82l55 82h148z" />
    <glyph glyph-name="Ccedilla" unicode="&#xc7;" horiz-adv-x="677" 
d="M670 202c-12 -51 -32 -93 -62 -124c-28 -31 -64 -54 -105 -68c-41 -13 -87 -20 -138 -20c-69 0 -129 13 -179 40c-51 27 -90 65 -116 116c-28 51 -41 112 -41 184s13 133 41 184c26 51 65 89 116 116c50 27 110 40 179 40c49 0 94 -7 136 -20c42 -14 77 -36 107 -65
c28 -29 48 -68 57 -115l-200 -78c-5 43 -16 71 -33 84c-16 13 -36 19 -61 19c-35 0 -61 -13 -78 -39c-17 -27 -26 -69 -26 -126s8 -98 25 -125c16 -27 44 -40 84 -40c24 0 44 7 59 21c15 15 25 38 29 69zM260 14l40 28c121 -8 182 -50 182 -126c0 -41 -13 -74 -40 -96
c-27 -24 -65 -35 -114 -35c-29 0 -51 3 -66 9s-29 13 -41 20l33 97c7 -5 15 -8 24 -11s19 -4 32 -4c16 0 29 4 38 13c10 9 15 20 15 35c0 14 -7 27 -22 38s-42 22 -81 32z" />
    <glyph glyph-name="uni1E08" unicode="&#x1e08;" horiz-adv-x="677" 
d="M670 202c-12 -51 -32 -93 -62 -124c-28 -31 -64 -54 -105 -68c-41 -13 -87 -20 -138 -20c-69 0 -129 13 -179 40c-51 27 -90 65 -116 116c-28 51 -41 112 -41 184s13 133 41 184c26 51 65 89 116 116c50 27 110 40 179 40c49 0 94 -7 136 -20c42 -14 77 -36 107 -65
c28 -29 48 -68 57 -115l-200 -78c-5 43 -16 71 -33 84c-16 13 -36 19 -61 19c-35 0 -61 -13 -78 -39c-17 -27 -26 -69 -26 -126s8 -98 25 -125c16 -27 44 -40 84 -40c24 0 44 7 59 21c15 15 25 38 29 69zM260 14l40 28c121 -8 182 -50 182 -126c0 -41 -13 -74 -40 -96
c-27 -24 -65 -35 -114 -35c-29 0 -51 3 -66 9s-29 13 -41 20l33 97c7 -5 15 -8 24 -11s19 -4 32 -4c16 0 29 4 38 13c10 9 15 20 15 35c0 14 -7 27 -22 38s-42 22 -81 32zM323 876h196l-91 -167h-163z" />
    <glyph glyph-name="Ccircumflex" unicode="&#x108;" horiz-adv-x="677" 
d="M670 202c-12 -51 -32 -93 -62 -124c-28 -31 -64 -54 -105 -68c-41 -13 -87 -20 -138 -20c-69 0 -129 13 -179 40c-51 27 -90 65 -116 116c-28 51 -41 112 -41 184s13 133 41 184c26 51 65 89 116 116c50 27 110 40 179 40c49 0 94 -7 136 -20c42 -14 77 -36 107 -65
c28 -29 48 -68 57 -115l-200 -78c-5 43 -16 71 -33 84c-16 13 -36 19 -61 19c-35 0 -61 -13 -78 -39c-17 -27 -26 -69 -26 -126s8 -98 25 -125c16 -27 44 -40 84 -40c24 0 44 7 59 21c15 15 25 38 29 69zM559 709h-148l-55 82l-55 -82h-148l94 167h218z" />
    <glyph glyph-name="Cdotaccent" unicode="&#x10a;" horiz-adv-x="677" 
d="M670 202c-12 -51 -32 -93 -62 -124c-28 -31 -64 -54 -105 -68c-41 -13 -87 -20 -138 -20c-69 0 -129 13 -179 40c-51 27 -90 65 -116 116c-28 51 -41 112 -41 184s13 133 41 184c26 51 65 89 116 116c50 27 110 40 179 40c49 0 94 -7 136 -20c42 -14 77 -36 107 -65
c28 -29 48 -68 57 -115l-200 -78c-5 43 -16 71 -33 84c-16 13 -36 19 -61 19c-35 0 -61 -13 -78 -39c-17 -27 -26 -69 -26 -126s8 -98 25 -125c16 -27 44 -40 84 -40c24 0 44 7 59 21c15 15 25 38 29 69zM356 886c77 0 115 -31 115 -94s-38 -94 -115 -94
c-75 0 -112 31 -112 94s37 94 112 94z" />
    <glyph glyph-name="D" unicode="D" horiz-adv-x="716" 
d="M374 660c103 0 181 -29 234 -86s79 -139 79 -244s-26 -186 -79 -244c-53 -57 -131 -86 -234 -86h-324v660h324zM341 166c43 0 72 13 87 40c14 26 21 67 21 124s-7 98 -21 124c-15 27 -44 40 -87 40h-58v-328h58z" />
    <glyph glyph-name="uni01F1" unicode="&#x1f1;" horiz-adv-x="1353" 
d="M374 660c103 0 181 -29 234 -86s79 -139 79 -244s-26 -186 -79 -244c-53 -57 -131 -86 -234 -86h-324v660h324zM341 166c43 0 72 13 87 40c14 26 21 67 21 124s-7 98 -21 124c-15 27 -44 40 -87 40h-58v-328h58zM1338 166v-166h-597v159l335 335h-331v166h582v-159
l-333 -335h344z" />
    <glyph glyph-name="uni01C4" unicode="&#x1c4;" horiz-adv-x="1353" 
d="M374 660c103 0 181 -29 234 -86s79 -139 79 -244s-26 -186 -79 -244c-53 -57 -131 -86 -234 -86h-324v660h324zM341 166c43 0 72 13 87 40c14 26 21 67 21 124s-7 98 -21 124c-15 27 -44 40 -87 40h-58v-328h58zM1338 166v-166h-597v159l335 335h-331v166h582v-159
l-333 -335h344zM1248 876l-94 -167h-218l-94 167h148l55 -82l55 82h148z" />
    <glyph glyph-name="Eth" unicode="&#xd0;" horiz-adv-x="744" 
d="M4 253v150h74v257h324c103 0 181 -29 234 -86s79 -139 79 -244s-26 -186 -79 -244c-53 -57 -131 -86 -234 -86h-324v253h-74zM369 166c43 0 72 13 87 40c14 26 21 67 21 124s-7 98 -21 124c-15 27 -44 40 -87 40h-58v-91h86v-150h-86v-87h58z" />
    <glyph glyph-name="Dcaron" unicode="&#x10e;" horiz-adv-x="716" 
d="M374 660c103 0 181 -29 234 -86s79 -139 79 -244s-26 -186 -79 -244c-53 -57 -131 -86 -234 -86h-324v660h324zM341 166c43 0 72 13 87 40c14 26 21 67 21 124s-7 98 -21 124c-15 27 -44 40 -87 40h-58v-328h58zM534 876l-94 -167h-218l-94 167h148l55 -82l55 82h148z
" />
    <glyph glyph-name="Dcroat" unicode="&#x110;" horiz-adv-x="744" 
d="M4 253v150h74v257h324c103 0 181 -29 234 -86s79 -139 79 -244s-26 -186 -79 -244c-53 -57 -131 -86 -234 -86h-324v253h-74zM369 166c43 0 72 13 87 40c14 26 21 67 21 124s-7 98 -21 124c-15 27 -44 40 -87 40h-58v-91h86v-150h-86v-87h58z" />
    <glyph glyph-name="uni1E0C" unicode="&#x1e0c;" horiz-adv-x="716" 
d="M374 660c103 0 181 -29 234 -86s79 -139 79 -244s-26 -186 -79 -244c-53 -57 -131 -86 -234 -86h-324v660h324zM341 166c43 0 72 13 87 40c14 26 21 67 21 124s-7 98 -21 124c-15 27 -44 40 -87 40h-58v-328h58zM331 -226c-75 0 -112 31 -112 94s37 94 112 94
c77 0 115 -31 115 -94s-38 -94 -115 -94z" />
    <glyph glyph-name="uni1E0E" unicode="&#x1e0e;" horiz-adv-x="716" 
d="M374 660c103 0 181 -29 234 -86s79 -139 79 -244s-26 -186 -79 -244c-53 -57 -131 -86 -234 -86h-324v660h324zM341 166c43 0 72 13 87 40c14 26 21 67 21 124s-7 98 -21 124c-15 27 -44 40 -87 40h-58v-328h58zM525 -51v-130h-388v130h388z" />
    <glyph glyph-name="uni01F2" unicode="&#x1f2;" horiz-adv-x="1220" 
d="M374 660c103 0 181 -29 234 -86s79 -139 79 -244s-26 -186 -79 -244c-53 -57 -131 -86 -234 -86h-324v660h324zM341 166c43 0 72 13 87 40c14 26 21 67 21 124s-7 98 -21 124c-15 27 -44 40 -87 40h-58v-328h58zM737 0v132l156 172l47 46l-73 -2h-130v152h457v-132
l-153 -170l-49 -48l82 2h130v-152h-467z" />
    <glyph glyph-name="uni01C5" unicode="&#x1c5;" horiz-adv-x="1220" 
d="M374 660c103 0 181 -29 234 -86s79 -139 79 -244s-26 -186 -79 -244c-53 -57 -131 -86 -234 -86h-324v660h324zM341 166c43 0 72 13 87 40c14 26 21 67 21 124s-7 98 -21 124c-15 27 -44 40 -87 40h-58v-328h58zM737 0v132l156 172l47 46l-73 -2h-130v152h457v-132
l-153 -170l-49 -48l82 2h130v-152h-467zM1174 730l-106 -177h-214l-106 177h156l57 -71l57 71h156z" />
    <glyph glyph-name="E" unicode="E" horiz-adv-x="626" 
d="M50 0v660h548v-171h-315v-82h254v-158h-254v-78h327v-171h-560z" />
    <glyph glyph-name="Eacute" unicode="&#xc9;" horiz-adv-x="626" 
d="M50 0v660h548v-171h-315v-82h254v-158h-254v-78h327v-171h-560zM280 876h196l-91 -167h-163z" />
    <glyph glyph-name="Ebreve" unicode="&#x114;" horiz-adv-x="626" 
d="M50 0v660h548v-171h-315v-82h254v-158h-254v-78h327v-171h-560zM507 873c0 -55 -16 -97 -49 -127c-32 -31 -77 -46 -134 -46s-101 15 -134 46c-33 30 -49 72 -49 127h139c0 -37 15 -55 44 -55s44 18 44 55h139z" />
    <glyph glyph-name="Ecaron" unicode="&#x11a;" horiz-adv-x="626" 
d="M50 0v660h548v-171h-315v-82h254v-158h-254v-78h327v-171h-560zM527 876l-94 -167h-218l-94 167h148l55 -82l55 82h148z" />
    <glyph glyph-name="uni1E1C" unicode="&#x1e1c;" horiz-adv-x="626" 
d="M50 0v660h548v-171h-315v-82h254v-158h-254v-78h327v-171h-560zM250 14l40 28c121 -8 182 -50 182 -126c0 -41 -13 -74 -40 -96c-27 -24 -65 -35 -114 -35c-29 0 -51 3 -66 9s-29 13 -41 20l33 97c7 -5 15 -8 24 -11s19 -4 32 -4c16 0 29 4 38 13c10 9 15 20 15 35
c0 14 -7 27 -22 38s-42 22 -81 32zM507 873c0 -55 -16 -97 -49 -127c-32 -31 -77 -46 -134 -46s-101 15 -134 46c-33 30 -49 72 -49 127h139c0 -37 15 -55 44 -55s44 18 44 55h139z" />
    <glyph glyph-name="Ecircumflex" unicode="&#xca;" horiz-adv-x="626" 
d="M50 0v660h548v-171h-315v-82h254v-158h-254v-78h327v-171h-560zM527 709h-148l-55 82l-55 -82h-148l94 167h218z" />
    <glyph glyph-name="uni1EBE" unicode="&#x1ebe;" horiz-adv-x="626" 
d="M541 952h177l-82 -150h-147zM516 707h-141l-51 64l-51 -64h-141l96 160h192zM50 0v660h548v-171h-315v-82h254v-158h-254v-78h327v-171h-560z" />
    <glyph glyph-name="uni1EC6" unicode="&#x1ec6;" horiz-adv-x="626" 
d="M50 0v660h548v-171h-315v-82h254v-158h-254v-78h327v-171h-560zM338 -226c-75 0 -112 31 -112 94s37 94 112 94c77 0 115 -31 115 -94s-38 -94 -115 -94zM527 709h-148l-55 82l-55 -82h-148l94 167h218z" />
    <glyph glyph-name="uni1EC0" unicode="&#x1ec0;" horiz-adv-x="626" 
d="M601 952l52 -150h-147l-82 150h177zM516 707h-141l-51 64l-51 -64h-141l96 160h192zM50 0v660h548v-171h-315v-82h254v-158h-254v-78h327v-171h-560z" />
    <glyph glyph-name="uni1EC2" unicode="&#x1ec2;" horiz-adv-x="626" 
d="M511 788l-43 62c19 7 33 15 40 23s11 16 11 23c0 9 -3 16 -7 21c-6 5 -13 8 -23 8c-9 0 -17 -2 -21 -7c-6 -5 -10 -11 -13 -19l-98 42c7 31 24 54 50 71s58 25 95 25c23 0 44 -4 66 -12c20 -8 38 -20 51 -37s20 -38 20 -64c0 -29 -7 -52 -21 -70c-15 -19 -32 -33 -52 -44
c-20 -10 -38 -17 -55 -22zM516 707h-141l-51 64l-51 -64h-141l96 160h192zM50 0v660h548v-171h-315v-82h254v-158h-254v-78h327v-171h-560z" />
    <glyph glyph-name="uni1EC4" unicode="&#x1ec4;" horiz-adv-x="626" 
d="M514 1047c-1 -54 -14 -94 -38 -119c-23 -26 -50 -39 -80 -39c-23 0 -41 4 -56 11s-27 15 -38 22c-11 8 -21 12 -32 12c-16 0 -25 -14 -28 -43h-106c1 54 14 94 39 119c25 26 54 39 89 39c22 0 40 -4 52 -11c14 -8 25 -16 34 -23s20 -11 31 -11c15 0 24 14 27 43h106z
M516 707h-141l-51 64l-51 -64h-141l96 160h192zM50 0v660h548v-171h-315v-82h254v-158h-254v-78h327v-171h-560z" />
    <glyph glyph-name="uni0204" unicode="&#x204;" horiz-adv-x="626" 
d="M50 0v660h548v-171h-315v-82h254v-158h-254v-78h327v-171h-560zM229 876l58 -167h-163l-91 167h196zM484 876l58 -167h-163l-91 167h196z" />
    <glyph glyph-name="Edieresis" unicode="&#xcb;" horiz-adv-x="626" 
d="M50 0v660h548v-171h-315v-82h254v-158h-254v-78h327v-171h-560zM204 880c33 0 59 -8 78 -24c18 -15 27 -38 27 -67s-9 -51 -27 -67c-19 -16 -45 -24 -78 -24s-58 8 -76 24c-17 16 -26 38 -26 67s9 52 26 67c18 16 43 24 76 24zM441 880c33 0 59 -8 77 -24
c19 -15 28 -38 28 -67s-9 -51 -28 -67c-18 -16 -44 -24 -77 -24s-58 8 -75 24c-18 16 -27 38 -27 67s9 52 27 67c17 16 42 24 75 24z" />
    <glyph glyph-name="Edotaccent" unicode="&#x116;" horiz-adv-x="626" 
d="M50 0v660h548v-171h-315v-82h254v-158h-254v-78h327v-171h-560zM324 886c77 0 115 -31 115 -94s-38 -94 -115 -94c-75 0 -112 31 -112 94s37 94 112 94z" />
    <glyph glyph-name="uni1EB8" unicode="&#x1eb8;" horiz-adv-x="626" 
d="M50 0v660h548v-171h-315v-82h254v-158h-254v-78h327v-171h-560zM338 -226c-75 0 -112 31 -112 94s37 94 112 94c77 0 115 -31 115 -94s-38 -94 -115 -94z" />
    <glyph glyph-name="Egrave" unicode="&#xc8;" horiz-adv-x="626" 
d="M50 0v660h548v-171h-315v-82h254v-158h-254v-78h327v-171h-560zM357 876l58 -167h-163l-91 167h196z" />
    <glyph glyph-name="uni1EBA" unicode="&#x1eba;" horiz-adv-x="626" 
d="M50 0v660h548v-171h-315v-82h254v-158h-254v-78h327v-171h-560zM325 690l-43 62c19 7 33 15 40 23s11 16 11 23c0 9 -3 16 -7 21c-6 5 -13 8 -23 8c-9 0 -17 -2 -21 -7c-6 -5 -10 -11 -13 -19l-98 42c7 31 24 54 50 71s58 25 95 25c23 0 44 -4 66 -12
c20 -8 38 -20 51 -37s20 -38 20 -64c0 -29 -7 -52 -21 -70c-15 -19 -32 -33 -52 -44c-20 -10 -38 -17 -55 -22z" />
    <glyph glyph-name="uni0206" unicode="&#x206;" horiz-adv-x="626" 
d="M50 0v660h548v-171h-315v-82h254v-158h-254v-78h327v-171h-560zM507 700h-139c0 37 -15 55 -44 55s-44 -18 -44 -55h-139c0 55 16 98 49 128s77 45 134 45s102 -15 134 -45c33 -30 49 -73 49 -128z" />
    <glyph glyph-name="Emacron" unicode="&#x112;" horiz-adv-x="626" 
d="M50 0v660h548v-171h-315v-82h254v-158h-254v-78h327v-171h-560zM518 841v-130h-388v130h388z" />
    <glyph glyph-name="uni1E16" unicode="&#x1e16;" horiz-adv-x="626" 
d="M50 0v660h548v-171h-315v-82h254v-158h-254v-78h327v-171h-560zM518 841v-130h-388v130h388zM291 1055h196l-91 -167h-163z" />
    <glyph glyph-name="uni1E14" unicode="&#x1e14;" horiz-adv-x="626" 
d="M50 0v660h548v-171h-315v-82h254v-158h-254v-78h327v-171h-560zM518 841v-130h-388v130h388zM357 1055l58 -167h-163l-91 167h196z" />
    <glyph glyph-name="Eogonek" unicode="&#x118;" horiz-adv-x="626" 
d="M50 0v660h548v-171h-315v-82h254v-158h-254v-78h327v-170l1 -1c-43 -3 -72 -9 -89 -18c-16 -10 -24 -23 -24 -38c0 -25 16 -38 49 -38c7 0 15 1 22 2s13 3 18 6l27 -103c-16 -10 -33 -17 -52 -21c-19 -3 -41 -5 -66 -5c-27 0 -53 4 -76 13c-23 8 -42 21 -56 38
c-13 17 -20 40 -20 68c0 21 6 40 18 56c13 16 30 29 51 40h-363z" />
    <glyph glyph-name="uni018E" unicode="&#x18e;" horiz-adv-x="626" 
d="M576 0h-560v171h327v78h-254v158h254v82h-315v171h548v-660z" />
    <glyph glyph-name="uni1EBC" unicode="&#x1ebc;" horiz-adv-x="626" 
d="M50 0v660h548v-171h-315v-82h254v-158h-254v-78h327v-171h-560zM534 879c-1 -40 -7 -73 -20 -99s-29 -45 -48 -58c-20 -13 -41 -19 -63 -19c-25 0 -45 4 -62 13c-17 8 -31 16 -43 24c-11 9 -23 13 -35 13c-18 0 -28 -16 -31 -48h-118c1 60 16 104 43 133s60 43 99 43
c25 0 44 -4 58 -13c15 -8 27 -16 38 -24c11 -9 22 -13 34 -13c17 0 27 16 30 48h118z" />
    <glyph glyph-name="F" unicode="F" horiz-adv-x="614" 
d="M597 489h-314v-92h254v-171h-254v-226h-233v660h547v-171z" />
    <glyph glyph-name="G" unicode="G" horiz-adv-x="722" 
d="M328 -10c-57 0 -108 12 -153 38c-45 24 -81 62 -107 112c-26 51 -39 113 -39 188c0 108 30 192 91 252c60 60 144 90 251 90c81 0 147 -14 195 -43c50 -29 87 -75 113 -138l-217 -78c-5 31 -15 53 -30 65c-16 13 -36 19 -59 19c-38 0 -65 -13 -81 -41
c-17 -26 -25 -68 -25 -124c0 -63 10 -107 30 -132c20 -26 51 -39 94 -39c27 0 49 6 65 17c18 11 26 29 26 52v1h-111v143h306v-372h-154l-8 77c-37 -58 -99 -87 -187 -87z" />
    <glyph glyph-name="Gbreve" unicode="&#x11e;" horiz-adv-x="722" 
d="M328 -10c-57 0 -108 12 -153 38c-45 24 -81 62 -107 112c-26 51 -39 113 -39 188c0 108 30 192 91 252c60 60 144 90 251 90c81 0 147 -14 195 -43c50 -29 87 -75 113 -138l-217 -78c-5 31 -15 53 -30 65c-16 13 -36 19 -59 19c-38 0 -65 -13 -81 -41
c-17 -26 -25 -68 -25 -124c0 -63 10 -107 30 -132c20 -26 51 -39 94 -39c27 0 49 6 65 17c18 11 26 29 26 52v1h-111v143h306v-372h-154l-8 77c-37 -58 -99 -87 -187 -87zM547 873c0 -55 -16 -97 -49 -127c-32 -31 -77 -46 -134 -46s-101 15 -134 46c-33 30 -49 72 -49 127
h139c0 -37 15 -55 44 -55s44 18 44 55h139z" />
    <glyph glyph-name="Gcaron" unicode="&#x1e6;" horiz-adv-x="722" 
d="M328 -10c-57 0 -108 12 -153 38c-45 24 -81 62 -107 112c-26 51 -39 113 -39 188c0 108 30 192 91 252c60 60 144 90 251 90c81 0 147 -14 195 -43c50 -29 87 -75 113 -138l-217 -78c-5 31 -15 53 -30 65c-16 13 -36 19 -59 19c-38 0 -65 -13 -81 -41
c-17 -26 -25 -68 -25 -124c0 -63 10 -107 30 -132c20 -26 51 -39 94 -39c27 0 49 6 65 17c18 11 26 29 26 52v1h-111v143h306v-372h-154l-8 77c-37 -58 -99 -87 -187 -87zM567 876l-94 -167h-218l-94 167h148l55 -82l55 82h148z" />
    <glyph glyph-name="Gcircumflex" unicode="&#x11c;" horiz-adv-x="722" 
d="M328 -10c-57 0 -108 12 -153 38c-45 24 -81 62 -107 112c-26 51 -39 113 -39 188c0 108 30 192 91 252c60 60 144 90 251 90c81 0 147 -14 195 -43c50 -29 87 -75 113 -138l-217 -78c-5 31 -15 53 -30 65c-16 13 -36 19 -59 19c-38 0 -65 -13 -81 -41
c-17 -26 -25 -68 -25 -124c0 -63 10 -107 30 -132c20 -26 51 -39 94 -39c27 0 49 6 65 17c18 11 26 29 26 52v1h-111v143h306v-372h-154l-8 77c-37 -58 -99 -87 -187 -87zM567 709h-148l-55 82l-55 -82h-148l94 167h218z" />
    <glyph glyph-name="uni0122" unicode="&#x122;" horiz-adv-x="722" 
d="M328 -10c-57 0 -108 12 -153 38c-45 24 -81 62 -107 112c-26 51 -39 113 -39 188c0 108 30 192 91 252c60 60 144 90 251 90c81 0 147 -14 195 -43c50 -29 87 -75 113 -138l-217 -78c-5 31 -15 53 -30 65c-16 13 -36 19 -59 19c-38 0 -65 -13 -81 -41
c-17 -26 -25 -68 -25 -124c0 -63 10 -107 30 -132c20 -26 51 -39 94 -39c27 0 49 6 65 17c18 11 26 29 26 52v1h-111v143h306v-372h-154l-8 77c-37 -58 -99 -87 -187 -87zM498 -50l-75 -193h-142l24 193h193z" />
    <glyph glyph-name="Gdotaccent" unicode="&#x120;" horiz-adv-x="722" 
d="M328 -10c-57 0 -108 12 -153 38c-45 24 -81 62 -107 112c-26 51 -39 113 -39 188c0 108 30 192 91 252c60 60 144 90 251 90c81 0 147 -14 195 -43c50 -29 87 -75 113 -138l-217 -78c-5 31 -15 53 -30 65c-16 13 -36 19 -59 19c-38 0 -65 -13 -81 -41
c-17 -26 -25 -68 -25 -124c0 -63 10 -107 30 -132c20 -26 51 -39 94 -39c27 0 49 6 65 17c18 11 26 29 26 52v1h-111v143h306v-372h-154l-8 77c-37 -58 -99 -87 -187 -87zM364 886c77 0 115 -31 115 -94s-38 -94 -115 -94c-75 0 -112 31 -112 94s37 94 112 94z" />
    <glyph glyph-name="uni0241" unicode="&#x241;" horiz-adv-x="651" 
d="M344 670c55 0 105 -9 148 -26c44 -17 79 -43 104 -78s38 -78 38 -130c0 -51 -9 -93 -26 -126c-18 -34 -42 -61 -72 -80c-30 -20 -64 -34 -102 -42v-188h-223l1 312c62 1 105 14 130 36c25 24 37 52 37 87c0 19 -5 33 -15 42s-23 13 -38 13c-25 0 -44 -9 -57 -26
s-22 -45 -27 -82l-226 67c9 41 26 79 49 112s57 60 102 79c45 20 104 30 177 30z" />
    <glyph glyph-name="uni1E20" unicode="&#x1e20;" horiz-adv-x="722" 
d="M328 -10c-57 0 -108 12 -153 38c-45 24 -81 62 -107 112c-26 51 -39 113 -39 188c0 108 30 192 91 252c60 60 144 90 251 90c81 0 147 -14 195 -43c50 -29 87 -75 113 -138l-217 -78c-5 31 -15 53 -30 65c-16 13 -36 19 -59 19c-38 0 -65 -13 -81 -41
c-17 -26 -25 -68 -25 -124c0 -63 10 -107 30 -132c20 -26 51 -39 94 -39c27 0 49 6 65 17c18 11 26 29 26 52v1h-111v143h306v-372h-154l-8 77c-37 -58 -99 -87 -187 -87zM558 841v-130h-388v130h388z" />
    <glyph glyph-name="H" unicode="H" horiz-adv-x="747" 
d="M283 660v-243h181v243h233v-660h-233v246h-181v-246h-233v660h233z" />
    <glyph glyph-name="Hbar" unicode="&#x126;" horiz-adv-x="747" 
d="M283 660v-243h181v243h233v-660h-233v246h-181v-246h-233v660h233zM764 592v-113h-781v113h781z" />
    <glyph glyph-name="uni1E2A" unicode="&#x1e2a;" horiz-adv-x="747" 
d="M283 660v-243h181v243h233v-660h-233v246h-181v-246h-233v660h233zM557 -40c0 -55 -16 -97 -49 -128c-32 -30 -77 -45 -134 -45s-101 15 -134 45c-33 31 -49 73 -49 128h139c0 -37 15 -55 44 -55s44 18 44 55h139z" />
    <glyph glyph-name="Hcircumflex" unicode="&#x124;" horiz-adv-x="747" 
d="M283 660v-243h181v243h233v-660h-233v246h-181v-246h-233v660h233zM577 709h-148l-55 82l-55 -82h-148l94 167h218z" />
    <glyph glyph-name="uni1E24" unicode="&#x1e24;" horiz-adv-x="747" 
d="M283 660v-243h181v243h233v-660h-233v246h-181v-246h-233v660h233zM374 -226c-75 0 -112 31 -112 94s37 94 112 94c77 0 115 -31 115 -94s-38 -94 -115 -94z" />
    <glyph glyph-name="I" unicode="I" horiz-adv-x="333" 
d="M283 660v-660h-233v660h233z" />
    <glyph glyph-name="IJ" unicode="&#x132;" horiz-adv-x="986" 
d="M283 660v-660h-233v660h233zM951 660v-388c0 -89 -27 -159 -80 -208s-130 -74 -231 -74c-74 0 -133 13 -178 39c-44 26 -74 62 -90 107c-17 45 -21 97 -12 154l231 39c-9 -63 -7 -106 3 -129c12 -23 31 -35 58 -35c23 0 39 10 50 29s16 51 16 95v371h233z" />
    <glyph glyph-name="Iacute" unicode="&#xcd;" horiz-adv-x="333" 
d="M283 660v-660h-233v660h233zM133 876h196l-91 -167h-163z" />
    <glyph glyph-name="Ibreve" unicode="&#x12c;" horiz-adv-x="333" 
d="M283 660v-660h-233v660h233zM349 873c0 -55 -16 -97 -49 -127c-32 -31 -77 -46 -134 -46s-101 15 -134 46c-33 30 -49 72 -49 127h139c0 -37 15 -55 44 -55s44 18 44 55h139z" />
    <glyph glyph-name="Icircumflex" unicode="&#xce;" horiz-adv-x="333" 
d="M283 660v-660h-233v660h233zM369 709h-148l-55 82l-55 -82h-148l94 167h218z" />
    <glyph glyph-name="uni0208" unicode="&#x208;" horiz-adv-x="333" 
d="M283 660v-660h-233v660h233zM71 876l58 -167h-163l-91 167h196zM326 876l58 -167h-163l-91 167h196z" />
    <glyph glyph-name="Idieresis" unicode="&#xcf;" horiz-adv-x="333" 
d="M52 880c32 0 57 -8 75 -24c18 -15 27 -38 27 -67s-9 -51 -27 -67s-43 -24 -75 -24c-31 0 -55 8 -72 24s-26 38 -26 67s9 52 26 67c17 16 41 24 72 24zM277 880c32 0 57 -8 75 -24c18 -15 27 -38 27 -67s-9 -51 -27 -67s-43 -24 -75 -24c-31 0 -55 8 -72 24s-26 38 -26 67
s9 52 26 67c17 16 41 24 72 24zM283 660v-660h-233v660h233z" />
    <glyph glyph-name="uni1E2E" unicode="&#x1e2e;" horiz-adv-x="333" 
d="M283 660v-660h-233v660h233zM46 880c33 0 59 -8 78 -24c18 -15 27 -38 27 -67s-9 -51 -27 -67c-19 -16 -45 -24 -78 -24s-58 8 -76 24c-17 16 -26 38 -26 67s9 52 26 67c18 16 43 24 76 24zM283 880c33 0 59 -8 77 -24c19 -15 28 -38 28 -67s-9 -51 -28 -67
c-18 -16 -44 -24 -77 -24s-58 8 -75 24c-18 16 -27 38 -27 67s9 52 27 67c17 16 42 24 75 24zM133 1080h196l-91 -167h-163z" />
    <glyph glyph-name="Idotaccent" unicode="&#x130;" horiz-adv-x="333" 
d="M283 660v-660h-233v660h233zM166 886c77 0 115 -31 115 -94s-38 -94 -115 -94c-75 0 -112 31 -112 94s37 94 112 94z" />
    <glyph glyph-name="uni1ECA" unicode="&#x1eca;" horiz-adv-x="333" 
d="M283 660v-660h-233v660h233zM167 -226c-75 0 -112 31 -112 94s37 94 112 94c77 0 115 -31 115 -94s-38 -94 -115 -94z" />
    <glyph glyph-name="Igrave" unicode="&#xcc;" horiz-adv-x="333" 
d="M283 660v-660h-233v660h233zM199 876l58 -167h-163l-91 167h196z" />
    <glyph glyph-name="uni1EC8" unicode="&#x1ec8;" horiz-adv-x="333" 
d="M283 660v-660h-233v660h233zM167 690l-43 62c19 7 33 15 40 23s11 16 11 23c0 9 -3 16 -7 21c-6 5 -13 8 -23 8c-9 0 -17 -2 -21 -7c-6 -5 -10 -11 -13 -19l-98 42c7 31 24 54 50 71s58 25 95 25c23 0 44 -4 66 -12c20 -8 38 -20 51 -37s20 -38 20 -64
c0 -29 -7 -52 -21 -70c-15 -19 -32 -33 -52 -44c-20 -10 -38 -17 -55 -22z" />
    <glyph glyph-name="uni020A" unicode="&#x20a;" horiz-adv-x="333" 
d="M283 660v-660h-233v660h233zM349 700h-139c0 37 -15 55 -44 55s-44 -18 -44 -55h-139c0 55 16 98 49 128s77 45 134 45s102 -15 134 -45c33 -30 49 -73 49 -128z" />
    <glyph glyph-name="Imacron" unicode="&#x12a;" horiz-adv-x="333" 
d="M330 841v-130h-329v130h329zM283 660v-660h-233v660h233z" />
    <glyph glyph-name="Iogonek" unicode="&#x12e;" horiz-adv-x="333" 
d="M178 -225c-27 0 -54 4 -79 12s-46 21 -61 41c-16 18 -24 44 -24 77c0 21 3 39 10 55c7 15 16 29 27 40h-1v660h233v-660c-32 -9 -57 -18 -75 -26c-19 -10 -28 -23 -28 -40c0 -25 16 -38 49 -38c7 0 15 1 22 2s13 3 18 6l27 -103c-16 -10 -33 -17 -52 -21
c-19 -3 -41 -5 -66 -5z" />
    <glyph glyph-name="Itilde" unicode="&#x128;" horiz-adv-x="333" 
d="M283 660v-660h-233v660h233zM376 879c-1 -40 -7 -73 -20 -99s-29 -45 -48 -58c-20 -13 -41 -19 -63 -19c-25 0 -45 4 -62 13c-17 8 -31 16 -43 24c-11 9 -23 13 -35 13c-18 0 -28 -16 -31 -48h-118c1 60 16 104 43 133s60 43 99 43c25 0 44 -4 58 -13
c15 -8 27 -16 38 -24c11 -9 22 -13 34 -13c17 0 27 16 30 48h118z" />
    <glyph glyph-name="J" unicode="J" horiz-adv-x="653" 
d="M618 660v-388c0 -89 -27 -159 -80 -208s-130 -74 -231 -74c-74 0 -133 13 -177 39c-45 26 -75 62 -92 107c-16 45 -20 97 -11 154l231 39c-9 -63 -8 -106 4 -129c10 -23 30 -35 57 -35c23 0 39 10 50 29s16 51 16 95v371h233z" />
    <glyph glyph-name="Jcircumflex" unicode="&#x134;" horiz-adv-x="653" 
d="M618 660v-388c0 -89 -27 -159 -80 -208s-130 -74 -231 -74c-74 0 -133 13 -177 39c-45 26 -75 62 -92 107c-16 45 -20 97 -11 154l231 39c-9 -63 -8 -106 4 -129c10 -23 30 -35 57 -35c23 0 39 10 50 29s16 51 16 95v371h233zM705 709h-148l-55 82l-55 -82h-148l94 167
h218z" />
    <glyph glyph-name="K" unicode="K" horiz-adv-x="717" 
d="M283 660v-246l172 246h248l-202 -262l220 -398h-261l-123 247l-54 -74v-173h-233v660h233z" />
    <glyph glyph-name="uni0136" unicode="&#x136;" horiz-adv-x="717" 
d="M283 660v-246l172 246h248l-202 -262l220 -398h-261l-123 247l-54 -74v-173h-233v660h233zM475 -50l-75 -193h-142l24 193h193z" />
    <glyph glyph-name="L" unicode="L" horiz-adv-x="605" 
d="M283 171h299v-171h-532v660h233v-489z" />
    <glyph glyph-name="uni01C7" unicode="&#x1c7;" horiz-adv-x="1258" 
d="M283 171h299v-171h-532v660h233v-489zM1223 660v-388c0 -89 -27 -159 -80 -208s-130 -74 -231 -74c-74 0 -133 13 -178 39c-44 26 -74 62 -90 107c-17 45 -21 97 -12 154l231 39c-9 -63 -7 -106 3 -129c12 -23 31 -35 58 -35c23 0 39 10 50 29s16 51 16 95v371h233z" />
    <glyph glyph-name="Lacute" unicode="&#x139;" horiz-adv-x="605" 
d="M283 171h299v-171h-532v660h233v-489zM133 876h196l-91 -167h-163z" />
    <glyph glyph-name="Lcaron" unicode="&#x13d;" horiz-adv-x="605" 
d="M619 660l-73 -267h-151l26 267h198zM283 171h299v-171h-532v660h233v-489z" />
    <glyph glyph-name="uni013B" unicode="&#x13b;" horiz-adv-x="605" 
d="M283 171h299v-171h-532v660h233v-489zM437 -50l-75 -193h-142l24 193h193z" />
    <glyph glyph-name="Ldot" unicode="&#x13f;" horiz-adv-x="661" 
d="M283 171h299v-171h-532v660h233v-489zM500 498c39 0 70 -9 91 -28s32 -45 32 -79s-11 -60 -32 -79s-52 -28 -91 -28s-69 9 -90 28c-22 19 -33 45 -33 79s11 60 33 79c21 19 51 28 90 28z" />
    <glyph glyph-name="uni1E36" unicode="&#x1e36;" horiz-adv-x="605" 
d="M283 171h299v-171h-532v660h233v-489zM318 -226c-75 0 -112 31 -112 94s37 94 112 94c77 0 115 -31 115 -94s-38 -94 -115 -94z" />
    <glyph glyph-name="uni01C8" unicode="&#x1c8;" horiz-adv-x="913" 
d="M283 171h299v-171h-532v660h233v-489zM759 532c-45 0 -77 7 -97 22c-18 15 -28 39 -28 74s10 60 28 74c20 15 52 22 97 22s77 -7 97 -22c18 -14 28 -39 28 -74s-10 -59 -28 -74c-20 -15 -52 -22 -97 -22zM874 500v-513c0 -71 -18 -122 -52 -154c-36 -32 -92 -48 -169 -48
c-31 0 -59 3 -84 7c-25 6 -47 13 -68 24l28 133c7 -3 14 -6 23 -8c8 -2 18 -3 29 -3c19 0 35 5 46 16c11 10 17 28 17 53v493h230z" />
    <glyph glyph-name="uni1E3A" unicode="&#x1e3a;" horiz-adv-x="605" 
d="M283 171h299v-171h-532v660h233v-489zM512 -51v-130h-388v130h388z" />
    <glyph glyph-name="Lslash" unicode="&#x141;" horiz-adv-x="695" 
d="M373 171h299v-171h-532v196l-114 -50v153l114 50v311h233v-208l166 73v-153l-166 -73v-128z" />
    <glyph glyph-name="M" unicode="M" horiz-adv-x="948" 
d="M898 660v-660h-203v229l3 222h-3l-128 -451h-186l-126 451h-4l3 -222v-229h-204v660h326l76 -293l29 -123h2l29 123l76 293h310z" />
    <glyph glyph-name="uni1E42" unicode="&#x1e42;" horiz-adv-x="948" 
d="M898 660v-660h-203v229l3 222h-3l-128 -451h-186l-126 451h-4l3 -222v-229h-204v660h326l76 -293l29 -123h2l29 123l76 293h310zM474 -226c-75 0 -112 31 -112 94s37 94 112 94c77 0 115 -31 115 -94s-38 -94 -115 -94z" />
    <glyph glyph-name="N" unicode="N" horiz-adv-x="746" 
d="M696 660v-660h-252l-158 300l-36 81h-2l4 -136v-245h-202v660h252l158 -301l36 -80h2l-4 136v245h202z" />
    <glyph glyph-name="uni01CA" unicode="&#x1ca;" horiz-adv-x="1399" 
d="M696 660v-660h-252l-158 300l-36 81h-2l4 -136v-245h-202v660h252l158 -301l36 -80h2l-4 136v245h202zM1364 660v-388c0 -89 -27 -159 -80 -208s-130 -74 -231 -74c-74 0 -133 13 -177 39c-45 26 -75 62 -92 107c-16 45 -20 97 -11 154l231 39c-9 -63 -8 -106 4 -129
c10 -23 30 -35 57 -35c23 0 39 10 50 29s16 51 16 95v371h233z" />
    <glyph glyph-name="Nacute" unicode="&#x143;" horiz-adv-x="746" 
d="M696 660v-660h-252l-158 300l-36 81h-2l4 -136v-245h-202v660h252l158 -301l36 -80h2l-4 136v245h202zM340 876h196l-91 -167h-163z" />
    <glyph glyph-name="Ncaron" unicode="&#x147;" horiz-adv-x="746" 
d="M696 660v-660h-252l-158 300l-36 81h-2l4 -136v-245h-202v660h252l158 -301l36 -80h2l-4 136v245h202zM576 876l-94 -167h-218l-94 167h148l55 -82l55 82h148z" />
    <glyph glyph-name="uni0145" unicode="&#x145;" horiz-adv-x="746" 
d="M696 660v-660h-252l-158 300l-36 81h-2l4 -136v-245h-202v660h252l158 -301l36 -80h2l-4 136v245h202zM493 -50l-75 -193h-142l24 193h193z" />
    <glyph glyph-name="uni1E44" unicode="&#x1e44;" horiz-adv-x="746" 
d="M696 660v-660h-252l-158 300l-36 81h-2l4 -136v-245h-202v660h252l158 -301l36 -80h2l-4 136v245h202zM373 886c77 0 115 -31 115 -94s-38 -94 -115 -94c-75 0 -112 31 -112 94s37 94 112 94z" />
    <glyph glyph-name="uni1E46" unicode="&#x1e46;" horiz-adv-x="746" 
d="M696 660v-660h-252l-158 300l-36 81h-2l4 -136v-245h-202v660h252l158 -301l36 -80h2l-4 136v245h202zM374 -226c-75 0 -112 31 -112 94s37 94 112 94c77 0 115 -31 115 -94s-38 -94 -115 -94z" />
    <glyph glyph-name="uni01CB" unicode="&#x1cb;" horiz-adv-x="1054" 
d="M696 660v-660h-252l-158 300l-36 81h-2l4 -136v-245h-202v660h252l158 -301l36 -80h2l-4 136v245h202zM900 532c-45 0 -78 7 -96 22c-20 15 -29 39 -29 74s9 60 29 74c18 15 51 22 96 22s78 -7 96 -22c20 -14 29 -39 29 -74s-9 -59 -29 -74c-18 -15 -51 -22 -96 -22z
M1015 500v-513c0 -71 -17 -122 -53 -154c-34 -32 -91 -48 -168 -48c-31 0 -59 3 -84 7c-25 6 -47 13 -68 24l28 133c7 -3 14 -6 22 -8c9 -2 19 -3 30 -3c19 0 35 5 46 16c11 10 17 28 17 53v493h230z" />
    <glyph glyph-name="uni1E48" unicode="&#x1e48;" horiz-adv-x="746" 
d="M696 660v-660h-252l-158 300l-36 81h-2l4 -136v-245h-202v660h252l158 -301l36 -80h2l-4 136v245h202zM568 -51v-130h-388v130h388z" />
    <glyph glyph-name="Ntilde" unicode="&#xd1;" horiz-adv-x="746" 
d="M696 660v-660h-252l-158 300l-36 81h-2l4 -136v-245h-202v660h252l158 -301l36 -80h2l-4 136v245h202zM583 879c-1 -40 -7 -73 -20 -99s-29 -45 -49 -58c-19 -13 -40 -19 -62 -19c-25 0 -45 4 -62 13c-17 8 -31 16 -42 24c-12 9 -24 13 -36 13c-18 0 -28 -16 -31 -48
h-118c1 60 16 104 43 133s60 43 99 43c25 0 44 -4 59 -13c14 -8 26 -16 37 -24c11 -9 22 -13 34 -13c17 0 27 16 30 48h118z" />
    <glyph glyph-name="Eng" unicode="&#x14a;" horiz-adv-x="746" 
d="M498 -215c-29 0 -55 2 -77 5s-43 9 -62 18l24 147c7 -4 16 -7 25 -10c10 -3 22 -4 35 -4c17 0 29 5 38 15s13 27 13 51l-204 305l-40 69h-2l4 -136v-245h-202v660h252l142 -232l49 -91h1v323h202v-673c0 -71 -16 -122 -48 -154c-33 -32 -83 -48 -150 -48z" />
    <glyph glyph-name="O" unicode="O" horiz-adv-x="729" 
d="M365 670c105 0 187 -30 247 -89c58 -59 88 -143 88 -251s-30 -192 -88 -251c-60 -59 -142 -89 -247 -89c-69 0 -129 13 -179 40c-51 27 -90 65 -116 116c-28 51 -41 112 -41 184s13 133 41 184c26 51 65 89 116 116c50 27 110 40 179 40zM365 495c-34 0 -59 -13 -75 -39
c-15 -27 -23 -69 -23 -126s8 -99 23 -126c16 -26 41 -39 75 -39s59 13 74 39c15 27 23 69 23 126s-8 99 -23 126c-15 26 -40 39 -74 39z" />
    <glyph glyph-name="Oacute" unicode="&#xd3;" horiz-adv-x="729" 
d="M365 670c105 0 187 -30 247 -89c58 -59 88 -143 88 -251s-30 -192 -88 -251c-60 -59 -142 -89 -247 -89c-69 0 -129 13 -179 40c-51 27 -90 65 -116 116c-28 51 -41 112 -41 184s13 133 41 184c26 51 65 89 116 116c50 27 110 40 179 40zM365 495c-34 0 -59 -13 -75 -39
c-15 -27 -23 -69 -23 -126s8 -99 23 -126c16 -26 41 -39 75 -39s59 13 74 39c15 27 23 69 23 126s-8 99 -23 126c-15 26 -40 39 -74 39zM332 876h196l-91 -167h-163z" />
    <glyph glyph-name="Obreve" unicode="&#x14e;" horiz-adv-x="729" 
d="M365 670c105 0 187 -30 247 -89c58 -59 88 -143 88 -251s-30 -192 -88 -251c-60 -59 -142 -89 -247 -89c-69 0 -129 13 -179 40c-51 27 -90 65 -116 116c-28 51 -41 112 -41 184s13 133 41 184c26 51 65 89 116 116c50 27 110 40 179 40zM365 495c-34 0 -59 -13 -75 -39
c-15 -27 -23 -69 -23 -126s8 -99 23 -126c16 -26 41 -39 75 -39s59 13 74 39c15 27 23 69 23 126s-8 99 -23 126c-15 26 -40 39 -74 39zM548 873c0 -55 -16 -97 -48 -127c-33 -31 -78 -46 -135 -46s-101 15 -134 46c-33 30 -49 72 -49 127h139c0 -37 15 -55 44 -55
s44 18 44 55h139z" />
    <glyph glyph-name="Ocircumflex" unicode="&#xd4;" horiz-adv-x="729" 
d="M365 670c105 0 187 -30 247 -89c58 -59 88 -143 88 -251s-30 -192 -88 -251c-60 -59 -142 -89 -247 -89c-69 0 -129 13 -179 40c-51 27 -90 65 -116 116c-28 51 -41 112 -41 184s13 133 41 184c26 51 65 89 116 116c50 27 110 40 179 40zM365 495c-34 0 -59 -13 -75 -39
c-15 -27 -23 -69 -23 -126s8 -99 23 -126c16 -26 41 -39 75 -39s59 13 74 39c15 27 23 69 23 126s-8 99 -23 126c-15 26 -40 39 -74 39zM568 709h-148l-55 82l-55 -82h-148l94 167h218z" />
    <glyph glyph-name="uni1ED0" unicode="&#x1ed0;" horiz-adv-x="729" 
d="M582 952h177l-82 -150h-147zM557 707h-141l-51 64l-51 -64h-141l96 160h192zM365 670c105 0 187 -30 247 -89c58 -59 88 -143 88 -251s-30 -192 -88 -251c-60 -59 -142 -89 -247 -89c-69 0 -129 13 -179 40c-51 27 -90 65 -116 116c-28 51 -41 112 -41 184s13 133 41 184
c26 51 65 89 116 116c50 27 110 40 179 40zM365 495c-34 0 -59 -13 -75 -39c-15 -27 -23 -69 -23 -126s8 -99 23 -126c16 -26 41 -39 75 -39s59 13 74 39c15 27 23 69 23 126s-8 99 -23 126c-15 26 -40 39 -74 39z" />
    <glyph glyph-name="uni1ED8" unicode="&#x1ed8;" horiz-adv-x="729" 
d="M365 670c105 0 187 -30 247 -89c58 -59 88 -143 88 -251s-30 -192 -88 -251c-60 -59 -142 -89 -247 -89c-69 0 -129 13 -179 40c-51 27 -90 65 -116 116c-28 51 -41 112 -41 184s13 133 41 184c26 51 65 89 116 116c50 27 110 40 179 40zM365 495c-34 0 -59 -13 -75 -39
c-15 -27 -23 -69 -23 -126s8 -99 23 -126c16 -26 41 -39 75 -39s59 13 74 39c15 27 23 69 23 126s-8 99 -23 126c-15 26 -40 39 -74 39zM365 -226c-75 0 -112 31 -112 94s37 94 112 94c77 0 115 -31 115 -94s-38 -94 -115 -94zM568 709h-148l-55 82l-55 -82h-148l94 167h218
z" />
    <glyph glyph-name="uni1ED2" unicode="&#x1ed2;" horiz-adv-x="729" 
d="M642 952l52 -150h-147l-82 150h177zM557 707h-141l-51 64l-51 -64h-141l96 160h192zM365 670c105 0 187 -30 247 -89c58 -59 88 -143 88 -251s-30 -192 -88 -251c-60 -59 -142 -89 -247 -89c-69 0 -129 13 -179 40c-51 27 -90 65 -116 116c-28 51 -41 112 -41 184
s13 133 41 184c26 51 65 89 116 116c50 27 110 40 179 40zM365 495c-34 0 -59 -13 -75 -39c-15 -27 -23 -69 -23 -126s8 -99 23 -126c16 -26 41 -39 75 -39s59 13 74 39c15 27 23 69 23 126s-8 99 -23 126c-15 26 -40 39 -74 39z" />
    <glyph glyph-name="uni1ED4" unicode="&#x1ed4;" horiz-adv-x="729" 
d="M552 788l-43 62c19 7 33 15 40 23s11 16 11 23c0 9 -2 16 -8 21c-4 5 -12 8 -22 8c-9 0 -16 -2 -22 -7c-4 -5 -9 -11 -12 -19l-98 42c7 31 24 54 50 71s58 25 95 25c23 0 45 -4 65 -12c22 -8 39 -20 52 -37s20 -38 20 -64c0 -29 -7 -52 -22 -70c-14 -19 -31 -33 -51 -44
c-20 -10 -38 -17 -55 -22zM557 707h-141l-51 64l-51 -64h-141l96 160h192zM365 670c105 0 187 -30 247 -89c58 -59 88 -143 88 -251s-30 -192 -88 -251c-60 -59 -142 -89 -247 -89c-69 0 -129 13 -179 40c-51 27 -90 65 -116 116c-28 51 -41 112 -41 184s13 133 41 184
c26 51 65 89 116 116c50 27 110 40 179 40zM365 495c-34 0 -59 -13 -75 -39c-15 -27 -23 -69 -23 -126s8 -99 23 -126c16 -26 41 -39 75 -39s59 13 74 39c15 27 23 69 23 126s-8 99 -23 126c-15 26 -40 39 -74 39z" />
    <glyph glyph-name="uni1ED6" unicode="&#x1ed6;" horiz-adv-x="729" 
d="M555 1047c-1 -54 -14 -94 -37 -119c-24 -26 -51 -39 -81 -39c-23 0 -41 4 -56 11s-27 15 -38 22c-11 8 -21 12 -32 12c-16 0 -25 -14 -28 -43h-106c1 54 14 94 39 119c25 26 54 39 89 39c22 0 39 -4 53 -11c12 -8 24 -16 33 -23s20 -11 31 -11c15 0 24 14 27 43h106z
M557 707h-141l-51 64l-51 -64h-141l96 160h192zM365 670c105 0 187 -30 247 -89c58 -59 88 -143 88 -251s-30 -192 -88 -251c-60 -59 -142 -89 -247 -89c-69 0 -129 13 -179 40c-51 27 -90 65 -116 116c-28 51 -41 112 -41 184s13 133 41 184c26 51 65 89 116 116
c50 27 110 40 179 40zM365 495c-34 0 -59 -13 -75 -39c-15 -27 -23 -69 -23 -126s8 -99 23 -126c16 -26 41 -39 75 -39s59 13 74 39c15 27 23 69 23 126s-8 99 -23 126c-15 26 -40 39 -74 39z" />
    <glyph glyph-name="uni020C" unicode="&#x20c;" horiz-adv-x="729" 
d="M365 670c105 0 187 -30 247 -89c58 -59 88 -143 88 -251s-30 -192 -88 -251c-60 -59 -142 -89 -247 -89c-69 0 -129 13 -179 40c-51 27 -90 65 -116 116c-28 51 -41 112 -41 184s13 133 41 184c26 51 65 89 116 116c50 27 110 40 179 40zM365 495c-34 0 -59 -13 -75 -39
c-15 -27 -23 -69 -23 -126s8 -99 23 -126c16 -26 41 -39 75 -39s59 13 74 39c15 27 23 69 23 126s-8 99 -23 126c-15 26 -40 39 -74 39zM270 876l58 -167h-163l-91 167h196zM525 876l58 -167h-163l-91 167h196z" />
    <glyph glyph-name="Odieresis" unicode="&#xd6;" horiz-adv-x="729" 
d="M365 670c105 0 187 -30 247 -89c58 -59 88 -143 88 -251s-30 -192 -88 -251c-60 -59 -142 -89 -247 -89c-69 0 -129 13 -179 40c-51 27 -90 65 -116 116c-28 51 -41 112 -41 184s13 133 41 184c26 51 65 89 116 116c50 27 110 40 179 40zM365 495c-34 0 -59 -13 -75 -39
c-15 -27 -23 -69 -23 -126s8 -99 23 -126c16 -26 41 -39 75 -39s59 13 74 39c15 27 23 69 23 126s-8 99 -23 126c-15 26 -40 39 -74 39zM245 880c33 0 59 -8 77 -24c19 -15 28 -38 28 -67s-9 -51 -28 -67c-18 -16 -44 -24 -77 -24s-58 8 -75 24c-18 16 -27 38 -27 67
s9 52 27 67c17 16 42 24 75 24zM482 880c33 0 59 -8 78 -24c18 -15 27 -38 27 -67s-9 -51 -27 -67c-19 -16 -45 -24 -78 -24s-58 8 -76 24c-17 16 -26 38 -26 67s9 52 26 67c18 16 43 24 76 24z" />
    <glyph glyph-name="uni022A" unicode="&#x22a;" horiz-adv-x="729" 
d="M365 670c105 0 187 -30 247 -89c58 -59 88 -143 88 -251s-30 -192 -88 -251c-60 -59 -142 -89 -247 -89c-69 0 -129 13 -179 40c-51 27 -90 65 -116 116c-28 51 -41 112 -41 184s13 133 41 184c26 51 65 89 116 116c50 27 110 40 179 40zM365 495c-34 0 -59 -13 -75 -39
c-15 -27 -23 -69 -23 -126s8 -99 23 -126c16 -26 41 -39 75 -39s59 13 74 39c15 27 23 69 23 126s-8 99 -23 126c-15 26 -40 39 -74 39zM245 880c33 0 59 -8 77 -24c19 -15 28 -38 28 -67s-9 -51 -28 -67c-18 -16 -44 -24 -77 -24s-58 8 -75 24c-18 16 -27 38 -27 67
s9 52 27 67c17 16 42 24 75 24zM482 880c33 0 59 -8 78 -24c18 -15 27 -38 27 -67s-9 -51 -27 -67c-19 -16 -45 -24 -78 -24s-58 8 -76 24c-17 16 -26 38 -26 67s9 52 26 67c18 16 43 24 76 24zM559 1045v-130h-388v130h388z" />
    <glyph glyph-name="uni0230" unicode="&#x230;" horiz-adv-x="729" 
d="M365 670c105 0 187 -30 247 -89c58 -59 88 -143 88 -251s-30 -192 -88 -251c-60 -59 -142 -89 -247 -89c-69 0 -129 13 -179 40c-51 27 -90 65 -116 116c-28 51 -41 112 -41 184s13 133 41 184c26 51 65 89 116 116c50 27 110 40 179 40zM365 495c-34 0 -59 -13 -75 -39
c-15 -27 -23 -69 -23 -126s8 -99 23 -126c16 -26 41 -39 75 -39s59 13 74 39c15 27 23 69 23 126s-8 99 -23 126c-15 26 -40 39 -74 39zM365 886c77 0 115 -31 115 -94s-38 -94 -115 -94c-75 0 -112 31 -112 94s37 94 112 94zM561 1045v-130h-388v130h388z" />
    <glyph glyph-name="uni1ECC" unicode="&#x1ecc;" horiz-adv-x="729" 
d="M365 670c105 0 187 -30 247 -89c58 -59 88 -143 88 -251s-30 -192 -88 -251c-60 -59 -142 -89 -247 -89c-69 0 -129 13 -179 40c-51 27 -90 65 -116 116c-28 51 -41 112 -41 184s13 133 41 184c26 51 65 89 116 116c50 27 110 40 179 40zM365 495c-34 0 -59 -13 -75 -39
c-15 -27 -23 -69 -23 -126s8 -99 23 -126c16 -26 41 -39 75 -39s59 13 74 39c15 27 23 69 23 126s-8 99 -23 126c-15 26 -40 39 -74 39zM365 -226c-75 0 -112 31 -112 94s37 94 112 94c77 0 115 -31 115 -94s-38 -94 -115 -94z" />
    <glyph glyph-name="Ograve" unicode="&#xd2;" horiz-adv-x="729" 
d="M365 670c105 0 187 -30 247 -89c58 -59 88 -143 88 -251s-30 -192 -88 -251c-60 -59 -142 -89 -247 -89c-69 0 -129 13 -179 40c-51 27 -90 65 -116 116c-28 51 -41 112 -41 184s13 133 41 184c26 51 65 89 116 116c50 27 110 40 179 40zM365 495c-34 0 -59 -13 -75 -39
c-15 -27 -23 -69 -23 -126s8 -99 23 -126c16 -26 41 -39 75 -39s59 13 74 39c15 27 23 69 23 126s-8 99 -23 126c-15 26 -40 39 -74 39zM398 876l58 -167h-163l-91 167h196z" />
    <glyph glyph-name="uni1ECE" unicode="&#x1ece;" horiz-adv-x="729" 
d="M365 670c105 0 187 -30 247 -89c58 -59 88 -143 88 -251s-30 -192 -88 -251c-60 -59 -142 -89 -247 -89c-69 0 -129 13 -179 40c-51 27 -90 65 -116 116c-28 51 -41 112 -41 184s13 133 41 184c26 51 65 89 116 116c50 27 110 40 179 40zM365 495c-34 0 -59 -13 -75 -39
c-15 -27 -23 -69 -23 -126s8 -99 23 -126c16 -26 41 -39 75 -39s59 13 74 39c15 27 23 69 23 126s-8 99 -23 126c-15 26 -40 39 -74 39zM366 690l-43 62c19 7 33 15 40 23s11 16 11 23c0 9 -2 16 -8 21c-4 5 -12 8 -22 8c-9 0 -16 -2 -22 -7c-4 -5 -9 -11 -12 -19l-98 42
c7 31 24 54 50 71s58 25 95 25c23 0 45 -4 65 -12c22 -8 39 -20 52 -37s20 -38 20 -64c0 -29 -7 -52 -22 -70c-14 -19 -31 -33 -51 -44c-20 -10 -38 -17 -55 -22z" />
    <glyph glyph-name="Ohorn" unicode="&#x1a0;" horiz-adv-x="729" 
d="M365 670c35 0 67 -3 97 -10c28 1 49 9 62 25c14 16 21 42 21 79h147c0 -85 -27 -146 -81 -183c29 -29 51 -64 66 -107c15 -42 23 -90 23 -144c0 -108 -30 -192 -88 -251c-60 -59 -142 -89 -247 -89c-69 0 -129 13 -179 40c-51 27 -90 65 -116 116c-28 51 -41 112 -41 184
s13 133 41 184c26 51 65 89 116 116c50 27 110 40 179 40zM365 495c-34 0 -59 -13 -75 -39c-15 -27 -23 -69 -23 -126s8 -99 23 -126c16 -26 41 -39 75 -39s59 13 74 39c15 27 23 69 23 126s-8 99 -23 126c-15 26 -40 39 -74 39z" />
    <glyph glyph-name="uni1EDA" unicode="&#x1eda;" horiz-adv-x="729" 
d="M365 670c35 0 67 -3 97 -10c28 1 49 9 62 25c14 16 21 42 21 79h147c0 -85 -27 -146 -81 -183c29 -29 51 -64 66 -107c15 -42 23 -90 23 -144c0 -108 -30 -192 -88 -251c-60 -59 -142 -89 -247 -89c-69 0 -129 13 -179 40c-51 27 -90 65 -116 116c-28 51 -41 112 -41 184
s13 133 41 184c26 51 65 89 116 116c50 27 110 40 179 40zM365 495c-34 0 -59 -13 -75 -39c-15 -27 -23 -69 -23 -126s8 -99 23 -126c16 -26 41 -39 75 -39s59 13 74 39c15 27 23 69 23 126s-8 99 -23 126c-15 26 -40 39 -74 39zM332 876h196l-91 -167h-163z" />
    <glyph glyph-name="uni1EE2" unicode="&#x1ee2;" horiz-adv-x="729" 
d="M365 670c35 0 67 -3 97 -10c28 1 49 9 62 25c14 16 21 42 21 79h147c0 -85 -27 -146 -81 -183c29 -29 51 -64 66 -107c15 -42 23 -90 23 -144c0 -108 -30 -192 -88 -251c-60 -59 -142 -89 -247 -89c-69 0 -129 13 -179 40c-51 27 -90 65 -116 116c-28 51 -41 112 -41 184
s13 133 41 184c26 51 65 89 116 116c50 27 110 40 179 40zM365 495c-34 0 -59 -13 -75 -39c-15 -27 -23 -69 -23 -126s8 -99 23 -126c16 -26 41 -39 75 -39s59 13 74 39c15 27 23 69 23 126s-8 99 -23 126c-15 26 -40 39 -74 39zM365 -226c-75 0 -112 31 -112 94
s37 94 112 94c77 0 115 -31 115 -94s-38 -94 -115 -94z" />
    <glyph glyph-name="uni1EDC" unicode="&#x1edc;" horiz-adv-x="729" 
d="M365 670c35 0 67 -3 97 -10c28 1 49 9 62 25c14 16 21 42 21 79h147c0 -85 -27 -146 -81 -183c29 -29 51 -64 66 -107c15 -42 23 -90 23 -144c0 -108 -30 -192 -88 -251c-60 -59 -142 -89 -247 -89c-69 0 -129 13 -179 40c-51 27 -90 65 -116 116c-28 51 -41 112 -41 184
s13 133 41 184c26 51 65 89 116 116c50 27 110 40 179 40zM365 495c-34 0 -59 -13 -75 -39c-15 -27 -23 -69 -23 -126s8 -99 23 -126c16 -26 41 -39 75 -39s59 13 74 39c15 27 23 69 23 126s-8 99 -23 126c-15 26 -40 39 -74 39zM398 876l58 -167h-163l-91 167h196z" />
    <glyph glyph-name="uni1EDE" unicode="&#x1ede;" horiz-adv-x="729" 
d="M365 670c35 0 67 -3 97 -10c28 1 49 9 62 25c14 16 21 42 21 79h147c0 -85 -27 -146 -81 -183c29 -29 51 -64 66 -107c15 -42 23 -90 23 -144c0 -108 -30 -192 -88 -251c-60 -59 -142 -89 -247 -89c-69 0 -129 13 -179 40c-51 27 -90 65 -116 116c-28 51 -41 112 -41 184
s13 133 41 184c26 51 65 89 116 116c50 27 110 40 179 40zM365 495c-34 0 -59 -13 -75 -39c-15 -27 -23 -69 -23 -126s8 -99 23 -126c16 -26 41 -39 75 -39s59 13 74 39c15 27 23 69 23 126s-8 99 -23 126c-15 26 -40 39 -74 39zM366 690l-43 62c19 7 33 15 40 23
s11 16 11 23c0 9 -2 16 -8 21c-4 5 -12 8 -22 8c-9 0 -16 -2 -22 -7c-4 -5 -9 -11 -12 -19l-98 42c7 31 24 54 50 71s58 25 95 25c23 0 45 -4 65 -12c22 -8 39 -20 52 -37s20 -38 20 -64c0 -29 -7 -52 -22 -70c-14 -19 -31 -33 -51 -44c-20 -10 -38 -17 -55 -22z" />
    <glyph glyph-name="uni1EE0" unicode="&#x1ee0;" horiz-adv-x="729" 
d="M365 670c35 0 67 -3 97 -10c28 1 49 9 62 25c14 16 21 42 21 79h147c0 -85 -27 -146 -81 -183c29 -29 51 -64 66 -107c15 -42 23 -90 23 -144c0 -108 -30 -192 -88 -251c-60 -59 -142 -89 -247 -89c-69 0 -129 13 -179 40c-51 27 -90 65 -116 116c-28 51 -41 112 -41 184
s13 133 41 184c26 51 65 89 116 116c50 27 110 40 179 40zM365 495c-34 0 -59 -13 -75 -39c-15 -27 -23 -69 -23 -126s8 -99 23 -126c16 -26 41 -39 75 -39s59 13 74 39c15 27 23 69 23 126s-8 99 -23 126c-15 26 -40 39 -74 39zM533 879c-1 -40 -7 -73 -20 -99
s-29 -45 -49 -58c-19 -13 -40 -19 -62 -19c-25 0 -45 4 -62 13c-17 8 -31 16 -42 24c-12 9 -24 13 -36 13c-18 0 -28 -16 -31 -48h-118c1 60 16 104 43 133s60 43 99 43c25 0 44 -4 59 -13c14 -8 26 -16 37 -24c11 -9 22 -13 34 -13c17 0 27 16 30 48h118z" />
    <glyph glyph-name="Ohungarumlaut" unicode="&#x150;" horiz-adv-x="729" 
d="M365 670c105 0 187 -30 247 -89c58 -59 88 -143 88 -251s-30 -192 -88 -251c-60 -59 -142 -89 -247 -89c-69 0 -129 13 -179 40c-51 27 -90 65 -116 116c-28 51 -41 112 -41 184s13 133 41 184c26 51 65 89 116 116c50 27 110 40 179 40zM365 495c-34 0 -59 -13 -75 -39
c-15 -27 -23 -69 -23 -126s8 -99 23 -126c16 -26 41 -39 75 -39s59 13 74 39c15 27 23 69 23 126s-8 99 -23 126c-15 26 -40 39 -74 39zM460 876h196l-91 -167h-163zM205 876h196l-91 -167h-163z" />
    <glyph glyph-name="uni020E" unicode="&#x20e;" horiz-adv-x="729" 
d="M365 670c105 0 187 -30 247 -89c58 -59 88 -143 88 -251s-30 -192 -88 -251c-60 -59 -142 -89 -247 -89c-69 0 -129 13 -179 40c-51 27 -90 65 -116 116c-28 51 -41 112 -41 184s13 133 41 184c26 51 65 89 116 116c50 27 110 40 179 40zM365 495c-34 0 -59 -13 -75 -39
c-15 -27 -23 -69 -23 -126s8 -99 23 -126c16 -26 41 -39 75 -39s59 13 74 39c15 27 23 69 23 126s-8 99 -23 126c-15 26 -40 39 -74 39zM548 700h-139c0 37 -15 55 -44 55s-44 -18 -44 -55h-139c0 55 16 98 49 128s77 45 134 45s102 -15 135 -45c32 -30 48 -73 48 -128z" />
    <glyph glyph-name="Omacron" unicode="&#x14c;" horiz-adv-x="729" 
d="M365 670c105 0 187 -30 247 -89c58 -59 88 -143 88 -251s-30 -192 -88 -251c-60 -59 -142 -89 -247 -89c-69 0 -129 13 -179 40c-51 27 -90 65 -116 116c-28 51 -41 112 -41 184s13 133 41 184c26 51 65 89 116 116c50 27 110 40 179 40zM365 495c-34 0 -59 -13 -75 -39
c-15 -27 -23 -69 -23 -126s8 -99 23 -126c16 -26 41 -39 75 -39s59 13 74 39c15 27 23 69 23 126s-8 99 -23 126c-15 26 -40 39 -74 39zM559 841v-130h-388v130h388z" />
    <glyph glyph-name="uni1E52" unicode="&#x1e52;" horiz-adv-x="729" 
d="M365 670c105 0 187 -30 247 -89c58 -59 88 -143 88 -251s-30 -192 -88 -251c-60 -59 -142 -89 -247 -89c-69 0 -129 13 -179 40c-51 27 -90 65 -116 116c-28 51 -41 112 -41 184s13 133 41 184c26 51 65 89 116 116c50 27 110 40 179 40zM365 495c-34 0 -59 -13 -75 -39
c-15 -27 -23 -69 -23 -126s8 -99 23 -126c16 -26 41 -39 75 -39s59 13 74 39c15 27 23 69 23 126s-8 99 -23 126c-15 26 -40 39 -74 39zM559 841v-130h-388v130h388zM332 1055h196l-91 -167h-163z" />
    <glyph glyph-name="uni1E50" unicode="&#x1e50;" horiz-adv-x="729" 
d="M365 670c105 0 187 -30 247 -89c58 -59 88 -143 88 -251s-30 -192 -88 -251c-60 -59 -142 -89 -247 -89c-69 0 -129 13 -179 40c-51 27 -90 65 -116 116c-28 51 -41 112 -41 184s13 133 41 184c26 51 65 89 116 116c50 27 110 40 179 40zM365 495c-34 0 -59 -13 -75 -39
c-15 -27 -23 -69 -23 -126s8 -99 23 -126c16 -26 41 -39 75 -39s59 13 74 39c15 27 23 69 23 126s-8 99 -23 126c-15 26 -40 39 -74 39zM559 841v-130h-388v130h388zM398 1055l58 -167h-163l-91 167h196z" />
    <glyph glyph-name="uni01EA" unicode="&#x1ea;" horiz-adv-x="729" 
d="M365 670c105 0 187 -30 247 -89c58 -59 88 -143 88 -251s-30 -192 -88 -251c-60 -59 -142 -89 -247 -89c-69 0 -129 13 -179 40c-51 27 -90 65 -116 116c-28 51 -41 112 -41 184s13 133 41 184c26 51 65 89 116 116c50 27 110 40 179 40zM365 495c-34 0 -59 -13 -75 -39
c-15 -27 -23 -69 -23 -126s8 -99 23 -126c16 -26 41 -39 75 -39s59 13 74 39c15 27 23 69 23 126s-8 99 -23 126c-15 26 -40 39 -74 39zM393 -216c-45 0 -80 10 -106 31s-39 49 -39 86c0 40 15 71 46 93s70 34 118 37l82 -22c-32 -9 -57 -17 -76 -27c-18 -8 -27 -22 -27 -39
c0 -25 16 -38 49 -38c7 0 15 1 22 2s13 3 18 6l21 -107c-15 -9 -31 -14 -47 -18c-17 -2 -37 -4 -61 -4z" />
    <glyph glyph-name="Oslash" unicode="&#xd8;" horiz-adv-x="729" 
d="M45 -21l77 97c-30 29 -53 64 -69 107s-24 92 -24 147c0 72 13 133 41 184c26 51 65 89 116 116c50 27 110 40 179 40c73 0 136 -15 188 -45l46 55h85l-76 -96c30 -29 53 -64 68 -107c16 -43 24 -92 24 -147c0 -108 -30 -192 -88 -251c-60 -59 -142 -89 -247 -89
c-73 0 -136 15 -188 45l-47 -56h-85zM365 495c-34 0 -59 -13 -75 -39c-15 -27 -23 -69 -23 -126c0 -26 2 -49 5 -68l157 208c-15 17 -37 25 -64 25zM462 330c0 26 -1 48 -4 67l-157 -207c15 -17 37 -25 64 -25c34 0 59 13 74 39c15 27 23 69 23 126z" />
    <glyph glyph-name="Oslashacute" unicode="&#x1fe;" horiz-adv-x="729" 
d="M45 -21l77 97c-30 29 -53 64 -69 107s-24 92 -24 147c0 72 13 133 41 184c26 51 65 89 116 116c50 27 110 40 179 40c73 0 136 -15 188 -45l46 55h85l-76 -96c30 -29 53 -64 68 -107c16 -43 24 -92 24 -147c0 -108 -30 -192 -88 -251c-60 -59 -142 -89 -247 -89
c-73 0 -136 15 -188 45l-47 -56h-85zM365 495c-34 0 -59 -13 -75 -39c-15 -27 -23 -69 -23 -126c0 -26 2 -49 5 -68l157 208c-15 17 -37 25 -64 25zM462 330c0 26 -1 48 -4 67l-157 -207c15 -17 37 -25 64 -25c34 0 59 13 74 39c15 27 23 69 23 126zM332 876h196l-91 -167
h-163z" />
    <glyph glyph-name="Otilde" unicode="&#xd5;" horiz-adv-x="729" 
d="M365 670c105 0 187 -30 247 -89c58 -59 88 -143 88 -251s-30 -192 -88 -251c-60 -59 -142 -89 -247 -89c-69 0 -129 13 -179 40c-51 27 -90 65 -116 116c-28 51 -41 112 -41 184s13 133 41 184c26 51 65 89 116 116c50 27 110 40 179 40zM365 495c-34 0 -59 -13 -75 -39
c-15 -27 -23 -69 -23 -126s8 -99 23 -126c16 -26 41 -39 75 -39s59 13 74 39c15 27 23 69 23 126s-8 99 -23 126c-15 26 -40 39 -74 39zM575 879c-1 -40 -7 -73 -20 -99s-29 -45 -49 -58c-19 -13 -40 -19 -62 -19c-25 0 -45 4 -62 13c-17 8 -31 16 -42 24
c-12 9 -24 13 -36 13c-18 0 -28 -16 -31 -48h-118c1 60 16 104 43 133s60 43 99 43c25 0 44 -4 59 -13c14 -8 26 -16 37 -24c11 -9 22 -13 34 -13c17 0 27 16 30 48h118z" />
    <glyph glyph-name="uni1E4C" unicode="&#x1e4c;" horiz-adv-x="729" 
d="M365 670c105 0 187 -30 247 -89c58 -59 88 -143 88 -251s-30 -192 -88 -251c-60 -59 -142 -89 -247 -89c-69 0 -129 13 -179 40c-51 27 -90 65 -116 116c-28 51 -41 112 -41 184s13 133 41 184c26 51 65 89 116 116c50 27 110 40 179 40zM365 495c-34 0 -59 -13 -75 -39
c-15 -27 -23 -69 -23 -126s8 -99 23 -126c16 -26 41 -39 75 -39s59 13 74 39c15 27 23 69 23 126s-8 99 -23 126c-15 26 -40 39 -74 39zM575 879c-1 -40 -7 -73 -20 -99s-29 -45 -49 -58c-19 -13 -40 -19 -62 -19c-25 0 -45 4 -62 13c-17 8 -31 16 -42 24
c-12 9 -24 13 -36 13c-18 0 -28 -16 -31 -48h-118c1 60 16 104 43 133s60 43 99 43c25 0 44 -4 59 -13c14 -8 26 -16 37 -24c11 -9 22 -13 34 -13c17 0 27 16 30 48h118zM332 1087h196l-91 -167h-163z" />
    <glyph glyph-name="uni1E4E" unicode="&#x1e4e;" horiz-adv-x="729" 
d="M365 670c105 0 187 -30 247 -89c58 -59 88 -143 88 -251s-30 -192 -88 -251c-60 -59 -142 -89 -247 -89c-69 0 -129 13 -179 40c-51 27 -90 65 -116 116c-28 51 -41 112 -41 184s13 133 41 184c26 51 65 89 116 116c50 27 110 40 179 40zM365 495c-34 0 -59 -13 -75 -39
c-15 -27 -23 -69 -23 -126s8 -99 23 -126c16 -26 41 -39 75 -39s59 13 74 39c15 27 23 69 23 126s-8 99 -23 126c-15 26 -40 39 -74 39zM575 879c-1 -40 -7 -73 -20 -99s-29 -45 -49 -58c-19 -13 -40 -19 -62 -19c-25 0 -45 4 -62 13c-17 8 -31 16 -42 24
c-12 9 -24 13 -36 13c-18 0 -28 -16 -31 -48h-118c1 60 16 104 43 133s60 43 99 43c25 0 44 -4 59 -13c14 -8 26 -16 37 -24c11 -9 22 -13 34 -13c17 0 27 16 30 48h118zM245 1091c33 0 59 -8 77 -23c19 -16 28 -39 28 -68s-9 -51 -28 -67c-18 -16 -44 -24 -77 -24
s-58 8 -75 24c-18 16 -27 38 -27 67s9 52 27 68c17 15 42 23 75 23zM482 1091c33 0 59 -8 78 -23c18 -16 27 -39 27 -68s-9 -51 -27 -67c-19 -16 -45 -24 -78 -24s-58 8 -76 24c-17 16 -26 38 -26 67s9 52 26 68c18 15 43 23 76 23z" />
    <glyph glyph-name="uni022C" unicode="&#x22c;" horiz-adv-x="729" 
d="M365 670c105 0 187 -30 247 -89c58 -59 88 -143 88 -251s-30 -192 -88 -251c-60 -59 -142 -89 -247 -89c-69 0 -129 13 -179 40c-51 27 -90 65 -116 116c-28 51 -41 112 -41 184s13 133 41 184c26 51 65 89 116 116c50 27 110 40 179 40zM365 495c-34 0 -59 -13 -75 -39
c-15 -27 -23 -69 -23 -126s8 -99 23 -126c16 -26 41 -39 75 -39s59 13 74 39c15 27 23 69 23 126s-8 99 -23 126c-15 26 -40 39 -74 39zM575 879c-1 -40 -7 -73 -20 -99s-29 -45 -49 -58c-19 -13 -40 -19 -62 -19c-25 0 -45 4 -62 13c-17 8 -31 16 -42 24
c-12 9 -24 13 -36 13c-18 0 -28 -16 -31 -48h-118c1 60 16 104 43 133s60 43 99 43c25 0 44 -4 59 -13c14 -8 26 -16 37 -24c11 -9 22 -13 34 -13c17 0 27 16 30 48h118zM559 1052v-130h-388v130h388z" />
    <glyph glyph-name="OE" unicode="&#x152;" horiz-adv-x="1027" 
d="M685 171h326v-171h-469v66c-24 -23 -52 -42 -86 -56c-32 -13 -71 -20 -114 -20c-63 0 -118 13 -166 40c-46 27 -83 65 -108 116c-26 51 -39 112 -39 184s13 133 39 184c25 51 62 89 108 116c48 27 103 40 166 40c43 0 82 -7 114 -20c34 -14 62 -33 86 -56v66h457v-171
h-314v-82h253v-158h-253v-78zM355 165c34 0 59 13 74 39c15 27 23 69 23 126s-8 99 -23 126c-15 26 -40 39 -74 39c-32 0 -55 -13 -71 -39c-14 -27 -22 -69 -22 -126s8 -99 22 -126c16 -26 39 -39 71 -39z" />
    <glyph glyph-name="P" unicode="P" horiz-adv-x="706" 
d="M400 660c89 0 158 -20 206 -60c47 -40 71 -98 71 -173s-24 -132 -71 -173c-48 -40 -117 -60 -206 -60h-117v-194h-233v660h350zM362 359c25 0 45 5 60 17c15 10 22 28 22 51s-7 41 -22 51c-15 12 -35 17 -60 17h-79v-136h79z" />
    <glyph glyph-name="Thorn" unicode="&#xde;" horiz-adv-x="706" 
d="M406 571c85 0 152 -20 200 -59c47 -39 71 -98 71 -175s-24 -136 -71 -175c-48 -39 -115 -59 -200 -59h-123v-103h-233v660h233v-89h123zM368 406h-85v-139h85c51 0 76 24 76 72c0 23 -7 40 -20 51c-14 11 -33 16 -56 16z" />
    <glyph glyph-name="Q" unicode="Q" horiz-adv-x="729" 
d="M537 -209c-51 0 -94 8 -129 24c-36 16 -63 37 -82 64c-18 27 -27 56 -27 89c0 9 1 17 2 26c-85 12 -152 47 -200 104c-48 58 -72 135 -72 232c0 72 13 133 41 184c26 51 65 89 116 116c50 27 110 40 179 40c105 0 187 -30 247 -89c58 -59 88 -143 88 -251
c0 -97 -24 -174 -72 -232c-47 -57 -114 -92 -199 -104c7 -17 21 -29 40 -36s42 -11 69 -11c31 0 56 3 75 9s35 14 48 24l25 -149c-18 -13 -40 -23 -67 -29c-27 -8 -54 -11 -82 -11zM365 495c-34 0 -59 -13 -75 -39c-15 -27 -23 -69 -23 -126s8 -99 23 -126
c16 -26 41 -39 75 -39s59 13 74 39c15 27 23 69 23 126s-8 99 -23 126c-15 26 -40 39 -74 39z" />
    <glyph glyph-name="R" unicode="R" horiz-adv-x="705" 
d="M408 660c86 0 152 -19 198 -58c46 -38 69 -89 69 -152c0 -99 -41 -165 -124 -197l161 -253h-253l-117 219h-64v-219h-228v660h358zM368 372c25 0 43 4 56 14c12 8 18 24 18 47c0 22 -6 38 -18 47c-13 9 -31 14 -56 14h-90v-122h90z" />
    <glyph glyph-name="Racute" unicode="&#x154;" horiz-adv-x="705" 
d="M408 660c86 0 152 -19 198 -58c46 -38 69 -89 69 -152c0 -99 -41 -165 -124 -197l161 -253h-253l-117 219h-64v-219h-228v660h358zM368 372c25 0 43 4 56 14c12 8 18 24 18 47c0 22 -6 38 -18 47c-13 9 -31 14 -56 14h-90v-122h90zM301 876h196l-91 -167h-163z" />
    <glyph glyph-name="Rcaron" unicode="&#x158;" horiz-adv-x="705" 
d="M408 660c86 0 152 -19 198 -58c46 -38 69 -89 69 -152c0 -99 -41 -165 -124 -197l161 -253h-253l-117 219h-64v-219h-228v660h358zM368 372c25 0 43 4 56 14c12 8 18 24 18 47c0 22 -6 38 -18 47c-13 9 -31 14 -56 14h-90v-122h90zM537 876l-94 -167h-218l-94 167h148
l55 -82l55 82h148z" />
    <glyph glyph-name="uni0156" unicode="&#x156;" horiz-adv-x="705" 
d="M408 660c86 0 152 -19 198 -58c46 -38 69 -89 69 -152c0 -99 -41 -165 -124 -197l161 -253h-253l-117 219h-64v-219h-228v660h358zM368 372c25 0 43 4 56 14c12 8 18 24 18 47c0 22 -6 38 -18 47c-13 9 -31 14 -56 14h-90v-122h90zM481 -50l-75 -193h-142l24 193h193z
" />
    <glyph glyph-name="uni0210" unicode="&#x210;" horiz-adv-x="705" 
d="M408 660c86 0 152 -19 198 -58c46 -38 69 -89 69 -152c0 -99 -41 -165 -124 -197l161 -253h-253l-117 219h-64v-219h-228v660h358zM368 372c25 0 43 4 56 14c12 8 18 24 18 47c0 22 -6 38 -18 47c-13 9 -31 14 -56 14h-90v-122h90zM239 876l58 -167h-163l-91 167h196z
M494 876l58 -167h-163l-91 167h196z" />
    <glyph glyph-name="uni1E5A" unicode="&#x1e5a;" horiz-adv-x="705" 
d="M408 660c86 0 152 -19 198 -58c46 -38 69 -89 69 -152c0 -99 -41 -165 -124 -197l161 -253h-253l-117 219h-64v-219h-228v660h358zM368 372c25 0 43 4 56 14c12 8 18 24 18 47c0 22 -6 38 -18 47c-13 9 -31 14 -56 14h-90v-122h90zM362 -226c-75 0 -112 31 -112 94
s37 94 112 94c77 0 115 -31 115 -94s-38 -94 -115 -94z" />
    <glyph glyph-name="uni0212" unicode="&#x212;" horiz-adv-x="705" 
d="M408 660c86 0 152 -19 198 -58c46 -38 69 -89 69 -152c0 -99 -41 -165 -124 -197l161 -253h-253l-117 219h-64v-219h-228v660h358zM368 372c25 0 43 4 56 14c12 8 18 24 18 47c0 22 -6 38 -18 47c-13 9 -31 14 -56 14h-90v-122h90zM517 700h-139c0 37 -15 55 -44 55
s-44 -18 -44 -55h-139c0 55 16 98 49 128s77 45 134 45s102 -15 134 -45c33 -30 49 -73 49 -128z" />
    <glyph glyph-name="uni1E5E" unicode="&#x1e5e;" horiz-adv-x="705" 
d="M408 660c86 0 152 -19 198 -58c46 -38 69 -89 69 -152c0 -99 -41 -165 -124 -197l161 -253h-253l-117 219h-64v-219h-228v660h358zM368 372c25 0 43 4 56 14c12 8 18 24 18 47c0 22 -6 38 -18 47c-13 9 -31 14 -56 14h-90v-122h90zM556 -51v-130h-388v130h388z" />
    <glyph glyph-name="S" unicode="S" horiz-adv-x="648" 
d="M339 670c125 0 226 -31 304 -94l-94 -150c-31 22 -64 40 -99 53c-34 13 -71 20 -111 20c-26 0 -44 -3 -55 -9c-10 -5 -15 -13 -15 -22c0 -8 6 -14 19 -18c12 -4 27 -8 46 -13l91 -21c67 -15 118 -38 153 -68c34 -30 51 -72 51 -125s-13 -97 -39 -131
c-26 -35 -61 -60 -106 -77c-44 -17 -94 -25 -150 -25c-42 0 -84 4 -126 12c-42 7 -81 18 -117 34c-36 14 -67 33 -93 54l92 153c19 -15 43 -29 70 -41c27 -13 56 -23 85 -30s57 -11 82 -11c24 0 41 3 49 9c10 5 14 12 14 21s-4 16 -12 21c-7 5 -21 9 -41 14l-100 22
c-35 8 -69 19 -101 32s-58 33 -78 58c-20 26 -30 61 -30 105c0 45 12 85 36 119c25 34 60 60 106 80c47 18 103 28 169 28z" />
    <glyph glyph-name="Sacute" unicode="&#x15a;" horiz-adv-x="648" 
d="M339 670c125 0 226 -31 304 -94l-94 -150c-31 22 -64 40 -99 53c-34 13 -71 20 -111 20c-26 0 -44 -3 -55 -9c-10 -5 -15 -13 -15 -22c0 -8 6 -14 19 -18c12 -4 27 -8 46 -13l91 -21c67 -15 118 -38 153 -68c34 -30 51 -72 51 -125s-13 -97 -39 -131
c-26 -35 -61 -60 -106 -77c-44 -17 -94 -25 -150 -25c-42 0 -84 4 -126 12c-42 7 -81 18 -117 34c-36 14 -67 33 -93 54l92 153c19 -15 43 -29 70 -41c27 -13 56 -23 85 -30s57 -11 82 -11c24 0 41 3 49 9c10 5 14 12 14 21s-4 16 -12 21c-7 5 -21 9 -41 14l-100 22
c-35 8 -69 19 -101 32s-58 33 -78 58c-20 26 -30 61 -30 105c0 45 12 85 36 119c25 34 60 60 106 80c47 18 103 28 169 28zM298 876h196l-91 -167h-163z" />
    <glyph glyph-name="uni1E64" unicode="&#x1e64;" horiz-adv-x="648" 
d="M339 670c125 0 226 -31 304 -94l-94 -150c-31 22 -64 40 -99 53c-34 13 -71 20 -111 20c-26 0 -44 -3 -55 -9c-10 -5 -15 -13 -15 -22c0 -8 6 -14 19 -18c12 -4 27 -8 46 -13l91 -21c67 -15 118 -38 153 -68c34 -30 51 -72 51 -125s-13 -97 -39 -131
c-26 -35 -61 -60 -106 -77c-44 -17 -94 -25 -150 -25c-42 0 -84 4 -126 12c-42 7 -81 18 -117 34c-36 14 -67 33 -93 54l92 153c19 -15 43 -29 70 -41c27 -13 56 -23 85 -30s57 -11 82 -11c24 0 41 3 49 9c10 5 14 12 14 21s-4 16 -12 21c-7 5 -21 9 -41 14l-100 22
c-35 8 -69 19 -101 32s-58 33 -78 58c-20 26 -30 61 -30 105c0 45 12 85 36 119c25 34 60 60 106 80c47 18 103 28 169 28zM298 876h196l-91 -167h-163zM331 1105c77 0 115 -31 115 -94s-38 -94 -115 -94c-75 0 -112 31 -112 94s37 94 112 94z" />
    <glyph glyph-name="Scaron" unicode="&#x160;" horiz-adv-x="648" 
d="M339 670c125 0 226 -31 304 -94l-94 -150c-31 22 -64 40 -99 53c-34 13 -71 20 -111 20c-26 0 -44 -3 -55 -9c-10 -5 -15 -13 -15 -22c0 -8 6 -14 19 -18c12 -4 27 -8 46 -13l91 -21c67 -15 118 -38 153 -68c34 -30 51 -72 51 -125s-13 -97 -39 -131
c-26 -35 -61 -60 -106 -77c-44 -17 -94 -25 -150 -25c-42 0 -84 4 -126 12c-42 7 -81 18 -117 34c-36 14 -67 33 -93 54l92 153c19 -15 43 -29 70 -41c27 -13 56 -23 85 -30s57 -11 82 -11c24 0 41 3 49 9c10 5 14 12 14 21s-4 16 -12 21c-7 5 -21 9 -41 14l-100 22
c-35 8 -69 19 -101 32s-58 33 -78 58c-20 26 -30 61 -30 105c0 45 12 85 36 119c25 34 60 60 106 80c47 18 103 28 169 28zM534 876l-94 -167h-218l-94 167h148l55 -82l55 82h148z" />
    <glyph glyph-name="uni1E66" unicode="&#x1e66;" horiz-adv-x="648" 
d="M339 670c125 0 226 -31 304 -94l-94 -150c-31 22 -64 40 -99 53c-34 13 -71 20 -111 20c-26 0 -44 -3 -55 -9c-10 -5 -15 -13 -15 -22c0 -8 6 -14 19 -18c12 -4 27 -8 46 -13l91 -21c67 -15 118 -38 153 -68c34 -30 51 -72 51 -125s-13 -97 -39 -131
c-26 -35 -61 -60 -106 -77c-44 -17 -94 -25 -150 -25c-42 0 -84 4 -126 12c-42 7 -81 18 -117 34c-36 14 -67 33 -93 54l92 153c19 -15 43 -29 70 -41c27 -13 56 -23 85 -30s57 -11 82 -11c24 0 41 3 49 9c10 5 14 12 14 21s-4 16 -12 21c-7 5 -21 9 -41 14l-100 22
c-35 8 -69 19 -101 32s-58 33 -78 58c-20 26 -30 61 -30 105c0 45 12 85 36 119c25 34 60 60 106 80c47 18 103 28 169 28zM534 876l-94 -167h-218l-94 167h148l55 -82l55 82h148zM331 1094c77 0 115 -31 115 -94s-38 -94 -115 -94c-75 0 -112 31 -112 94s37 94 112 94z" />
    <glyph glyph-name="Scedilla" unicode="&#x15e;" horiz-adv-x="648" 
d="M339 670c125 0 226 -31 304 -94l-94 -150c-31 22 -64 40 -99 53c-34 13 -71 20 -111 20c-26 0 -44 -3 -55 -9c-10 -5 -15 -13 -15 -22c0 -8 6 -14 19 -18c12 -4 27 -8 46 -13l91 -21c67 -15 118 -38 153 -68c34 -30 51 -72 51 -125s-13 -97 -39 -131
c-26 -35 -61 -60 -106 -77c-44 -17 -94 -25 -150 -25c-42 0 -84 4 -126 12c-42 7 -81 18 -117 34c-36 14 -67 33 -93 54l92 153c19 -15 43 -29 70 -41c27 -13 56 -23 85 -30s57 -11 82 -11c24 0 41 3 49 9c10 5 14 12 14 21s-4 16 -12 21c-7 5 -21 9 -41 14l-100 22
c-35 8 -69 19 -101 32s-58 33 -78 58c-20 26 -30 61 -30 105c0 45 12 85 36 119c25 34 60 60 106 80c47 18 103 28 169 28zM242 14l40 28c121 -8 182 -50 182 -126c0 -41 -13 -74 -40 -96c-27 -24 -65 -35 -114 -35c-29 0 -51 3 -66 9s-29 13 -41 20l33 97
c7 -5 15 -8 24 -11s19 -4 32 -4c16 0 29 4 38 13c10 9 15 20 15 35c0 14 -7 27 -22 38s-42 22 -81 32z" />
    <glyph glyph-name="Scircumflex" unicode="&#x15c;" horiz-adv-x="648" 
d="M339 670c125 0 226 -31 304 -94l-94 -150c-31 22 -64 40 -99 53c-34 13 -71 20 -111 20c-26 0 -44 -3 -55 -9c-10 -5 -15 -13 -15 -22c0 -8 6 -14 19 -18c12 -4 27 -8 46 -13l91 -21c67 -15 118 -38 153 -68c34 -30 51 -72 51 -125s-13 -97 -39 -131
c-26 -35 -61 -60 -106 -77c-44 -17 -94 -25 -150 -25c-42 0 -84 4 -126 12c-42 7 -81 18 -117 34c-36 14 -67 33 -93 54l92 153c19 -15 43 -29 70 -41c27 -13 56 -23 85 -30s57 -11 82 -11c24 0 41 3 49 9c10 5 14 12 14 21s-4 16 -12 21c-7 5 -21 9 -41 14l-100 22
c-35 8 -69 19 -101 32s-58 33 -78 58c-20 26 -30 61 -30 105c0 45 12 85 36 119c25 34 60 60 106 80c47 18 103 28 169 28zM534 709h-148l-55 82l-55 -82h-148l94 167h218z" />
    <glyph glyph-name="uni0218" unicode="&#x218;" horiz-adv-x="648" 
d="M339 670c125 0 226 -31 304 -94l-94 -150c-31 22 -64 40 -99 53c-34 13 -71 20 -111 20c-26 0 -44 -3 -55 -9c-10 -5 -15 -13 -15 -22c0 -8 6 -14 19 -18c12 -4 27 -8 46 -13l91 -21c67 -15 118 -38 153 -68c34 -30 51 -72 51 -125s-13 -97 -39 -131
c-26 -35 -61 -60 -106 -77c-44 -17 -94 -25 -150 -25c-42 0 -84 4 -126 12c-42 7 -81 18 -117 34c-36 14 -67 33 -93 54l92 153c19 -15 43 -29 70 -41c27 -13 56 -23 85 -30s57 -11 82 -11c24 0 41 3 49 9c10 5 14 12 14 21s-4 16 -12 21c-7 5 -21 9 -41 14l-100 22
c-35 8 -69 19 -101 32s-58 33 -78 58c-20 26 -30 61 -30 105c0 45 12 85 36 119c25 34 60 60 106 80c47 18 103 28 169 28zM449 -50l-75 -193h-142l24 193h193z" />
    <glyph glyph-name="uni1E60" unicode="&#x1e60;" horiz-adv-x="648" 
d="M339 670c125 0 226 -31 304 -94l-94 -150c-31 22 -64 40 -99 53c-34 13 -71 20 -111 20c-26 0 -44 -3 -55 -9c-10 -5 -15 -13 -15 -22c0 -8 6 -14 19 -18c12 -4 27 -8 46 -13l91 -21c67 -15 118 -38 153 -68c34 -30 51 -72 51 -125s-13 -97 -39 -131
c-26 -35 -61 -60 -106 -77c-44 -17 -94 -25 -150 -25c-42 0 -84 4 -126 12c-42 7 -81 18 -117 34c-36 14 -67 33 -93 54l92 153c19 -15 43 -29 70 -41c27 -13 56 -23 85 -30s57 -11 82 -11c24 0 41 3 49 9c10 5 14 12 14 21s-4 16 -12 21c-7 5 -21 9 -41 14l-100 22
c-35 8 -69 19 -101 32s-58 33 -78 58c-20 26 -30 61 -30 105c0 45 12 85 36 119c25 34 60 60 106 80c47 18 103 28 169 28zM331 886c77 0 115 -31 115 -94s-38 -94 -115 -94c-75 0 -112 31 -112 94s37 94 112 94z" />
    <glyph glyph-name="uni1E62" unicode="&#x1e62;" horiz-adv-x="648" 
d="M339 670c125 0 226 -31 304 -94l-94 -150c-31 22 -64 40 -99 53c-34 13 -71 20 -111 20c-26 0 -44 -3 -55 -9c-10 -5 -15 -13 -15 -22c0 -8 6 -14 19 -18c12 -4 27 -8 46 -13l91 -21c67 -15 118 -38 153 -68c34 -30 51 -72 51 -125s-13 -97 -39 -131
c-26 -35 -61 -60 -106 -77c-44 -17 -94 -25 -150 -25c-42 0 -84 4 -126 12c-42 7 -81 18 -117 34c-36 14 -67 33 -93 54l92 153c19 -15 43 -29 70 -41c27 -13 56 -23 85 -30s57 -11 82 -11c24 0 41 3 49 9c10 5 14 12 14 21s-4 16 -12 21c-7 5 -21 9 -41 14l-100 22
c-35 8 -69 19 -101 32s-58 33 -78 58c-20 26 -30 61 -30 105c0 45 12 85 36 119c25 34 60 60 106 80c47 18 103 28 169 28zM330 -226c-75 0 -112 31 -112 94s37 94 112 94c77 0 115 -31 115 -94s-38 -94 -115 -94z" />
    <glyph glyph-name="uni1E68" unicode="&#x1e68;" horiz-adv-x="648" 
d="M339 670c125 0 226 -31 304 -94l-94 -150c-31 22 -64 40 -99 53c-34 13 -71 20 -111 20c-26 0 -44 -3 -55 -9c-10 -5 -15 -13 -15 -22c0 -8 6 -14 19 -18c12 -4 27 -8 46 -13l91 -21c67 -15 118 -38 153 -68c34 -30 51 -72 51 -125s-13 -97 -39 -131
c-26 -35 -61 -60 -106 -77c-44 -17 -94 -25 -150 -25c-42 0 -84 4 -126 12c-42 7 -81 18 -117 34c-36 14 -67 33 -93 54l92 153c19 -15 43 -29 70 -41c27 -13 56 -23 85 -30s57 -11 82 -11c24 0 41 3 49 9c10 5 14 12 14 21s-4 16 -12 21c-7 5 -21 9 -41 14l-100 22
c-35 8 -69 19 -101 32s-58 33 -78 58c-20 26 -30 61 -30 105c0 45 12 85 36 119c25 34 60 60 106 80c47 18 103 28 169 28zM331 886c77 0 115 -31 115 -94s-38 -94 -115 -94c-75 0 -112 31 -112 94s37 94 112 94zM330 -226c-75 0 -112 31 -112 94s37 94 112 94
c77 0 115 -31 115 -94s-38 -94 -115 -94z" />
    <glyph glyph-name="uni1E9E" unicode="&#x1e9e;" horiz-adv-x="728" 
d="M496 -5c-51 0 -91 5 -120 14s-53 23 -72 40l54 128c13 -9 25 -16 36 -20c12 -4 28 -6 49 -6c18 0 33 4 44 13c11 8 17 19 17 34c0 17 -6 28 -18 35s-28 10 -47 10h-96v113l129 138h-76c-81 0 -122 -44 -122 -132v-362h-233v403c0 81 27 145 80 189c53 46 128 68 225 68
h336v-162l-130 -143h3c23 0 47 -5 73 -16c24 -11 46 -28 63 -53c17 -24 26 -56 26 -97c0 -45 -10 -81 -29 -109c-19 -29 -46 -50 -79 -64s-71 -21 -113 -21z" />
    <glyph glyph-name="uni018F" unicode="&#x18f;" horiz-adv-x="704" 
d="M339 -10c-70 0 -128 14 -175 42c-46 27 -80 64 -104 112c-22 46 -34 99 -34 157c0 9 0 19 2 29c0 9 1 19 2 29h412c-1 47 -10 81 -27 103s-41 33 -73 33s-55 -7 -70 -22c-14 -15 -24 -35 -29 -62l-212 39c13 52 34 94 64 126c30 33 67 56 109 72c44 14 90 22 140 22
c105 0 186 -30 244 -89s87 -143 87 -251c0 -72 -13 -133 -41 -184c-26 -51 -65 -89 -115 -116s-110 -40 -180 -40zM345 165c46 0 75 26 88 79h-178c5 -28 15 -48 31 -60c15 -13 35 -19 59 -19z" />
    <glyph glyph-name="T" unicode="T" horiz-adv-x="686" 
d="M666 660v-171h-206v-489h-233v489h-207v171h646z" />
    <glyph glyph-name="Tbar" unicode="&#x166;" horiz-adv-x="686" 
d="M666 660v-171h-206v-489h-233v489h-207v171h646zM602 374v-171h-518v171h518z" />
    <glyph glyph-name="Tcaron" unicode="&#x164;" horiz-adv-x="686" 
d="M666 660v-171h-206v-489h-233v489h-207v171h646zM546 876l-94 -167h-218l-94 167h148l55 -82l55 82h148z" />
    <glyph glyph-name="uni0162" unicode="&#x162;" horiz-adv-x="686" 
d="M666 660v-171h-206v-489h-21c25 -20 38 -48 38 -84c0 -41 -13 -74 -40 -96c-27 -24 -65 -35 -114 -35c-29 0 -51 3 -66 9s-29 13 -41 20l33 97c7 -5 15 -8 24 -11s19 -4 32 -4c16 0 29 4 39 13c9 9 14 20 14 35c0 11 -4 21 -12 30c-9 9 -24 18 -45 26h-74v489h-207v171
h646z" />
    <glyph glyph-name="uni021A" unicode="&#x21a;" horiz-adv-x="686" 
d="M666 660v-171h-206v-489h-233v489h-207v171h646zM445 -50l-75 -193h-142l24 193h193z" />
    <glyph glyph-name="uni1E6C" unicode="&#x1e6c;" horiz-adv-x="686" 
d="M666 660v-171h-206v-489h-233v489h-207v171h646zM343 -226c-75 0 -112 31 -112 94s37 94 112 94c77 0 115 -31 115 -94s-38 -94 -115 -94z" />
    <glyph glyph-name="uni1E6E" unicode="&#x1e6e;" horiz-adv-x="686" 
d="M666 660v-171h-206v-489h-233v489h-207v171h646zM537 -51v-130h-388v130h388z" />
    <glyph glyph-name="U" unicode="U" horiz-adv-x="712" 
d="M675 660v-376c0 -196 -106 -294 -319 -294s-319 98 -319 294v376h234v-394c0 -67 28 -101 85 -101s86 34 86 101v394h233z" />
    <glyph glyph-name="Uacute" unicode="&#xda;" horiz-adv-x="712" 
d="M675 660v-376c0 -196 -106 -294 -319 -294s-319 98 -319 294v376h234v-394c0 -67 28 -101 85 -101s86 34 86 101v394h233zM323 876h196l-91 -167h-163z" />
    <glyph glyph-name="Ubreve" unicode="&#x16c;" horiz-adv-x="712" 
d="M675 660v-376c0 -196 -106 -294 -319 -294s-319 98 -319 294v376h234v-394c0 -67 28 -101 85 -101s86 34 86 101v394h233zM539 873c0 -55 -16 -97 -49 -127c-32 -31 -77 -46 -134 -46s-101 15 -134 46c-33 30 -49 72 -49 127h139c0 -37 15 -55 44 -55s44 18 44 55h139z
" />
    <glyph glyph-name="Ucircumflex" unicode="&#xdb;" horiz-adv-x="712" 
d="M675 660v-376c0 -196 -106 -294 -319 -294s-319 98 -319 294v376h234v-394c0 -67 28 -101 85 -101s86 34 86 101v394h233zM559 709h-148l-55 82l-55 -82h-148l94 167h218z" />
    <glyph glyph-name="uni0214" unicode="&#x214;" horiz-adv-x="712" 
d="M675 660v-376c0 -196 -106 -294 -319 -294s-319 98 -319 294v376h234v-394c0 -67 28 -101 85 -101s86 34 86 101v394h233zM261 876l58 -167h-163l-91 167h196zM516 876l58 -167h-163l-91 167h196z" />
    <glyph glyph-name="Udieresis" unicode="&#xdc;" horiz-adv-x="712" 
d="M675 660v-376c0 -196 -106 -294 -319 -294s-319 98 -319 294v376h234v-394c0 -67 28 -101 85 -101s86 34 86 101v394h233zM236 880c33 0 59 -8 78 -24c18 -15 27 -38 27 -67s-9 -51 -27 -67c-19 -16 -45 -24 -78 -24s-58 8 -76 24c-17 16 -26 38 -26 67s9 52 26 67
c18 16 43 24 76 24zM473 880c33 0 59 -8 77 -24c19 -15 28 -38 28 -67s-9 -51 -28 -67c-18 -16 -44 -24 -77 -24s-58 8 -75 24c-18 16 -27 38 -27 67s9 52 27 67c17 16 42 24 75 24z" />
    <glyph glyph-name="uni1EE4" unicode="&#x1ee4;" horiz-adv-x="712" 
d="M675 660v-376c0 -196 -106 -294 -319 -294s-319 98 -319 294v376h234v-394c0 -67 28 -101 85 -101s86 34 86 101v394h233zM356 -226c-75 0 -112 31 -112 94s37 94 112 94c77 0 115 -31 115 -94s-38 -94 -115 -94z" />
    <glyph glyph-name="Ugrave" unicode="&#xd9;" horiz-adv-x="712" 
d="M675 660v-376c0 -196 -106 -294 -319 -294s-319 98 -319 294v376h234v-394c0 -67 28 -101 85 -101s86 34 86 101v394h233zM389 876l58 -167h-163l-91 167h196z" />
    <glyph glyph-name="uni1EE6" unicode="&#x1ee6;" horiz-adv-x="712" 
d="M675 660v-376c0 -196 -106 -294 -319 -294s-319 98 -319 294v376h234v-394c0 -67 28 -101 85 -101s86 34 86 101v394h233zM357 690l-43 62c19 7 33 15 40 23s11 16 11 23c0 9 -3 16 -7 21c-6 5 -13 8 -23 8c-9 0 -17 -2 -21 -7c-6 -5 -10 -11 -13 -19l-98 42
c7 31 24 54 50 71s58 25 95 25c23 0 44 -4 66 -12c20 -8 38 -20 51 -37s20 -38 20 -64c0 -29 -7 -52 -21 -70c-15 -19 -32 -33 -52 -44c-20 -10 -38 -17 -55 -22z" />
    <glyph glyph-name="Uhorn" unicode="&#x1af;" horiz-adv-x="712" 
d="M675 660v-376c0 -196 -106 -294 -319 -294s-319 98 -319 294v376h234v-394c0 -67 28 -101 85 -101s86 34 86 101v394h233zM795 764c0 -71 -19 -125 -56 -164s-94 -58 -169 -58v118c27 0 46 8 59 24s19 43 19 80h147z" />
    <glyph glyph-name="uni1EE8" unicode="&#x1ee8;" horiz-adv-x="712" 
d="M675 660v-376c0 -196 -106 -294 -319 -294s-319 98 -319 294v376h234v-394c0 -67 28 -101 85 -101s86 34 86 101v394h233zM795 764c0 -71 -19 -125 -56 -164s-94 -58 -169 -58v118c27 0 46 8 59 24s19 43 19 80h147zM323 876h196l-91 -167h-163z" />
    <glyph glyph-name="uni1EF0" unicode="&#x1ef0;" horiz-adv-x="712" 
d="M675 660v-376c0 -196 -106 -294 -319 -294s-319 98 -319 294v376h234v-394c0 -67 28 -101 85 -101s86 34 86 101v394h233zM795 764c0 -71 -19 -125 -56 -164s-94 -58 -169 -58v118c27 0 46 8 59 24s19 43 19 80h147zM356 -226c-75 0 -112 31 -112 94s37 94 112 94
c77 0 115 -31 115 -94s-38 -94 -115 -94z" />
    <glyph glyph-name="uni1EEA" unicode="&#x1eea;" horiz-adv-x="712" 
d="M675 660v-376c0 -196 -106 -294 -319 -294s-319 98 -319 294v376h234v-394c0 -67 28 -101 85 -101s86 34 86 101v394h233zM795 764c0 -71 -19 -125 -56 -164s-94 -58 -169 -58v118c27 0 46 8 59 24s19 43 19 80h147zM389 876l58 -167h-163l-91 167h196z" />
    <glyph glyph-name="uni1EEC" unicode="&#x1eec;" horiz-adv-x="712" 
d="M675 660v-376c0 -196 -106 -294 -319 -294s-319 98 -319 294v376h234v-394c0 -67 28 -101 85 -101s86 34 86 101v394h233zM795 764c0 -71 -19 -125 -56 -164s-94 -58 -169 -58v118c27 0 46 8 59 24s19 43 19 80h147zM357 690l-43 62c19 7 33 15 40 23s11 16 11 23
c0 9 -3 16 -7 21c-6 5 -13 8 -23 8c-9 0 -17 -2 -21 -7c-6 -5 -10 -11 -13 -19l-98 42c7 31 24 54 50 71s58 25 95 25c23 0 44 -4 66 -12c20 -8 38 -20 51 -37s20 -38 20 -64c0 -29 -7 -52 -21 -70c-15 -19 -32 -33 -52 -44c-20 -10 -38 -17 -55 -22z" />
    <glyph glyph-name="uni1EEE" unicode="&#x1eee;" horiz-adv-x="712" 
d="M675 660v-376c0 -196 -106 -294 -319 -294s-319 98 -319 294v376h234v-394c0 -67 28 -101 85 -101s86 34 86 101v394h233zM795 764c0 -71 -19 -125 -56 -164s-94 -58 -169 -58v118c27 0 46 8 59 24s19 43 19 80h147zM566 879c-1 -40 -7 -73 -20 -99s-29 -45 -48 -58
c-20 -13 -41 -19 -63 -19c-25 0 -45 4 -62 13c-17 8 -31 16 -43 24c-11 9 -23 13 -35 13c-18 0 -28 -16 -31 -48h-118c1 60 16 104 43 133s60 43 99 43c25 0 44 -4 58 -13c15 -8 27 -16 38 -24c11 -9 22 -13 34 -13c17 0 27 16 30 48h118z" />
    <glyph glyph-name="Uhungarumlaut" unicode="&#x170;" horiz-adv-x="712" 
d="M675 660v-376c0 -196 -106 -294 -319 -294s-319 98 -319 294v376h234v-394c0 -67 28 -101 85 -101s86 34 86 101v394h233zM451 876h196l-91 -167h-163zM196 876h196l-91 -167h-163z" />
    <glyph glyph-name="uni0216" unicode="&#x216;" horiz-adv-x="712" 
d="M675 660v-376c0 -196 -106 -294 -319 -294s-319 98 -319 294v376h234v-394c0 -67 28 -101 85 -101s86 34 86 101v394h233zM539 700h-139c0 37 -15 55 -44 55s-44 -18 -44 -55h-139c0 55 16 98 49 128s77 45 134 45s102 -15 134 -45c33 -30 49 -73 49 -128z" />
    <glyph glyph-name="Umacron" unicode="&#x16a;" horiz-adv-x="712" 
d="M675 660v-376c0 -196 -106 -294 -319 -294s-319 98 -319 294v376h234v-394c0 -67 28 -101 85 -101s86 34 86 101v394h233zM550 841v-130h-388v130h388z" />
    <glyph glyph-name="uni1E7A" unicode="&#x1e7a;" horiz-adv-x="712" 
d="M675 660v-376c0 -196 -106 -294 -319 -294s-319 98 -319 294v376h234v-394c0 -67 28 -101 85 -101s86 34 86 101v394h233zM550 841v-130h-388v130h388zM236 1059c33 0 59 -8 78 -23c18 -16 27 -39 27 -68s-9 -51 -27 -67c-19 -16 -45 -24 -78 -24s-58 8 -76 24
c-17 16 -26 38 -26 67s9 52 26 68c18 15 43 23 76 23zM473 1059c33 0 59 -8 77 -23c19 -16 28 -39 28 -68s-9 -51 -28 -67c-18 -16 -44 -24 -77 -24s-58 8 -75 24c-18 16 -27 38 -27 67s9 52 27 68c17 15 42 23 75 23z" />
    <glyph glyph-name="Uogonek" unicode="&#x172;" horiz-adv-x="712" 
d="M675 660v-376c0 -196 -106 -294 -319 -294s-319 98 -319 294v376h234v-394c0 -67 28 -101 85 -101s86 34 86 101v394h233zM393 -217c-45 0 -80 10 -106 31s-39 49 -39 86c0 40 15 71 46 93s70 34 118 37l82 -22c-32 -9 -57 -18 -76 -26c-18 -10 -27 -23 -27 -40
c0 -25 16 -38 49 -38c7 0 15 1 22 2s13 3 18 6l21 -107c-15 -9 -31 -15 -47 -17c-17 -4 -37 -5 -61 -5z" />
    <glyph glyph-name="Uring" unicode="&#x16e;" horiz-adv-x="712" 
d="M675 660v-376c0 -196 -106 -294 -319 -294s-319 98 -319 294v376h234v-394c0 -67 28 -101 85 -101s86 34 86 101v394h233zM356 949c45 0 82 -12 108 -35c28 -24 41 -56 41 -96s-13 -72 -41 -95c-26 -23 -63 -35 -108 -35s-82 12 -108 35c-28 23 -41 55 -41 95
s13 72 41 96c26 23 63 35 108 35zM356 860c-13 0 -23 -4 -30 -11c-8 -7 -12 -18 -12 -31s4 -23 12 -30c7 -7 17 -11 30 -11s24 4 31 11s11 17 11 30s-4 24 -11 31s-18 11 -31 11z" />
    <glyph glyph-name="Utilde" unicode="&#x168;" horiz-adv-x="712" 
d="M675 660v-376c0 -196 -106 -294 -319 -294s-319 98 -319 294v376h234v-394c0 -67 28 -101 85 -101s86 34 86 101v394h233zM566 879c-1 -40 -7 -73 -20 -99s-29 -45 -48 -58c-20 -13 -41 -19 -63 -19c-25 0 -45 4 -62 13c-17 8 -31 16 -43 24c-11 9 -23 13 -35 13
c-18 0 -28 -16 -31 -48h-118c1 60 16 104 43 133s60 43 99 43c25 0 44 -4 58 -13c15 -8 27 -16 38 -24c11 -9 22 -13 34 -13c17 0 27 16 30 48h118z" />
    <glyph glyph-name="uni1E78" unicode="&#x1e78;" horiz-adv-x="712" 
d="M675 660v-376c0 -196 -106 -294 -319 -294s-319 98 -319 294v376h234v-394c0 -67 28 -101 85 -101s86 34 86 101v394h233zM566 879c-1 -40 -7 -73 -20 -99s-29 -45 -48 -58c-20 -13 -41 -19 -63 -19c-25 0 -45 4 -62 13c-17 8 -31 16 -43 24c-11 9 -23 13 -35 13
c-18 0 -28 -16 -31 -48h-118c1 60 16 104 43 133s60 43 99 43c25 0 44 -4 58 -13c15 -8 27 -16 38 -24c11 -9 22 -13 34 -13c17 0 27 16 30 48h118zM323 1087h196l-91 -167h-163z" />
    <glyph glyph-name="V" unicode="V" horiz-adv-x="707" 
d="M715 660l-223 -660h-277l-223 660h243l91 -361l32 -129l30 127l93 363h234z" />
    <glyph glyph-name="W" unicode="W" horiz-adv-x="1021" 
d="M179 0l-187 660h251l77 -477l93 477h200l98 -474l75 474h242l-188 -660h-247l-52 248l-26 169h-3l-26 -169l-51 -248h-256z" />
    <glyph glyph-name="Wacute" unicode="&#x1e82;" horiz-adv-x="1021" 
d="M179 0l-187 660h251l77 -477l93 477h200l98 -474l75 474h242l-188 -660h-247l-52 248l-26 169h-3l-26 -169l-51 -248h-256zM477 876h196l-91 -167h-163z" />
    <glyph glyph-name="Wcircumflex" unicode="&#x174;" horiz-adv-x="1021" 
d="M179 0l-187 660h251l77 -477l93 477h200l98 -474l75 474h242l-188 -660h-247l-52 248l-26 169h-3l-26 -169l-51 -248h-256zM713 709h-148l-55 82l-55 -82h-148l94 167h218z" />
    <glyph glyph-name="Wdieresis" unicode="&#x1e84;" horiz-adv-x="1021" 
d="M179 0l-187 660h251l77 -477l93 477h200l98 -474l75 474h242l-188 -660h-247l-52 248l-26 169h-3l-26 -169l-51 -248h-256zM390 880c33 0 59 -8 78 -24c18 -15 27 -38 27 -67s-9 -51 -27 -67c-19 -16 -45 -24 -78 -24s-58 8 -76 24c-17 16 -26 38 -26 67s9 52 26 67
c18 16 43 24 76 24zM627 880c33 0 59 -8 77 -24c19 -15 28 -38 28 -67s-9 -51 -28 -67c-18 -16 -44 -24 -77 -24s-58 8 -75 24c-18 16 -27 38 -27 67s9 52 27 67c17 16 42 24 75 24z" />
    <glyph glyph-name="Wgrave" unicode="&#x1e80;" horiz-adv-x="1021" 
d="M179 0l-187 660h251l77 -477l93 477h200l98 -474l75 474h242l-188 -660h-247l-52 248l-26 169h-3l-26 -169l-51 -248h-256zM543 876l58 -167h-163l-91 167h196z" />
    <glyph glyph-name="X" unicode="X" horiz-adv-x="704" 
d="M713 0h-281l-87 171l-80 -171h-263l219 329l-211 331h275l77 -165l78 165h254l-210 -325z" />
    <glyph glyph-name="Y" unicode="Y" horiz-adv-x="713" 
d="M704 660l-231 -431v-229h-233v229l-231 431h232l70 -151l47 -120l47 120l70 151h229z" />
    <glyph glyph-name="Yacute" unicode="&#xdd;" horiz-adv-x="713" 
d="M704 660l-231 -431v-229h-233v229l-231 431h232l70 -151l47 -120l47 120l70 151h229zM323 876h196l-91 -167h-163z" />
    <glyph glyph-name="Ycircumflex" unicode="&#x176;" horiz-adv-x="713" 
d="M704 660l-231 -431v-229h-233v229l-231 431h232l70 -151l47 -120l47 120l70 151h229zM559 709h-148l-55 82l-55 -82h-148l94 167h218z" />
    <glyph glyph-name="Ydieresis" unicode="&#x178;" horiz-adv-x="713" 
d="M704 660l-231 -431v-229h-233v229l-231 431h232l70 -151l47 -120l47 120l70 151h229zM236 880c33 0 59 -8 78 -24c18 -15 27 -38 27 -67s-9 -51 -27 -67c-19 -16 -45 -24 -78 -24s-58 8 -76 24c-17 16 -26 38 -26 67s9 52 26 67c18 16 43 24 76 24zM473 880
c33 0 59 -8 77 -24c19 -15 28 -38 28 -67s-9 -51 -28 -67c-18 -16 -44 -24 -77 -24s-58 8 -75 24c-18 16 -27 38 -27 67s9 52 27 67c17 16 42 24 75 24z" />
    <glyph glyph-name="uni1E8E" unicode="&#x1e8e;" horiz-adv-x="713" 
d="M704 660l-231 -431v-229h-233v229l-231 431h232l70 -151l47 -120l47 120l70 151h229zM356 886c77 0 115 -31 115 -94s-38 -94 -115 -94c-75 0 -112 31 -112 94s37 94 112 94z" />
    <glyph glyph-name="uni1EF4" unicode="&#x1ef4;" horiz-adv-x="713" 
d="M704 660l-231 -431v-229h-233v229l-231 431h232l70 -151l47 -120l47 120l70 151h229zM356 -226c-75 0 -112 31 -112 94s37 94 112 94c77 0 115 -31 115 -94s-38 -94 -115 -94z" />
    <glyph glyph-name="Ygrave" unicode="&#x1ef2;" horiz-adv-x="713" 
d="M704 660l-231 -431v-229h-233v229l-231 431h232l70 -151l47 -120l47 120l70 151h229zM389 876l58 -167h-163l-91 167h196z" />
    <glyph glyph-name="uni1EF6" unicode="&#x1ef6;" horiz-adv-x="713" 
d="M704 660l-231 -431v-229h-233v229l-231 431h232l70 -151l47 -120l47 120l70 151h229zM357 690l-43 62c19 7 33 15 40 23s11 16 11 23c0 9 -3 16 -7 21c-6 5 -13 8 -23 8c-9 0 -17 -2 -21 -7c-6 -5 -10 -11 -13 -19l-98 42c7 31 24 54 50 71s58 25 95 25
c23 0 44 -4 66 -12c20 -8 38 -20 51 -37s20 -38 20 -64c0 -29 -7 -52 -21 -70c-15 -19 -32 -33 -52 -44c-20 -10 -38 -17 -55 -22z" />
    <glyph glyph-name="uni0232" unicode="&#x232;" horiz-adv-x="713" 
d="M704 660l-231 -431v-229h-233v229l-231 431h232l70 -151l47 -120l47 120l70 151h229zM550 841v-130h-388v130h388z" />
    <glyph glyph-name="uni1EF8" unicode="&#x1ef8;" horiz-adv-x="713" 
d="M704 660l-231 -431v-229h-233v229l-231 431h232l70 -151l47 -120l47 120l70 151h229zM566 879c-1 -40 -7 -73 -20 -99s-29 -45 -48 -58c-20 -13 -41 -19 -63 -19c-25 0 -45 4 -62 13c-17 8 -31 16 -43 24c-11 9 -23 13 -35 13c-18 0 -28 -16 -31 -48h-118
c1 60 16 104 43 133s60 43 99 43c25 0 44 -4 58 -13c15 -8 27 -16 38 -24c11 -9 22 -13 34 -13c17 0 27 16 30 48h118z" />
    <glyph glyph-name="Z" unicode="Z" horiz-adv-x="637" 
d="M622 166v-166h-597v159l335 335h-331v166h582v-159l-333 -335h344z" />
    <glyph glyph-name="Zacute" unicode="&#x179;" horiz-adv-x="637" 
d="M622 166v-166h-597v159l335 335h-331v166h582v-159l-333 -335h344zM296 876h196l-91 -167h-163z" />
    <glyph glyph-name="Zcaron" unicode="&#x17d;" horiz-adv-x="637" 
d="M622 166v-166h-597v159l335 335h-331v166h582v-159l-333 -335h344zM532 876l-94 -167h-218l-94 167h148l55 -82l55 82h148z" />
    <glyph glyph-name="Zdotaccent" unicode="&#x17b;" horiz-adv-x="637" 
d="M622 166v-166h-597v159l335 335h-331v166h582v-159l-333 -335h344zM329 886c77 0 115 -31 115 -94s-38 -94 -115 -94c-75 0 -112 31 -112 94s37 94 112 94z" />
    <glyph glyph-name="uni1E92" unicode="&#x1e92;" horiz-adv-x="637" 
d="M622 166v-166h-597v159l335 335h-331v166h582v-159l-333 -335h344zM306 -226c-75 0 -112 31 -112 94s37 94 112 94c77 0 115 -31 115 -94s-38 -94 -115 -94z" />
    <glyph glyph-name="Iacute_J.loclNLD" horiz-adv-x="986" 
d="M283 660v-660h-233v660h233zM133 876h196l-91 -167h-163zM951 660v-388c0 -89 -27 -159 -80 -208s-130 -74 -231 -74c-74 0 -133 13 -178 39c-44 26 -74 62 -90 107c-17 45 -21 97 -12 154l231 39c-9 -63 -7 -106 3 -129c12 -23 31 -35 58 -35c23 0 39 10 50 29
s16 51 16 95v371h233zM802 876h196l-91 -167h-163z" />
    <glyph glyph-name="Adieresis.rvrn" horiz-adv-x="689" 
d="M699 0h-238l-30 126h-178l-31 -126h-232l214 660h280zM288 271h109l-54 229zM224 880c33 0 59 -8 78 -24c18 -15 27 -38 27 -67s-9 -51 -27 -67c-19 -16 -45 -24 -78 -24s-58 8 -76 24c-17 16 -26 38 -26 67s9 52 26 67c18 16 43 24 76 24zM461 880c33 0 59 -8 77 -24
c19 -15 28 -38 28 -67s-9 -51 -28 -67c-18 -16 -44 -24 -77 -24s-58 8 -75 24c-18 16 -27 38 -27 67s9 52 27 67c17 16 42 24 75 24z" />
    <glyph glyph-name="Odieresis.rvrn" horiz-adv-x="729" 
d="M365 670c105 0 187 -30 247 -89c58 -59 88 -143 88 -251s-30 -192 -88 -251c-60 -59 -142 -89 -247 -89c-69 0 -129 13 -179 40c-51 27 -90 65 -116 116c-28 51 -41 112 -41 184s13 133 41 184c26 51 65 89 116 116c50 27 110 40 179 40zM365 495c-34 0 -59 -13 -75 -39
c-15 -27 -23 -69 -23 -126s8 -99 23 -126c16 -26 41 -39 75 -39s59 13 74 39c15 27 23 69 23 126s-8 99 -23 126c-15 26 -40 39 -74 39zM245 880c33 0 59 -8 77 -24c19 -15 28 -38 28 -67s-9 -51 -28 -67c-18 -16 -44 -24 -77 -24s-58 8 -75 24c-18 16 -27 38 -27 67
s9 52 27 67c17 16 42 24 75 24zM482 880c33 0 59 -8 78 -24c18 -15 27 -38 27 -67s-9 -51 -27 -67c-19 -16 -45 -24 -78 -24s-58 8 -76 24c-17 16 -26 38 -26 67s9 52 26 67c18 16 43 24 76 24z" />
    <glyph glyph-name="Udieresis.rvrn" horiz-adv-x="712" 
d="M675 660v-376c0 -196 -106 -294 -319 -294s-319 98 -319 294v376h234v-394c0 -67 28 -101 85 -101s86 34 86 101v394h233zM236 880c33 0 59 -8 78 -24c18 -15 27 -38 27 -67s-9 -51 -27 -67c-19 -16 -45 -24 -78 -24s-58 8 -76 24c-17 16 -26 38 -26 67s9 52 26 67
c18 16 43 24 76 24zM473 880c33 0 59 -8 77 -24c19 -15 28 -38 28 -67s-9 -51 -28 -67c-18 -16 -44 -24 -77 -24s-58 8 -75 24c-18 16 -27 38 -27 67s9 52 27 67c17 16 42 24 75 24z" />
    <glyph glyph-name="R.ss03" horiz-adv-x="705" 
d="M50 0v660h358c88 0 154 -18 200 -54c44 -36 67 -88 67 -157c0 -35 -6 -64 -17 -87c-11 -22 -26 -40 -45 -52c-19 -14 -39 -24 -62 -31v-2c33 -9 55 -23 67 -41c13 -20 21 -40 25 -61c7 -38 13 -71 17 -97c5 -28 13 -52 25 -73v-5h-243c-9 21 -14 44 -14 68
c-2 24 -6 52 -13 85c-5 25 -15 43 -28 52s-32 14 -57 14h-52v-219h-228zM278 372h83c29 0 50 4 63 14c12 8 18 24 18 47c0 22 -6 38 -18 47c-13 9 -34 14 -63 14h-83v-122z" />
    <glyph glyph-name="Racute.ss03" horiz-adv-x="705" 
d="M50 0v660h358c88 0 154 -18 200 -54c44 -36 67 -88 67 -157c0 -35 -6 -64 -17 -87c-11 -22 -26 -40 -45 -52c-19 -14 -39 -24 -62 -31v-2c33 -9 55 -23 67 -41c13 -20 21 -40 25 -61c7 -38 13 -71 17 -97c5 -28 13 -52 25 -73v-5h-243c-9 21 -14 44 -14 68
c-2 24 -6 52 -13 85c-5 25 -15 43 -28 52s-32 14 -57 14h-52v-219h-228zM278 372h83c29 0 50 4 63 14c12 8 18 24 18 47c0 22 -6 38 -18 47c-13 9 -34 14 -63 14h-83v-122zM301 876h196l-91 -167h-163z" />
    <glyph glyph-name="Rcaron.ss03" horiz-adv-x="705" 
d="M50 0v660h358c88 0 154 -18 200 -54c44 -36 67 -88 67 -157c0 -35 -6 -64 -17 -87c-11 -22 -26 -40 -45 -52c-19 -14 -39 -24 -62 -31v-2c33 -9 55 -23 67 -41c13 -20 21 -40 25 -61c7 -38 13 -71 17 -97c5 -28 13 -52 25 -73v-5h-243c-9 21 -14 44 -14 68
c-2 24 -6 52 -13 85c-5 25 -15 43 -28 52s-32 14 -57 14h-52v-219h-228zM278 372h83c29 0 50 4 63 14c12 8 18 24 18 47c0 22 -6 38 -18 47c-13 9 -34 14 -63 14h-83v-122zM537 876l-94 -167h-218l-94 167h148l55 -82l55 82h148z" />
    <glyph glyph-name="uni0156.ss03" horiz-adv-x="705" 
d="M50 0v660h358c88 0 154 -18 200 -54c44 -36 67 -88 67 -157c0 -35 -6 -64 -17 -87c-11 -22 -26 -40 -45 -52c-19 -14 -39 -24 -62 -31v-2c33 -9 55 -23 67 -41c13 -20 21 -40 25 -61c7 -38 13 -71 17 -97c5 -28 13 -52 25 -73v-5h-243c-9 21 -14 44 -14 68
c-2 24 -6 52 -13 85c-5 25 -15 43 -28 52s-32 14 -57 14h-52v-219h-228zM278 372h83c29 0 50 4 63 14c12 8 18 24 18 47c0 22 -6 38 -18 47c-13 9 -34 14 -63 14h-83v-122zM481 -50l-75 -193h-142l24 193h193z" />
    <glyph glyph-name="uni0210.ss03" horiz-adv-x="705" 
d="M50 0v660h358c88 0 154 -18 200 -54c44 -36 67 -88 67 -157c0 -35 -6 -64 -17 -87c-11 -22 -26 -40 -45 -52c-19 -14 -39 -24 -62 -31v-2c33 -9 55 -23 67 -41c13 -20 21 -40 25 -61c7 -38 13 -71 17 -97c5 -28 13 -52 25 -73v-5h-243c-9 21 -14 44 -14 68
c-2 24 -6 52 -13 85c-5 25 -15 43 -28 52s-32 14 -57 14h-52v-219h-228zM278 372h83c29 0 50 4 63 14c12 8 18 24 18 47c0 22 -6 38 -18 47c-13 9 -34 14 -63 14h-83v-122zM239 876l58 -167h-163l-91 167h196zM494 876l58 -167h-163l-91 167h196z" />
    <glyph glyph-name="uni1E5A.ss03" horiz-adv-x="705" 
d="M50 0v660h358c88 0 154 -18 200 -54c44 -36 67 -88 67 -157c0 -35 -6 -64 -17 -87c-11 -22 -26 -40 -45 -52c-19 -14 -39 -24 -62 -31v-2c33 -9 55 -23 67 -41c13 -20 21 -40 25 -61c7 -38 13 -71 17 -97c5 -28 13 -52 25 -73v-5h-243c-9 21 -14 44 -14 68
c-2 24 -6 52 -13 85c-5 25 -15 43 -28 52s-32 14 -57 14h-52v-219h-228zM278 372h83c29 0 50 4 63 14c12 8 18 24 18 47c0 22 -6 38 -18 47c-13 9 -34 14 -63 14h-83v-122zM362 -226c-75 0 -112 31 -112 94s37 94 112 94c77 0 115 -31 115 -94s-38 -94 -115 -94z" />
    <glyph glyph-name="uni0212.ss03" horiz-adv-x="705" 
d="M50 0v660h358c88 0 154 -18 200 -54c44 -36 67 -88 67 -157c0 -35 -6 -64 -17 -87c-11 -22 -26 -40 -45 -52c-19 -14 -39 -24 -62 -31v-2c33 -9 55 -23 67 -41c13 -20 21 -40 25 -61c7 -38 13 -71 17 -97c5 -28 13 -52 25 -73v-5h-243c-9 21 -14 44 -14 68
c-2 24 -6 52 -13 85c-5 25 -15 43 -28 52s-32 14 -57 14h-52v-219h-228zM278 372h83c29 0 50 4 63 14c12 8 18 24 18 47c0 22 -6 38 -18 47c-13 9 -34 14 -63 14h-83v-122zM517 700h-139c0 37 -15 55 -44 55s-44 -18 -44 -55h-139c0 55 16 98 49 128s77 45 134 45
s102 -15 134 -45c33 -30 49 -73 49 -128z" />
    <glyph glyph-name="uni1E5E.ss03" horiz-adv-x="705" 
d="M50 0v660h358c88 0 154 -18 200 -54c44 -36 67 -88 67 -157c0 -35 -6 -64 -17 -87c-11 -22 -26 -40 -45 -52c-19 -14 -39 -24 -62 -31v-2c33 -9 55 -23 67 -41c13 -20 21 -40 25 -61c7 -38 13 -71 17 -97c5 -28 13 -52 25 -73v-5h-243c-9 21 -14 44 -14 68
c-2 24 -6 52 -13 85c-5 25 -15 43 -28 52s-32 14 -57 14h-52v-219h-228zM278 372h83c29 0 50 4 63 14c12 8 18 24 18 47c0 22 -6 38 -18 47c-13 9 -34 14 -63 14h-83v-122zM556 -51v-130h-388v130h388z" />
    <glyph glyph-name="G.ss04" horiz-adv-x="722" 
d="M368 -10c-67 0 -126 12 -176 38c-52 24 -91 62 -120 112c-29 51 -43 113 -43 188c0 108 30 192 91 252c60 60 144 90 251 90c81 0 146 -14 195 -42c49 -27 86 -74 113 -139l-217 -78c-5 29 -14 51 -28 64c-13 13 -34 20 -61 20c-33 0 -59 -13 -77 -39
c-20 -27 -29 -69 -29 -126c0 -63 10 -106 29 -130c19 -23 51 -35 96 -35c31 0 56 7 74 19c17 14 26 29 26 48v7h-121v135h316v-94c0 -71 -14 -128 -41 -170c-28 -43 -66 -73 -114 -92s-103 -28 -164 -28z" />
    <glyph glyph-name="Gbreve.ss04" horiz-adv-x="722" 
d="M368 -10c-67 0 -126 12 -176 38c-52 24 -91 62 -120 112c-29 51 -43 113 -43 188c0 108 30 192 91 252c60 60 144 90 251 90c81 0 146 -14 195 -42c49 -27 86 -74 113 -139l-217 -78c-5 29 -14 51 -28 64c-13 13 -34 20 -61 20c-33 0 -59 -13 -77 -39
c-20 -27 -29 -69 -29 -126c0 -63 10 -106 29 -130c19 -23 51 -35 96 -35c31 0 56 7 74 19c17 14 26 29 26 48v7h-121v135h316v-94c0 -71 -14 -128 -41 -170c-28 -43 -66 -73 -114 -92s-103 -28 -164 -28zM547 873c0 -55 -16 -97 -49 -127c-32 -31 -77 -46 -134 -46
s-101 15 -134 46c-33 30 -49 72 -49 127h139c0 -37 15 -55 44 -55s44 18 44 55h139z" />
    <glyph glyph-name="Gcaron.ss04" horiz-adv-x="722" 
d="M368 -10c-67 0 -126 12 -176 38c-52 24 -91 62 -120 112c-29 51 -43 113 -43 188c0 108 30 192 91 252c60 60 144 90 251 90c81 0 146 -14 195 -42c49 -27 86 -74 113 -139l-217 -78c-5 29 -14 51 -28 64c-13 13 -34 20 -61 20c-33 0 -59 -13 -77 -39
c-20 -27 -29 -69 -29 -126c0 -63 10 -106 29 -130c19 -23 51 -35 96 -35c31 0 56 7 74 19c17 14 26 29 26 48v7h-121v135h316v-94c0 -71 -14 -128 -41 -170c-28 -43 -66 -73 -114 -92s-103 -28 -164 -28zM567 876l-94 -167h-218l-94 167h148l55 -82l55 82h148z" />
    <glyph glyph-name="Gcircumflex.ss04" horiz-adv-x="722" 
d="M368 -10c-67 0 -126 12 -176 38c-52 24 -91 62 -120 112c-29 51 -43 113 -43 188c0 108 30 192 91 252c60 60 144 90 251 90c81 0 146 -14 195 -42c49 -27 86 -74 113 -139l-217 -78c-5 29 -14 51 -28 64c-13 13 -34 20 -61 20c-33 0 -59 -13 -77 -39
c-20 -27 -29 -69 -29 -126c0 -63 10 -106 29 -130c19 -23 51 -35 96 -35c31 0 56 7 74 19c17 14 26 29 26 48v7h-121v135h316v-94c0 -71 -14 -128 -41 -170c-28 -43 -66 -73 -114 -92s-103 -28 -164 -28zM567 709h-148l-55 82l-55 -82h-148l94 167h218z" />
    <glyph glyph-name="uni0122.ss04" horiz-adv-x="722" 
d="M368 -10c-67 0 -126 12 -176 38c-52 24 -91 62 -120 112c-29 51 -43 113 -43 188c0 108 30 192 91 252c60 60 144 90 251 90c81 0 146 -14 195 -42c49 -27 86 -74 113 -139l-217 -78c-5 29 -14 51 -28 64c-13 13 -34 20 -61 20c-33 0 -59 -13 -77 -39
c-20 -27 -29 -69 -29 -126c0 -63 10 -106 29 -130c19 -23 51 -35 96 -35c31 0 56 7 74 19c17 14 26 29 26 48v7h-121v135h316v-94c0 -71 -14 -128 -41 -170c-28 -43 -66 -73 -114 -92s-103 -28 -164 -28zM498 -50l-75 -193h-142l24 193h193z" />
    <glyph glyph-name="Gdotaccent.ss04" horiz-adv-x="722" 
d="M368 -10c-67 0 -126 12 -176 38c-52 24 -91 62 -120 112c-29 51 -43 113 -43 188c0 108 30 192 91 252c60 60 144 90 251 90c81 0 146 -14 195 -42c49 -27 86 -74 113 -139l-217 -78c-5 29 -14 51 -28 64c-13 13 -34 20 -61 20c-33 0 -59 -13 -77 -39
c-20 -27 -29 -69 -29 -126c0 -63 10 -106 29 -130c19 -23 51 -35 96 -35c31 0 56 7 74 19c17 14 26 29 26 48v7h-121v135h316v-94c0 -71 -14 -128 -41 -170c-28 -43 -66 -73 -114 -92s-103 -28 -164 -28zM364 886c77 0 115 -31 115 -94s-38 -94 -115 -94
c-75 0 -112 31 -112 94s37 94 112 94z" />
    <glyph glyph-name="uni1E20.ss04" horiz-adv-x="722" 
d="M368 -10c-67 0 -126 12 -176 38c-52 24 -91 62 -120 112c-29 51 -43 113 -43 188c0 108 30 192 91 252c60 60 144 90 251 90c81 0 146 -14 195 -42c49 -27 86 -74 113 -139l-217 -78c-5 29 -14 51 -28 64c-13 13 -34 20 -61 20c-33 0 -59 -13 -77 -39
c-20 -27 -29 -69 -29 -126c0 -63 10 -106 29 -130c19 -23 51 -35 96 -35c31 0 56 7 74 19c17 14 26 29 26 48v7h-121v135h316v-94c0 -71 -14 -128 -41 -170c-28 -43 -66 -73 -114 -92s-103 -28 -164 -28zM558 841v-130h-388v130h388z" />
    <glyph glyph-name="IJ.ss05" horiz-adv-x="682" 
d="M341 -10c-66 0 -122 10 -167 28c-46 20 -80 48 -102 86c-21 39 -29 87 -22 144h234c-3 -29 1 -50 11 -63s28 -20 53 -20c23 0 40 8 50 23c11 15 16 41 16 77v395h233v-388c0 -89 -27 -158 -81 -208c-55 -49 -130 -74 -225 -74zM50 292v368h233v-368h-233z" />
    <glyph glyph-name="A.swsh" horiz-adv-x="919" 
d="M227 212c-65 2 -117 23 -157 62s-60 93 -60 162c0 71 22 126 67 166c45 38 111 58 200 58h437l215 -660h-238l-30 126h-188l-7 -23c-13 -45 -32 -84 -55 -115c-23 -32 -54 -56 -91 -73c-38 -17 -86 -25 -144 -25c-40 0 -76 5 -107 14c-31 10 -55 26 -70 49l55 154
c16 -19 32 -32 48 -39c17 -8 36 -12 58 -12c29 0 52 10 71 30c19 21 35 52 48 95l101 313h-103c-23 0 -40 -6 -49 -19s-14 -27 -14 -43c0 -18 6 -34 20 -48c12 -13 31 -21 56 -22zM514 271h113l-54 223z" />
    <glyph glyph-name="Aacute.swsh" horiz-adv-x="919" 
d="M227 212c-65 2 -117 23 -157 62s-60 93 -60 162c0 71 22 126 67 166c45 38 111 58 200 58h437l215 -660h-238l-30 126h-188l-7 -23c-13 -45 -32 -84 -55 -115c-23 -32 -54 -56 -91 -73c-38 -17 -86 -25 -144 -25c-40 0 -76 5 -107 14c-31 10 -55 26 -70 49l55 154
c16 -19 32 -32 48 -39c17 -8 36 -12 58 -12c29 0 52 10 71 30c19 21 35 52 48 95l101 313h-103c-23 0 -40 -6 -49 -19s-14 -27 -14 -43c0 -18 6 -34 20 -48c12 -13 31 -21 56 -22zM514 271h113l-54 223zM541 876h196l-91 -167h-163z" />
    <glyph glyph-name="Abreve.swsh" horiz-adv-x="919" 
d="M227 212c-65 2 -117 23 -157 62s-60 93 -60 162c0 71 22 126 67 166c45 38 111 58 200 58h437l215 -660h-238l-30 126h-188l-7 -23c-13 -45 -32 -84 -55 -115c-23 -32 -54 -56 -91 -73c-38 -17 -86 -25 -144 -25c-40 0 -76 5 -107 14c-31 10 -55 26 -70 49l55 154
c16 -19 32 -32 48 -39c17 -8 36 -12 58 -12c29 0 52 10 71 30c19 21 35 52 48 95l101 313h-103c-23 0 -40 -6 -49 -19s-14 -27 -14 -43c0 -18 6 -34 20 -48c12 -13 31 -21 56 -22zM514 271h113l-54 223zM757 873c0 -55 -16 -97 -49 -127c-32 -31 -77 -46 -134 -46
s-101 15 -134 46c-33 30 -49 72 -49 127h139c0 -37 15 -55 44 -55s44 18 44 55h139z" />
    <glyph glyph-name="Acircumflex.swsh" horiz-adv-x="919" 
d="M227 212c-65 2 -117 23 -157 62s-60 93 -60 162c0 71 22 126 67 166c45 38 111 58 200 58h437l215 -660h-238l-30 126h-188l-7 -23c-13 -45 -32 -84 -55 -115c-23 -32 -54 -56 -91 -73c-38 -17 -86 -25 -144 -25c-40 0 -76 5 -107 14c-31 10 -55 26 -70 49l55 154
c16 -19 32 -32 48 -39c17 -8 36 -12 58 -12c29 0 52 10 71 30c19 21 35 52 48 95l101 313h-103c-23 0 -40 -6 -49 -19s-14 -27 -14 -43c0 -18 6 -34 20 -48c12 -13 31 -21 56 -22zM514 271h113l-54 223zM777 709h-148l-55 82l-55 -82h-148l94 167h218z" />
    <glyph glyph-name="Adieresis.swsh" horiz-adv-x="919" 
d="M227 212c-65 2 -117 23 -157 62s-60 93 -60 162c0 71 22 126 67 166c45 38 111 58 200 58h437l215 -660h-238l-30 126h-188l-7 -23c-13 -45 -32 -84 -55 -115c-23 -32 -54 -56 -91 -73c-38 -17 -86 -25 -144 -25c-40 0 -76 5 -107 14c-31 10 -55 26 -70 49l55 154
c16 -19 32 -32 48 -39c17 -8 36 -12 58 -12c29 0 52 10 71 30c19 21 35 52 48 95l101 313h-103c-23 0 -40 -6 -49 -19s-14 -27 -14 -43c0 -18 6 -34 20 -48c12 -13 31 -21 56 -22zM514 271h113l-54 223zM454 880c33 0 59 -8 78 -24c18 -15 27 -38 27 -67s-9 -51 -27 -67
c-19 -16 -45 -24 -78 -24s-58 8 -76 24c-17 16 -26 38 -26 67s9 52 26 67c18 16 43 24 76 24zM691 880c33 0 59 -8 77 -24c19 -15 28 -38 28 -67s-9 -51 -28 -67c-18 -16 -44 -24 -77 -24s-58 8 -75 24c-18 16 -27 38 -27 67s9 52 27 67c17 16 42 24 75 24z" />
    <glyph glyph-name="Agrave.swsh" horiz-adv-x="919" 
d="M227 212c-65 2 -117 23 -157 62s-60 93 -60 162c0 71 22 126 67 166c45 38 111 58 200 58h437l215 -660h-238l-30 126h-188l-7 -23c-13 -45 -32 -84 -55 -115c-23 -32 -54 -56 -91 -73c-38 -17 -86 -25 -144 -25c-40 0 -76 5 -107 14c-31 10 -55 26 -70 49l55 154
c16 -19 32 -32 48 -39c17 -8 36 -12 58 -12c29 0 52 10 71 30c19 21 35 52 48 95l101 313h-103c-23 0 -40 -6 -49 -19s-14 -27 -14 -43c0 -18 6 -34 20 -48c12 -13 31 -21 56 -22zM514 271h113l-54 223zM607 876l58 -167h-163l-91 167h196z" />
    <glyph glyph-name="Amacron.swsh" horiz-adv-x="919" 
d="M227 212c-65 2 -117 23 -157 62s-60 93 -60 162c0 71 22 126 67 166c45 38 111 58 200 58h437l215 -660h-238l-30 126h-188l-7 -23c-13 -45 -32 -84 -55 -115c-23 -32 -54 -56 -91 -73c-38 -17 -86 -25 -144 -25c-40 0 -76 5 -107 14c-31 10 -55 26 -70 49l55 154
c16 -19 32 -32 48 -39c17 -8 36 -12 58 -12c29 0 52 10 71 30c19 21 35 52 48 95l101 313h-103c-23 0 -40 -6 -49 -19s-14 -27 -14 -43c0 -18 6 -34 20 -48c12 -13 31 -21 56 -22zM514 271h113l-54 223zM768 841v-130h-388v130h388z" />
    <glyph glyph-name="Aogonek.swsh" horiz-adv-x="919" 
d="M227 212c-65 2 -117 23 -157 62s-60 93 -60 162c0 71 22 126 67 166c45 38 111 58 200 58h437l215 -660c-43 -3 -72 -9 -89 -18c-16 -10 -24 -23 -24 -38c0 -25 16 -38 49 -38c7 0 15 1 22 2s13 3 18 6l27 -103c-16 -10 -33 -17 -52 -21c-19 -3 -41 -5 -66 -5
c-27 0 -53 4 -76 13c-23 8 -42 21 -56 38c-13 17 -20 40 -20 68c0 21 5 40 15 56s24 29 41 40h-27l-30 126h-188l-7 -23c-13 -45 -32 -84 -55 -115c-23 -32 -54 -56 -91 -73c-38 -17 -86 -25 -144 -25c-40 0 -76 5 -107 14c-31 10 -55 26 -70 49l55 154
c16 -19 32 -32 48 -39c17 -8 36 -12 58 -12c29 0 52 10 71 30c19 21 35 52 48 95l101 313h-103c-23 0 -40 -6 -49 -19s-14 -27 -14 -43c0 -18 6 -34 20 -48c12 -13 31 -21 56 -22zM514 271h113l-54 223z" />
    <glyph glyph-name="Atilde.swsh" horiz-adv-x="919" 
d="M227 212c-65 2 -117 23 -157 62s-60 93 -60 162c0 71 22 126 67 166c45 38 111 58 200 58h437l215 -660h-238l-30 126h-188l-7 -23c-13 -45 -32 -84 -55 -115c-23 -32 -54 -56 -91 -73c-38 -17 -86 -25 -144 -25c-40 0 -76 5 -107 14c-31 10 -55 26 -70 49l55 154
c16 -19 32 -32 48 -39c17 -8 36 -12 58 -12c29 0 52 10 71 30c19 21 35 52 48 95l101 313h-103c-23 0 -40 -6 -49 -19s-14 -27 -14 -43c0 -18 6 -34 20 -48c12 -13 31 -21 56 -22zM514 271h113l-54 223zM784 879c-1 -40 -7 -73 -20 -99s-29 -45 -48 -58
c-20 -13 -41 -19 -63 -19c-25 0 -45 4 -62 13c-17 8 -31 16 -43 24c-11 9 -23 13 -35 13c-18 0 -28 -16 -31 -48h-118c1 60 16 104 43 133s60 43 99 43c25 0 44 -4 58 -13c15 -8 27 -16 38 -24c11 -9 22 -13 34 -13c17 0 27 16 30 48h118z" />
    <glyph glyph-name="E.swsh" horiz-adv-x="918" 
d="M227 212c-65 2 -117 23 -157 62s-60 93 -60 162c0 71 22 126 67 166c45 38 111 58 200 58h613v-171h-315v-82h254v-158h-254v-78h327v-171h-560v494h-65c-23 0 -40 -6 -49 -19s-14 -27 -14 -43c0 -18 6 -34 20 -48c12 -13 31 -21 56 -22z" />
    <glyph glyph-name="Eacute.swsh" horiz-adv-x="918" 
d="M227 212c-65 2 -117 23 -157 62s-60 93 -60 162c0 71 22 126 67 166c45 38 111 58 200 58h613v-171h-315v-82h254v-158h-254v-78h327v-171h-560v494h-65c-23 0 -40 -6 -49 -19s-14 -27 -14 -43c0 -18 6 -34 20 -48c12 -13 31 -21 56 -22zM572 876h196l-91 -167h-163z" />
    <glyph glyph-name="Ecaron.swsh" horiz-adv-x="918" 
d="M227 212c-65 2 -117 23 -157 62s-60 93 -60 162c0 71 22 126 67 166c45 38 111 58 200 58h613v-171h-315v-82h254v-158h-254v-78h327v-171h-560v494h-65c-23 0 -40 -6 -49 -19s-14 -27 -14 -43c0 -18 6 -34 20 -48c12 -13 31 -21 56 -22zM808 876l-94 -167h-218l-94 167
h148l55 -82l55 82h148z" />
    <glyph glyph-name="Ecircumflex.swsh" horiz-adv-x="918" 
d="M227 212c-65 2 -117 23 -157 62s-60 93 -60 162c0 71 22 126 67 166c45 38 111 58 200 58h613v-171h-315v-82h254v-158h-254v-78h327v-171h-560v494h-65c-23 0 -40 -6 -49 -19s-14 -27 -14 -43c0 -18 6 -34 20 -48c12 -13 31 -21 56 -22zM808 709h-148l-55 82l-55 -82
h-148l94 167h218z" />
    <glyph glyph-name="Edieresis.swsh" horiz-adv-x="918" 
d="M227 212c-65 2 -117 23 -157 62s-60 93 -60 162c0 71 22 126 67 166c45 38 111 58 200 58h613v-171h-315v-82h254v-158h-254v-78h327v-171h-560v494h-65c-23 0 -40 -6 -49 -19s-14 -27 -14 -43c0 -18 6 -34 20 -48c12 -13 31 -21 56 -22zM496 880c33 0 59 -8 78 -24
c18 -15 27 -38 27 -67s-9 -51 -27 -67c-19 -16 -45 -24 -78 -24s-58 8 -76 24c-17 16 -26 38 -26 67s9 52 26 67c18 16 43 24 76 24zM733 880c33 0 59 -8 77 -24c19 -15 28 -38 28 -67s-9 -51 -28 -67c-18 -16 -44 -24 -77 -24s-58 8 -75 24c-18 16 -27 38 -27 67
s9 52 27 67c17 16 42 24 75 24z" />
    <glyph glyph-name="Edotaccent.swsh" horiz-adv-x="918" 
d="M227 212c-65 2 -117 23 -157 62s-60 93 -60 162c0 71 22 126 67 166c45 38 111 58 200 58h613v-171h-315v-82h254v-158h-254v-78h327v-171h-560v494h-65c-23 0 -40 -6 -49 -19s-14 -27 -14 -43c0 -18 6 -34 20 -48c12 -13 31 -21 56 -22zM616 886c77 0 115 -31 115 -94
s-38 -94 -115 -94c-75 0 -112 31 -112 94s37 94 112 94z" />
    <glyph glyph-name="Egrave.swsh" horiz-adv-x="918" 
d="M227 212c-65 2 -117 23 -157 62s-60 93 -60 162c0 71 22 126 67 166c45 38 111 58 200 58h613v-171h-315v-82h254v-158h-254v-78h327v-171h-560v494h-65c-23 0 -40 -6 -49 -19s-14 -27 -14 -43c0 -18 6 -34 20 -48c12 -13 31 -21 56 -22zM638 877l58 -167h-163l-91 167
h196z" />
    <glyph glyph-name="Emacron.swsh" horiz-adv-x="918" 
d="M227 212c-65 2 -117 23 -157 62s-60 93 -60 162c0 71 22 126 67 166c45 38 111 58 200 58h613v-171h-315v-82h254v-158h-254v-78h327v-171h-560v494h-65c-23 0 -40 -6 -49 -19s-14 -27 -14 -43c0 -18 6 -34 20 -48c12 -13 31 -21 56 -22zM810 841v-130h-388v130h388z" />
    <glyph glyph-name="Eogonek.swsh" horiz-adv-x="918" 
d="M227 212c-65 2 -117 23 -157 62s-60 93 -60 162c0 71 22 126 67 166c45 38 111 58 200 58h613v-171h-315v-82h254v-158h-254v-78h327v-170l1 -1c-43 -3 -72 -9 -89 -18c-16 -10 -24 -23 -24 -38c0 -25 16 -38 49 -38c7 0 15 1 22 2s13 3 18 6l27 -103
c-16 -10 -33 -17 -52 -21c-19 -3 -41 -5 -66 -5c-27 0 -53 4 -76 13c-23 8 -42 21 -56 38c-13 17 -20 40 -20 68c0 21 6 40 18 56c13 16 30 29 51 40h-363v494h-65c-23 0 -40 -6 -49 -19s-14 -27 -14 -43c0 -18 6 -34 20 -48c12 -13 31 -21 56 -22z" />
    <glyph glyph-name="F.swsh" horiz-adv-x="881" 
d="M227 212c-65 2 -117 23 -157 62s-60 93 -60 162c0 71 22 126 67 166c45 38 111 58 200 58h587v-171h-314v-92h254v-171h-254v-226h-233v494h-40c-23 0 -40 -6 -49 -19s-14 -27 -14 -43c0 -18 6 -34 20 -48c12 -13 31 -21 56 -22z" />
    <glyph glyph-name="L.swsh" horiz-adv-x="738" 
d="M50 0v660h233v-489h178c27 0 46 6 57 17c11 12 16 25 16 40c0 18 -6 34 -16 48c-12 13 -31 21 -60 22l63 140c45 -1 82 -9 109 -24s48 -33 62 -55s24 -45 28 -69c6 -24 8 -46 8 -66c0 -71 -22 -126 -66 -165c-45 -39 -112 -59 -201 -59h-411z" />
    <glyph glyph-name="Lacute.swsh" horiz-adv-x="738" 
d="M50 0v660h233v-489h178c27 0 46 6 57 17c11 12 16 25 16 40c0 18 -6 34 -16 48c-12 13 -31 21 -60 22l63 140c45 -1 82 -9 109 -24s48 -33 62 -55s24 -45 28 -69c6 -24 8 -46 8 -66c0 -71 -22 -126 -66 -165c-45 -39 -112 -59 -201 -59h-411zM133 876h196l-91 -167h-163z
" />
    <glyph glyph-name="Lcaron.swsh" horiz-adv-x="738" 
d="M553 701l-61 -267h-126l22 267h165zM50 0v660h233v-489h178c27 0 46 6 57 17c11 12 16 25 16 40c0 18 -6 34 -16 48c-12 13 -31 21 -60 22l63 140c45 -1 82 -9 109 -24s48 -33 62 -55s24 -45 28 -69c6 -24 8 -46 8 -66c0 -71 -22 -126 -66 -165
c-45 -39 -112 -59 -201 -59h-411z" />
    <glyph glyph-name="uni013B.swsh" horiz-adv-x="738" 
d="M50 0v660h233v-489h178c27 0 46 6 57 17c11 12 16 25 16 40c0 18 -6 34 -16 48c-12 13 -31 21 -60 22l63 140c45 -1 82 -9 109 -24s48 -33 62 -55s24 -45 28 -69c6 -24 8 -46 8 -66c0 -71 -22 -126 -66 -165c-45 -39 -112 -59 -201 -59h-411zM484 -50l-75 -193h-142
l24 193h193z" />
    <glyph glyph-name="Lslash.swsh" horiz-adv-x="828" 
d="M140 0v196l-114 -50v153l114 50v311h233v-208l166 73v-153l-166 -73v-128h178c27 0 46 6 57 17c11 12 16 25 16 40c0 18 -6 34 -16 48c-12 13 -31 21 -60 22l63 140c45 -1 82 -9 109 -24s48 -33 62 -55s24 -45 28 -69c6 -24 8 -46 8 -66c0 -71 -22 -126 -66 -165
c-45 -39 -112 -59 -201 -59h-411z" />
    <glyph glyph-name="M.swsh" horiz-adv-x="1215" 
d="M267 -110c-49 0 -91 6 -123 18c-34 12 -62 34 -86 65l66 145c25 -41 62 -62 110 -62c55 0 83 23 83 69v369h-40c-23 0 -40 -6 -49 -19s-14 -27 -14 -43c0 -18 6 -34 20 -48c12 -13 31 -21 56 -22l-63 -150c-65 2 -117 23 -157 62s-60 93 -60 162c0 71 22 126 67 166
c45 38 111 58 200 58h366l76 -293l29 -123h2l29 123l76 293h310v-660h-203v229l3 222h-3l-128 -451h-186l-126 451h-4l3 -222v-90c0 -61 -11 -110 -32 -147s-51 -63 -89 -78c-38 -16 -82 -24 -133 -24z" />
    <glyph glyph-name="N.swsh" horiz-adv-x="746" 
d="M50 0v660h252l158 -301l36 -80h2l-4 136v56c0 62 11 111 33 147c22 37 52 63 91 78c39 16 83 24 134 24c49 0 90 -6 122 -18s60 -30 83 -55l-70 -141c-13 17 -27 29 -42 36c-15 8 -35 12 -60 12c-28 0 -50 -8 -65 -24c-16 -17 -24 -42 -24 -75v-455h-252l-158 300l-36 81
h-2l4 -136v-245h-202z" />
    <glyph glyph-name="Nacute.swsh" horiz-adv-x="746" 
d="M50 0v660h252l158 -301l36 -80h2l-4 136v56c0 62 11 111 33 147c22 37 52 63 91 78c39 16 83 24 134 24c49 0 90 -6 122 -18s60 -30 83 -55l-70 -141c-13 17 -27 29 -42 36c-15 8 -35 12 -60 12c-28 0 -50 -8 -65 -24c-16 -17 -24 -42 -24 -75v-455h-252l-158 300l-36 81
h-2l4 -136v-245h-202zM340 876h196l-91 -167h-163z" />
    <glyph glyph-name="Ncaron.swsh" horiz-adv-x="746" 
d="M50 0v660h252l158 -301l36 -80h2l-4 136v56c0 62 11 111 33 147c22 37 52 63 91 78c39 16 83 24 134 24c49 0 90 -6 122 -18s60 -30 83 -55l-70 -141c-13 17 -27 29 -42 36c-15 8 -35 12 -60 12c-28 0 -50 -8 -65 -24c-16 -17 -24 -42 -24 -75v-455h-252l-158 300l-36 81
h-2l4 -136v-245h-202zM576 876l-94 -167h-218l-94 167h148l55 -82l55 82h148z" />
    <glyph glyph-name="uni0145.swsh" horiz-adv-x="746" 
d="M50 0v660h252l158 -301l36 -80h2l-4 136v56c0 62 11 111 33 147c22 37 52 63 91 78c39 16 83 24 134 24c49 0 90 -6 122 -18s60 -30 83 -55l-70 -141c-13 17 -27 29 -42 36c-15 8 -35 12 -60 12c-28 0 -50 -8 -65 -24c-16 -17 -24 -42 -24 -75v-455h-252l-158 300l-36 81
h-2l4 -136v-245h-202zM493 -50l-75 -193h-142l24 193h193z" />
    <glyph glyph-name="Ntilde.swsh" horiz-adv-x="746" 
d="M50 0v660h252l158 -301l36 -80h2l-4 136v56c0 62 11 111 33 147c22 37 52 63 91 78c39 16 83 24 134 24c49 0 90 -6 122 -18s60 -30 83 -55l-70 -141c-13 17 -27 29 -42 36c-15 8 -35 12 -60 12c-28 0 -50 -8 -65 -24c-16 -17 -24 -42 -24 -75v-455h-252l-158 300l-36 81
h-2l4 -136v-245h-202zM583 879c-1 -40 -7 -73 -20 -99s-29 -45 -49 -58c-19 -13 -40 -19 -62 -19c-25 0 -45 4 -62 13c-17 8 -31 16 -42 24c-12 9 -24 13 -36 13c-18 0 -28 -16 -31 -48h-118c1 60 16 104 43 133s60 43 99 43c25 0 44 -4 59 -13c14 -8 26 -16 37 -24
c11 -9 22 -13 34 -13c17 0 27 16 30 48h118z" />
    <glyph glyph-name="R.swsh" horiz-adv-x="972" 
d="M277 -110c-49 0 -92 7 -129 22s-67 38 -90 71l76 135c14 -22 30 -38 46 -48c18 -9 38 -14 62 -14c23 0 41 7 54 22c14 14 21 33 21 57v359h-40c-23 0 -40 -6 -49 -19s-14 -27 -14 -43c0 -18 6 -34 20 -48c12 -13 31 -21 56 -22l-63 -150c-65 2 -117 23 -157 62
s-60 93 -60 162c0 71 22 126 67 166c45 38 111 58 200 58h398c178 0 267 -74 267 -221c0 -97 -40 -162 -119 -195l156 -244h-253l-117 219h-64v-70c0 -65 -11 -117 -35 -155c-22 -38 -54 -65 -94 -80c-41 -16 -87 -24 -139 -24zM628 494h-83v-122h83c29 0 50 4 62 14
c13 8 19 24 19 47c0 22 -6 38 -19 47c-12 9 -33 14 -62 14z" />
    <glyph glyph-name="Racute.swsh" horiz-adv-x="972" 
d="M277 -110c-49 0 -92 7 -129 22s-67 38 -90 71l76 135c14 -22 30 -38 46 -48c18 -9 38 -14 62 -14c23 0 41 7 54 22c14 14 21 33 21 57v359h-40c-23 0 -40 -6 -49 -19s-14 -27 -14 -43c0 -18 6 -34 20 -48c12 -13 31 -21 56 -22l-63 -150c-65 2 -117 23 -157 62
s-60 93 -60 162c0 71 22 126 67 166c45 38 111 58 200 58h398c178 0 267 -74 267 -221c0 -97 -40 -162 -119 -195l156 -244h-253l-117 219h-64v-70c0 -65 -11 -117 -35 -155c-22 -38 -54 -65 -94 -80c-41 -16 -87 -24 -139 -24zM628 494h-83v-122h83c29 0 50 4 62 14
c13 8 19 24 19 47c0 22 -6 38 -19 47c-12 9 -33 14 -62 14zM568 876h196l-91 -167h-163z" />
    <glyph glyph-name="Rcaron.swsh" horiz-adv-x="972" 
d="M277 -110c-49 0 -92 7 -129 22s-67 38 -90 71l76 135c14 -22 30 -38 46 -48c18 -9 38 -14 62 -14c23 0 41 7 54 22c14 14 21 33 21 57v359h-40c-23 0 -40 -6 -49 -19s-14 -27 -14 -43c0 -18 6 -34 20 -48c12 -13 31 -21 56 -22l-63 -150c-65 2 -117 23 -157 62
s-60 93 -60 162c0 71 22 126 67 166c45 38 111 58 200 58h398c178 0 267 -74 267 -221c0 -97 -40 -162 -119 -195l156 -244h-253l-117 219h-64v-70c0 -65 -11 -117 -35 -155c-22 -38 -54 -65 -94 -80c-41 -16 -87 -24 -139 -24zM628 494h-83v-122h83c29 0 50 4 62 14
c13 8 19 24 19 47c0 22 -6 38 -19 47c-12 9 -33 14 -62 14zM804 876l-94 -167h-218l-94 167h148l55 -82l55 82h148z" />
    <glyph glyph-name="uni0156.swsh" horiz-adv-x="972" 
d="M277 -110c-49 0 -92 7 -129 22s-67 38 -90 71l76 135c14 -22 30 -38 46 -48c18 -9 38 -14 62 -14c23 0 41 7 54 22c14 14 21 33 21 57v359h-40c-23 0 -40 -6 -49 -19s-14 -27 -14 -43c0 -18 6 -34 20 -48c12 -13 31 -21 56 -22l-63 -150c-65 2 -117 23 -157 62
s-60 93 -60 162c0 71 22 126 67 166c45 38 111 58 200 58h398c178 0 267 -74 267 -221c0 -97 -40 -162 -119 -195l156 -244h-253l-117 219h-64v-70c0 -65 -11 -117 -35 -155c-22 -38 -54 -65 -94 -80c-41 -16 -87 -24 -139 -24zM628 494h-83v-122h83c29 0 50 4 62 14
c13 8 19 24 19 47c0 22 -6 38 -19 47c-12 9 -33 14 -62 14zM748 -50l-75 -193h-142l24 193h193z" />
    <glyph glyph-name="S.swsh" horiz-adv-x="646" 
d="M304 -110c-57 0 -106 8 -150 22c-42 16 -76 36 -100 62c-23 26 -35 55 -35 88c0 15 1 27 2 36s3 17 4 23l202 53c-2 -9 -3 -16 -5 -22c0 -6 -1 -12 -1 -19c0 -22 8 -39 24 -51c16 -11 43 -17 80 -17c33 0 56 5 69 15c13 9 20 21 20 35c0 19 -9 35 -27 46s-52 21 -103 30
c-91 15 -157 42 -196 79c-40 38 -60 92 -60 163c0 45 12 86 36 121c24 36 59 64 105 85s102 31 168 31c95 0 166 -16 212 -47s69 -84 70 -159l-206 -78c0 37 -6 65 -18 82c-12 18 -33 27 -64 27c-21 0 -37 -6 -47 -17c-12 -12 -17 -28 -17 -47c0 -20 9 -36 28 -48
s52 -23 101 -33c85 -17 145 -42 180 -76c35 -35 53 -84 53 -147c0 -53 -14 -97 -41 -131c-27 -36 -66 -62 -114 -80c-50 -17 -106 -26 -170 -26z" />
    <glyph glyph-name="Sacute.swsh" horiz-adv-x="646" 
d="M304 -110c-57 0 -106 8 -150 22c-42 16 -76 36 -100 62c-23 26 -35 55 -35 88c0 15 1 27 2 36s3 17 4 23l202 53c-2 -9 -3 -16 -5 -22c0 -6 -1 -12 -1 -19c0 -22 8 -39 24 -51c16 -11 43 -17 80 -17c33 0 56 5 69 15c13 9 20 21 20 35c0 19 -9 35 -27 46s-52 21 -103 30
c-91 15 -157 42 -196 79c-40 38 -60 92 -60 163c0 45 12 86 36 121c24 36 59 64 105 85s102 31 168 31c95 0 166 -16 212 -47s69 -84 70 -159l-206 -78c0 37 -6 65 -18 82c-12 18 -33 27 -64 27c-21 0 -37 -6 -47 -17c-12 -12 -17 -28 -17 -47c0 -20 9 -36 28 -48
s52 -23 101 -33c85 -17 145 -42 180 -76c35 -35 53 -84 53 -147c0 -53 -14 -97 -41 -131c-27 -36 -66 -62 -114 -80c-50 -17 -106 -26 -170 -26zM298 876h196l-91 -167h-163z" />
    <glyph glyph-name="Scaron.swsh" horiz-adv-x="646" 
d="M304 -110c-57 0 -106 8 -150 22c-42 16 -76 36 -100 62c-23 26 -35 55 -35 88c0 15 1 27 2 36s3 17 4 23l202 53c-2 -9 -3 -16 -5 -22c0 -6 -1 -12 -1 -19c0 -22 8 -39 24 -51c16 -11 43 -17 80 -17c33 0 56 5 69 15c13 9 20 21 20 35c0 19 -9 35 -27 46s-52 21 -103 30
c-91 15 -157 42 -196 79c-40 38 -60 92 -60 163c0 45 12 86 36 121c24 36 59 64 105 85s102 31 168 31c95 0 166 -16 212 -47s69 -84 70 -159l-206 -78c0 37 -6 65 -18 82c-12 18 -33 27 -64 27c-21 0 -37 -6 -47 -17c-12 -12 -17 -28 -17 -47c0 -20 9 -36 28 -48
s52 -23 101 -33c85 -17 145 -42 180 -76c35 -35 53 -84 53 -147c0 -53 -14 -97 -41 -131c-27 -36 -66 -62 -114 -80c-50 -17 -106 -26 -170 -26zM534 876l-94 -167h-218l-94 167h148l55 -82l55 82h148z" />
    <glyph glyph-name="Scedilla.swsh" horiz-adv-x="646" 
d="M304 -110c-57 0 -106 8 -150 22c-42 16 -76 36 -100 62c-23 26 -35 55 -35 88c0 15 1 27 2 36s3 17 4 23l202 53c-2 -9 -3 -16 -5 -22c0 -6 -1 -12 -1 -19c0 -22 8 -39 24 -51c16 -11 43 -17 80 -17c33 0 56 5 69 15c13 9 20 21 20 35c0 19 -9 35 -27 46s-52 21 -103 30
c-91 15 -157 42 -196 79c-40 38 -60 92 -60 163c0 45 12 86 36 121c24 36 59 64 105 85s102 31 168 31c95 0 166 -16 212 -47s69 -84 70 -159l-206 -78c0 37 -6 65 -18 82c-12 18 -33 27 -64 27c-21 0 -37 -6 -47 -17c-12 -12 -17 -28 -17 -47c0 -20 9 -36 28 -48
s52 -23 101 -33c85 -17 145 -42 180 -76c35 -35 53 -84 53 -147c0 -53 -14 -97 -41 -131c-27 -36 -66 -62 -114 -80c-50 -17 -106 -26 -170 -26zM216 -86l40 28c121 -8 182 -50 182 -126c0 -41 -13 -74 -40 -96c-27 -24 -65 -35 -114 -35c-29 0 -51 3 -66 9s-29 13 -41 20
l33 97c7 -5 15 -8 24 -11s19 -4 32 -4c16 0 29 4 38 13c10 9 15 20 15 35c0 14 -7 27 -22 38s-42 22 -81 32z" />
    <glyph glyph-name="uni0218.swsh" horiz-adv-x="646" 
d="M304 -110c-57 0 -106 8 -150 22c-42 16 -76 36 -100 62c-23 26 -35 55 -35 88c0 15 1 27 2 36s3 17 4 23l202 53c-2 -9 -3 -16 -5 -22c0 -6 -1 -12 -1 -19c0 -22 8 -39 24 -51c16 -11 43 -17 80 -17c33 0 56 5 69 15c13 9 20 21 20 35c0 19 -9 35 -27 46s-52 21 -103 30
c-91 15 -157 42 -196 79c-40 38 -60 92 -60 163c0 45 12 86 36 121c24 36 59 64 105 85s102 31 168 31c95 0 166 -16 212 -47s69 -84 70 -159l-206 -78c0 37 -6 65 -18 82c-12 18 -33 27 -64 27c-21 0 -37 -6 -47 -17c-12 -12 -17 -28 -17 -47c0 -20 9 -36 28 -48
s52 -23 101 -33c85 -17 145 -42 180 -76c35 -35 53 -84 53 -147c0 -53 -14 -97 -41 -131c-27 -36 -66 -62 -114 -80c-50 -17 -106 -26 -170 -26zM423 -150l-75 -193h-142l24 193h193z" />
    <glyph glyph-name="T.swsh" horiz-adv-x="845" 
d="M227 212c-43 1 -81 12 -114 30c-33 20 -58 46 -76 79s-27 72 -27 115c0 71 22 126 67 166c45 38 111 58 200 58h548v-171h-206v-489h-233v489h-99c-27 0 -45 -6 -57 -17c-10 -12 -16 -25 -16 -40c0 -18 6 -34 16 -48c12 -13 31 -21 60 -22z" />
    <glyph glyph-name="Tcaron.swsh" horiz-adv-x="845" 
d="M227 212c-43 1 -81 12 -114 30c-33 20 -58 46 -76 79s-27 72 -27 115c0 71 22 126 67 166c45 38 111 58 200 58h548v-171h-206v-489h-233v489h-99c-27 0 -45 -6 -57 -17c-10 -12 -16 -25 -16 -40c0 -18 6 -34 16 -48c12 -13 31 -21 60 -22zM705 876l-94 -167h-218
l-94 167h148l55 -82l55 82h148z" />
    <glyph glyph-name="uni0162.swsh" horiz-adv-x="845" 
d="M227 212c-43 1 -81 12 -114 30c-33 20 -58 46 -76 79s-27 72 -27 115c0 71 22 126 67 166c45 38 111 58 200 58h548v-171h-206v-485c23 -21 34 -50 34 -87c0 -33 -7 -60 -22 -79s-34 -33 -59 -41c-24 -8 -51 -12 -80 -12c-37 0 -66 5 -88 14s-39 20 -51 31l56 100
c7 -9 16 -17 25 -22c10 -6 24 -9 41 -9c15 0 28 4 39 11c11 8 17 21 17 39c0 17 -7 29 -19 38c-14 9 -32 13 -55 13h-71v489h-99c-27 0 -45 -6 -57 -17c-10 -12 -16 -25 -16 -40c0 -18 6 -34 16 -48c12 -13 31 -21 60 -22z" />
    <glyph glyph-name="uni021A.swsh" horiz-adv-x="845" 
d="M227 212c-43 1 -81 12 -114 30c-33 20 -58 46 -76 79s-27 72 -27 115c0 71 22 126 67 166c45 38 111 58 200 58h548v-171h-206v-489h-233v489h-99c-27 0 -45 -6 -57 -17c-10 -12 -16 -25 -16 -40c0 -18 6 -34 16 -48c12 -13 31 -21 60 -22zM604 -50l-75 -193h-142l24 193
h193z" />
    <glyph glyph-name="W.swsh" horiz-adv-x="1343" 
d="M227 212c-43 0 -80 9 -113 28s-58 45 -76 78c-19 34 -28 73 -28 118c0 71 22 126 67 166c45 38 111 58 200 58h288l77 -477l93 477h200l98 -474l75 474h242l-188 -660h-247l-52 248l-26 169h-3l-26 -169l-51 -248h-256l-140 494h-79c-27 0 -45 -6 -54 -19
s-14 -27 -14 -43c0 -18 6 -34 18 -48c13 -13 33 -21 61 -22z" />
    <glyph glyph-name="Adieresis.titl" horiz-adv-x="689" 
d="M641 480c-33 0 -58 8 -75 24c-18 16 -27 38 -27 67s9 52 27 67c17 16 42 24 75 24s59 -8 77 -24c19 -15 28 -38 28 -67s-9 -51 -28 -67c-18 -16 -44 -24 -77 -24zM44 480c-33 0 -58 8 -76 24c-17 16 -26 38 -26 67s9 52 26 67c18 16 43 24 76 24s59 -8 78 -24
c18 -15 27 -38 27 -67s-9 -51 -27 -67c-19 -16 -45 -24 -78 -24zM699 0h-238l-30 126h-178l-31 -126h-232l214 660h280zM288 271h109l-54 229z" />
    <glyph glyph-name="Odieresis.titl" horiz-adv-x="729" 
d="M365 670c105 0 187 -30 247 -89c58 -59 88 -143 88 -251s-30 -192 -88 -251c-60 -59 -142 -89 -247 -89c-69 0 -129 13 -179 40c-51 27 -90 65 -116 116c-28 51 -41 112 -41 184s13 133 41 184c26 51 65 89 116 116c50 27 110 40 179 40zM295 449c37 0 60 -13 69 -40
c9 27 31 40 67 40c4 0 8 0 12 -1c-15 31 -41 47 -78 47s-63 -15 -78 -46h8zM295 323c-10 0 -19 1 -28 4c1 -57 9 -98 25 -123c15 -26 40 -39 73 -39c34 0 59 13 74 39s23 68 23 125c-10 -3 -21 -5 -34 -5c-33 0 -54 13 -63 39c-9 -27 -33 -40 -70 -40z" />
    <glyph glyph-name="Udieresis.titl" horiz-adv-x="712" 
d="M675 660v-376c0 -196 -106 -294 -319 -294s-319 98 -319 294v376h234v-1c7 2 16 3 25 3c33 0 56 -11 67 -33c11 22 32 33 63 33c8 0 15 -1 21 -2h228zM293 537c-8 0 -15 1 -22 3v-274c0 -67 28 -101 85 -101s86 34 86 101v271c-5 -1 -10 -1 -16 -1c-32 0 -53 11 -64 33
c-11 -21 -34 -32 -69 -32z" />
    <glyph glyph-name="Adieresis.titl.rvrn" horiz-adv-x="689" 
d="M124 502c-29 0 -52 7 -68 21s-24 34 -24 59s8 45 24 59s39 21 68 21c21 0 38 -4 53 -11l-47 -149h-6zM564 502h-6l-47 149c15 7 32 11 53 11c29 0 52 -7 68 -21s24 -34 24 -59s-8 -45 -24 -59s-39 -21 -68 -21zM699 0h-238l-30 126h-178l-31 -126h-232l214 660h280z
M288 271h109l-54 229z" />
    <glyph glyph-name="Odieresis.titl.rvrn" horiz-adv-x="729" 
d="M663 542c-13 23 -31 44 -53 63s-44 34 -67 45c15 13 35 20 60 20c27 0 48 -6 63 -19s22 -30 22 -53c0 -24 -8 -43 -25 -56zM187 650c-24 -12 -47 -27 -67 -46c-22 -18 -39 -38 -52 -60c-15 13 -23 31 -23 53c0 23 7 41 21 54c15 13 34 19 59 19c27 0 47 -7 62 -20z
M365 670c105 0 187 -30 247 -89c58 -59 88 -143 88 -251s-30 -192 -88 -251c-60 -59 -142 -89 -247 -89c-69 0 -129 13 -179 40c-51 27 -90 65 -116 116c-28 51 -41 112 -41 184s13 133 41 184c26 51 65 89 116 116c50 27 110 40 179 40zM365 495c-34 0 -59 -13 -75 -39
c-15 -27 -23 -69 -23 -126s8 -99 23 -126c16 -26 41 -39 75 -39s59 13 74 39c15 27 23 69 23 126s-8 99 -23 126c-15 26 -40 39 -74 39z" />
    <glyph glyph-name="Udieresis.titl.rvrn" horiz-adv-x="712" 
d="M352 537c-21 0 -37 6 -49 17s-18 27 -18 46s6 34 19 46c12 10 29 16 51 16c23 0 41 -6 54 -16c13 -12 19 -27 19 -46c0 -21 -7 -36 -20 -47s-32 -16 -56 -16zM675 660v-376c0 -196 -106 -294 -319 -294s-319 98 -319 294v376h234v-394c0 -67 28 -101 85 -101
s86 34 86 101v394h233zM355 394c-22 0 -39 6 -51 17c-13 11 -19 26 -19 45c0 20 6 36 19 47c12 11 29 17 51 17c23 0 41 -6 54 -17s19 -27 19 -47c0 -19 -6 -34 -19 -45s-31 -17 -54 -17z" />
    <glyph glyph-name="E.swsh.001" horiz-adv-x="887" 
d="M50 660h590v-171h-357v-82h194v-158h-194v-78h337c42 0 63 15 63 44c0 13 -5 25 -17 34c-10 9 -30 16 -59 19l73 134c71 -11 121 -34 152 -69c30 -35 45 -77 45 -126c0 -51 -9 -91 -28 -121c-19 -31 -45 -53 -79 -66s-74 -20 -120 -20h-600v660z" />
    <glyph glyph-name="Eacute.swsh.001" horiz-adv-x="887" 
d="M50 660h590v-171h-357v-82h194v-158h-194v-78h337c42 0 63 15 63 44c0 13 -5 25 -17 34c-10 9 -30 16 -59 19l73 134c71 -11 121 -34 152 -69c30 -35 45 -77 45 -126c0 -51 -9 -91 -28 -121c-19 -31 -45 -53 -79 -66s-74 -20 -120 -20h-600v660zM280 876h196l-91 -167
h-163z" />
    <glyph glyph-name="Ecaron.swsh.001" horiz-adv-x="887" 
d="M50 660h590v-171h-357v-82h194v-158h-194v-78h337c42 0 63 15 63 44c0 13 -5 25 -17 34c-10 9 -30 16 -59 19l73 134c71 -11 121 -34 152 -69c30 -35 45 -77 45 -126c0 -51 -9 -91 -28 -121c-19 -31 -45 -53 -79 -66s-74 -20 -120 -20h-600v660zM516 876l-94 -167h-218
l-94 167h148l55 -82l55 82h148z" />
    <glyph glyph-name="Ecircumflex.swsh.001" horiz-adv-x="887" 
d="M50 660h590v-171h-357v-82h194v-158h-194v-78h337c42 0 63 15 63 44c0 13 -5 25 -17 34c-10 9 -30 16 -59 19l73 134c71 -11 121 -34 152 -69c30 -35 45 -77 45 -126c0 -51 -9 -91 -28 -121c-19 -31 -45 -53 -79 -66s-74 -20 -120 -20h-600v660zM516 709h-148l-55 82
l-55 -82h-148l94 167h218z" />
    <glyph glyph-name="Edieresis.swsh.001" horiz-adv-x="887" 
d="M50 660h590v-171h-357v-82h194v-158h-194v-78h337c42 0 63 15 63 44c0 13 -5 25 -17 34c-10 9 -30 16 -59 19l73 134c71 -11 121 -34 152 -69c30 -35 45 -77 45 -126c0 -51 -9 -91 -28 -121c-19 -31 -45 -53 -79 -66s-74 -20 -120 -20h-600v660zM193 880
c33 0 59 -8 77 -24c19 -15 28 -38 28 -67s-9 -51 -28 -67c-18 -16 -44 -24 -77 -24s-58 8 -75 24c-18 16 -27 38 -27 67s9 52 27 67c17 16 42 24 75 24zM430 880c33 0 59 -8 78 -24c18 -15 27 -38 27 -67s-9 -51 -27 -67c-19 -16 -45 -24 -78 -24s-58 8 -76 24
c-17 16 -26 38 -26 67s9 52 26 67c18 16 43 24 76 24z" />
    <glyph glyph-name="Edotaccent.swsh.001" horiz-adv-x="887" 
d="M50 660h590v-171h-357v-82h194v-158h-194v-78h337c42 0 63 15 63 44c0 13 -5 25 -17 34c-10 9 -30 16 -59 19l73 134c71 -11 121 -34 152 -69c30 -35 45 -77 45 -126c0 -51 -9 -91 -28 -121c-19 -31 -45 -53 -79 -66s-74 -20 -120 -20h-600v660zM313 886
c77 0 115 -31 115 -94s-38 -94 -115 -94c-75 0 -112 31 -112 94s37 94 112 94z" />
    <glyph glyph-name="Egrave.swsh.001" horiz-adv-x="887" 
d="M50 660h590v-171h-357v-82h194v-158h-194v-78h337c42 0 63 15 63 44c0 13 -5 25 -17 34c-10 9 -30 16 -59 19l73 134c71 -11 121 -34 152 -69c30 -35 45 -77 45 -126c0 -51 -9 -91 -28 -121c-19 -31 -45 -53 -79 -66s-74 -20 -120 -20h-600v660zM346 876l58 -167h-163
l-91 167h196z" />
    <glyph glyph-name="Emacron.swsh.001" horiz-adv-x="887" 
d="M50 660h590v-171h-357v-82h194v-158h-194v-78h337c42 0 63 15 63 44c0 13 -5 25 -17 34c-10 9 -30 16 -59 19l73 134c71 -11 121 -34 152 -69c30 -35 45 -77 45 -126c0 -51 -9 -91 -28 -121c-19 -31 -45 -53 -79 -66s-74 -20 -120 -20h-600v660zM507 841v-130h-388v130
h388z" />
    <glyph glyph-name="M.swsh.001" horiz-adv-x="1215" 
d="M227 212c-65 2 -117 23 -157 62s-60 93 -60 162c0 71 22 126 67 166c45 38 111 58 200 58h366l76 -293l29 -123h2l29 123l76 293h310v-660h-203v229l3 222h-3l-128 -451h-186l-126 451h-4l3 -222v-229h-204v494h-40c-23 0 -40 -6 -49 -19s-14 -27 -14 -43
c0 -18 6 -34 20 -48c12 -13 31 -21 56 -22z" />
    <glyph glyph-name="R.swsh.001" horiz-adv-x="781" 
d="M50 0v660h358c178 0 267 -74 267 -221c0 -103 -45 -170 -134 -201l79 -102c29 -37 55 -64 80 -81s52 -28 81 -31l-128 -126c-39 0 -72 10 -101 28c-28 20 -52 43 -71 70l-155 223h-48v-219h-228zM361 494h-83v-122h83c29 0 50 4 63 14c12 8 18 24 18 47
c0 22 -6 38 -18 47c-13 9 -34 14 -63 14z" />
    <glyph glyph-name="Racute.swsh.001" horiz-adv-x="781" 
d="M50 0v660h358c178 0 267 -74 267 -221c0 -103 -45 -170 -134 -201l79 -102c29 -37 55 -64 80 -81s52 -28 81 -31l-128 -126c-39 0 -72 10 -101 28c-28 20 -52 43 -71 70l-155 223h-48v-219h-228zM361 494h-83v-122h83c29 0 50 4 63 14c12 8 18 24 18 47
c0 22 -6 38 -18 47c-13 9 -34 14 -63 14zM301 876h196l-91 -167h-163z" />
    <glyph glyph-name="Rcaron.swsh.001" horiz-adv-x="781" 
d="M50 0v660h358c178 0 267 -74 267 -221c0 -103 -45 -170 -134 -201l79 -102c29 -37 55 -64 80 -81s52 -28 81 -31l-128 -126c-39 0 -72 10 -101 28c-28 20 -52 43 -71 70l-155 223h-48v-219h-228zM361 494h-83v-122h83c29 0 50 4 63 14c12 8 18 24 18 47
c0 22 -6 38 -18 47c-13 9 -34 14 -63 14zM537 876l-94 -167h-218l-94 167h148l55 -82l55 82h148z" />
    <glyph glyph-name="uni0156.swsh.001" horiz-adv-x="781" 
d="M50 0v660h358c178 0 267 -74 267 -221c0 -103 -45 -170 -134 -201l79 -102c29 -37 55 -64 80 -81s52 -28 81 -31l-128 -126c-39 0 -72 10 -101 28c-28 20 -52 43 -71 70l-155 223h-48v-219h-228zM361 494h-83v-122h83c29 0 50 4 63 14c12 8 18 24 18 47
c0 22 -6 38 -18 47c-13 9 -34 14 -63 14zM481 -50l-75 -193h-142l24 193h193z" />
    <glyph glyph-name="T_h" horiz-adv-x="1306" 
d="M666 660v-171h-206v-489h-233v489h-207v171h646zM725 0v700h230v-302c13 36 33 64 59 83c27 19 59 29 97 29c49 0 88 -15 115 -44c28 -29 42 -71 42 -124v-342h-230v282c0 23 -3 38 -8 46c-6 9 -15 13 -27 13c-32 0 -48 -26 -48 -79v-262h-230z" />
    <glyph glyph-name="Iacute_J.loclNLD.ss05" horiz-adv-x="682" 
d="M510 876h196l-91 -167h-163zM139 876h196l-91 -167h-163zM341 -10c-66 0 -122 10 -167 28c-46 20 -80 48 -102 86c-21 39 -29 87 -22 144h234c-3 -29 1 -50 11 -63s28 -20 53 -20c23 0 40 8 50 23c11 15 16 41 16 77v395h233v-388c0 -89 -27 -158 -81 -208
c-55 -49 -130 -74 -225 -74zM50 292v368h233v-368h-233z" />
    <glyph glyph-name="a" unicode="a" 
d="M310 312c0 33 -14 49 -43 49c-14 0 -26 -4 -35 -12s-15 -24 -16 -48l-194 28c5 55 29 99 72 132s106 49 189 49c87 0 151 -18 193 -52c41 -36 62 -82 62 -139v-155c0 -27 13 -41 39 -41c7 0 13 1 17 3l-10 -118c-25 -12 -54 -18 -89 -18c-39 0 -72 7 -99 20
s-46 34 -55 61c-13 -24 -34 -43 -63 -59c-29 -14 -61 -22 -98 -22c-53 0 -93 12 -122 36c-28 23 -42 56 -42 97c0 37 12 67 35 89c23 24 57 39 101 48l158 33v19zM232 157c0 -11 3 -19 10 -26s16 -10 28 -10c11 0 21 4 28 12c8 8 12 19 12 34v44l-39 -9
c-26 -7 -39 -22 -39 -45z" />
    <glyph glyph-name="aacute" unicode="&#xe1;" 
d="M310 312c0 33 -14 49 -43 49c-14 0 -26 -4 -35 -12s-15 -24 -16 -48l-194 28c5 55 29 99 72 132s106 49 189 49c87 0 151 -18 193 -52c41 -36 62 -82 62 -139v-155c0 -27 13 -41 39 -41c7 0 13 1 17 3l-10 -118c-25 -12 -54 -18 -89 -18c-39 0 -72 7 -99 20
s-46 34 -55 61c-13 -24 -34 -43 -63 -59c-29 -14 -61 -22 -98 -22c-53 0 -93 12 -122 36c-28 23 -42 56 -42 97c0 37 12 67 35 89c23 24 57 39 101 48l158 33v19zM232 157c0 -11 3 -19 10 -26s16 -10 28 -10c11 0 21 4 28 12c8 8 12 19 12 34v44l-39 -9
c-26 -7 -39 -22 -39 -45zM242 730h205l-103 -177h-162z" />
    <glyph glyph-name="abreve" unicode="&#x103;" 
d="M310 312c0 33 -14 49 -43 49c-14 0 -26 -4 -35 -12s-15 -24 -16 -48l-194 28c5 55 29 99 72 132s106 49 189 49c87 0 151 -18 193 -52c41 -36 62 -82 62 -139v-155c0 -27 13 -41 39 -41c7 0 13 1 17 3l-10 -118c-25 -12 -54 -18 -89 -18c-39 0 -72 7 -99 20
s-46 34 -55 61c-13 -24 -34 -43 -63 -59c-29 -14 -61 -22 -98 -22c-53 0 -93 12 -122 36c-28 23 -42 56 -42 97c0 37 12 67 35 89c23 24 57 39 101 48l158 33v19zM232 157c0 -11 3 -19 10 -26s16 -10 28 -10c11 0 21 4 28 12c8 8 12 19 12 34v44l-39 -9
c-26 -7 -39 -22 -39 -45zM460 713c0 -55 -16 -97 -48 -127c-33 -31 -78 -46 -135 -46s-101 15 -134 46c-33 30 -49 72 -49 127h139c0 -37 15 -55 44 -55s44 18 44 55h139z" />
    <glyph glyph-name="uni1EAF" unicode="&#x1eaf;" 
d="M192 720l52 151h176l-82 -151h-146zM442 696c0 -50 -15 -88 -44 -116c-29 -26 -70 -40 -121 -40s-92 14 -121 40c-29 28 -44 66 -44 116h125c0 -33 13 -50 40 -50s40 17 40 50h125zM310 312c0 33 -14 49 -43 49c-14 0 -26 -4 -35 -12s-15 -24 -16 -48l-194 28
c5 55 29 99 72 132s106 49 189 49c87 0 151 -18 193 -52c41 -36 62 -82 62 -139v-155c0 -27 13 -41 39 -41c7 0 13 1 17 3l-10 -118c-25 -12 -54 -18 -89 -18c-39 0 -72 7 -99 20s-46 34 -55 61c-13 -24 -34 -43 -63 -59c-29 -14 -61 -22 -98 -22c-53 0 -93 12 -122 36
c-28 23 -42 56 -42 97c0 37 12 67 35 89c23 24 57 39 101 48l158 33v19zM232 157c0 -11 3 -19 10 -26s16 -10 28 -10c11 0 21 4 28 12c8 8 12 19 12 34v44l-39 -9c-26 -7 -39 -22 -39 -45z" />
    <glyph glyph-name="uni1EB7" unicode="&#x1eb7;" 
d="M310 312c0 33 -14 49 -43 49c-14 0 -26 -4 -35 -12s-15 -24 -16 -48l-194 28c5 55 29 99 72 132s106 49 189 49c87 0 151 -18 193 -52c41 -36 62 -82 62 -139v-155c0 -27 13 -41 39 -41c7 0 13 1 17 3l-10 -118c-25 -12 -54 -18 -89 -18c-39 0 -72 7 -99 20
s-46 34 -55 61c-13 -24 -34 -43 -63 -59c-29 -14 -61 -22 -98 -22c-53 0 -93 12 -122 36c-28 23 -42 56 -42 97c0 37 12 67 35 89c23 24 57 39 101 48l158 33v19zM232 157c0 -11 3 -19 10 -26s16 -10 28 -10c11 0 21 4 28 12c8 8 12 19 12 34v44l-39 -9
c-26 -7 -39 -22 -39 -45zM284 -226c-75 0 -112 31 -112 94s37 94 112 94c77 0 115 -31 115 -94s-38 -94 -115 -94zM460 713c0 -55 -16 -97 -48 -127c-33 -31 -78 -46 -135 -46s-101 15 -134 46c-33 30 -49 72 -49 127h139c0 -37 15 -55 44 -55s44 18 44 55h139z" />
    <glyph glyph-name="uni1EB1" unicode="&#x1eb1;" 
d="M363 720h-147l-82 151h176zM442 696c0 -50 -15 -88 -44 -116c-29 -26 -70 -40 -121 -40s-92 14 -121 40c-29 28 -44 66 -44 116h125c0 -33 13 -50 40 -50s40 17 40 50h125zM310 312c0 33 -14 49 -43 49c-14 0 -26 -4 -35 -12s-15 -24 -16 -48l-194 28c5 55 29 99 72 132
s106 49 189 49c87 0 151 -18 193 -52c41 -36 62 -82 62 -139v-155c0 -27 13 -41 39 -41c7 0 13 1 17 3l-10 -118c-25 -12 -54 -18 -89 -18c-39 0 -72 7 -99 20s-46 34 -55 61c-13 -24 -34 -43 -63 -59c-29 -14 -61 -22 -98 -22c-53 0 -93 12 -122 36c-28 23 -42 56 -42 97
c0 37 12 67 35 89c23 24 57 39 101 48l158 33v19zM232 157c0 -11 3 -19 10 -26s16 -10 28 -10c11 0 21 4 28 12c8 8 12 19 12 34v44l-39 -9c-26 -7 -39 -22 -39 -45z" />
    <glyph glyph-name="uni1EB3" unicode="&#x1eb3;" 
d="M278 703l-39 57c17 6 29 13 36 20s10 14 10 21c0 18 -9 27 -27 27c-9 0 -15 -2 -20 -6c-5 -5 -8 -11 -11 -18l-89 38c7 28 22 50 46 65c23 15 52 23 86 23c21 0 40 -4 60 -12c18 -7 34 -18 46 -34c12 -14 18 -34 18 -57c0 -27 -6 -48 -20 -65c-12 -17 -28 -30 -46 -38
c-18 -10 -35 -16 -50 -21zM442 696c0 -50 -15 -88 -44 -116c-29 -26 -70 -40 -121 -40s-92 14 -121 40c-29 28 -44 66 -44 116h125c0 -33 13 -50 40 -50s40 17 40 50h125zM310 312c0 33 -14 49 -43 49c-14 0 -26 -4 -35 -12s-15 -24 -16 -48l-194 28c5 55 29 99 72 132
s106 49 189 49c87 0 151 -18 193 -52c41 -36 62 -82 62 -139v-155c0 -27 13 -41 39 -41c7 0 13 1 17 3l-10 -118c-25 -12 -54 -18 -89 -18c-39 0 -72 7 -99 20s-46 34 -55 61c-13 -24 -34 -43 -63 -59c-29 -14 -61 -22 -98 -22c-53 0 -93 12 -122 36c-28 23 -42 56 -42 97
c0 37 12 67 35 89c23 24 57 39 101 48l158 33v19zM232 157c0 -11 3 -19 10 -26s16 -10 28 -10c11 0 21 4 28 12c8 8 12 19 12 34v44l-39 -9c-26 -7 -39 -22 -39 -45z" />
    <glyph glyph-name="uni1EB5" unicode="&#x1eb5;" 
d="M466 875c-1 -54 -14 -94 -38 -119c-23 -26 -50 -39 -80 -39c-23 0 -41 4 -56 11s-27 15 -38 22c-11 8 -21 12 -32 12c-16 0 -25 -14 -28 -43h-106c1 54 14 94 39 119c25 26 54 39 89 39c22 0 40 -4 52 -11c14 -8 25 -16 34 -23s20 -11 31 -11c15 0 24 14 27 43h106z
M441 696c0 -50 -15 -88 -44 -116c-29 -26 -70 -40 -121 -40s-92 14 -121 40c-29 28 -44 66 -44 116h125c0 -33 13 -50 40 -50s40 17 40 50h125zM310 312c0 33 -14 49 -43 49c-14 0 -26 -4 -35 -12s-15 -24 -16 -48l-194 28c5 55 29 99 72 132s106 49 189 49
c87 0 151 -18 193 -52c41 -36 62 -82 62 -139v-155c0 -27 13 -41 39 -41c7 0 13 1 17 3l-10 -118c-25 -12 -54 -18 -89 -18c-39 0 -72 7 -99 20s-46 34 -55 61c-13 -24 -34 -43 -63 -59c-29 -14 -61 -22 -98 -22c-53 0 -93 12 -122 36c-28 23 -42 56 -42 97
c0 37 12 67 35 89c23 24 57 39 101 48l158 33v19zM232 157c0 -11 3 -19 10 -26s16 -10 28 -10c11 0 21 4 28 12c8 8 12 19 12 34v44l-39 -9c-26 -7 -39 -22 -39 -45z" />
    <glyph glyph-name="acircumflex" unicode="&#xe2;" 
d="M310 312c0 33 -14 49 -43 49c-14 0 -26 -4 -35 -12s-15 -24 -16 -48l-194 28c5 55 29 99 72 132s106 49 189 49c87 0 151 -18 193 -52c41 -36 62 -82 62 -139v-155c0 -27 13 -41 39 -41c7 0 13 1 17 3l-10 -118c-25 -12 -54 -18 -89 -18c-39 0 -72 7 -99 20
s-46 34 -55 61c-13 -24 -34 -43 -63 -59c-29 -14 -61 -22 -98 -22c-53 0 -93 12 -122 36c-28 23 -42 56 -42 97c0 37 12 67 35 89c23 24 57 39 101 48l158 33v19zM232 157c0 -11 3 -19 10 -26s16 -10 28 -10c11 0 21 4 28 12c8 8 12 19 12 34v44l-39 -9
c-26 -7 -39 -22 -39 -45zM490 547h-156l-57 71l-57 -71h-156l106 177h214z" />
    <glyph glyph-name="uni1EA5" unicode="&#x1ea5;" 
d="M494 792h177l-82 -150h-147zM469 547h-141l-51 64l-51 -64h-141l96 160h192zM310 312c0 33 -14 49 -43 49c-14 0 -26 -4 -35 -12s-15 -24 -16 -48l-194 28c5 55 29 99 72 132s106 49 189 49c87 0 151 -18 193 -52c41 -36 62 -82 62 -139v-155c0 -27 13 -41 39 -41
c7 0 13 1 17 3l-10 -118c-25 -12 -54 -18 -89 -18c-39 0 -72 7 -99 20s-46 34 -55 61c-13 -24 -34 -43 -63 -59c-29 -14 -61 -22 -98 -22c-53 0 -93 12 -122 36c-28 23 -42 56 -42 97c0 37 12 67 35 89c23 24 57 39 101 48l158 33v19zM232 157c0 -11 3 -19 10 -26
s16 -10 28 -10c11 0 21 4 28 12c8 8 12 19 12 34v44l-39 -9c-26 -7 -39 -22 -39 -45z" />
    <glyph glyph-name="uni1EAD" unicode="&#x1ead;" 
d="M310 312c0 33 -14 49 -43 49c-14 0 -26 -4 -35 -12s-15 -24 -16 -48l-194 28c5 55 29 99 72 132s106 49 189 49c87 0 151 -18 193 -52c41 -36 62 -82 62 -139v-155c0 -27 13 -41 39 -41c7 0 13 1 17 3l-10 -118c-25 -12 -54 -18 -89 -18c-39 0 -72 7 -99 20
s-46 34 -55 61c-13 -24 -34 -43 -63 -59c-29 -14 -61 -22 -98 -22c-53 0 -93 12 -122 36c-28 23 -42 56 -42 97c0 37 12 67 35 89c23 24 57 39 101 48l158 33v19zM232 157c0 -11 3 -19 10 -26s16 -10 28 -10c11 0 21 4 28 12c8 8 12 19 12 34v44l-39 -9
c-26 -7 -39 -22 -39 -45zM284 -226c-75 0 -112 31 -112 94s37 94 112 94c77 0 115 -31 115 -94s-38 -94 -115 -94zM490 547h-156l-57 71l-57 -71h-156l106 177h214z" />
    <glyph glyph-name="uni1EA7" unicode="&#x1ea7;" 
d="M554 792l52 -150h-147l-82 150h177zM469 547h-141l-51 64l-51 -64h-141l96 160h192zM310 312c0 33 -14 49 -43 49c-14 0 -26 -4 -35 -12s-15 -24 -16 -48l-194 28c5 55 29 99 72 132s106 49 189 49c87 0 151 -18 193 -52c41 -36 62 -82 62 -139v-155c0 -27 13 -41 39 -41
c7 0 13 1 17 3l-10 -118c-25 -12 -54 -18 -89 -18c-39 0 -72 7 -99 20s-46 34 -55 61c-13 -24 -34 -43 -63 -59c-29 -14 -61 -22 -98 -22c-53 0 -93 12 -122 36c-28 23 -42 56 -42 97c0 37 12 67 35 89c23 24 57 39 101 48l158 33v19zM232 157c0 -11 3 -19 10 -26
s16 -10 28 -10c11 0 21 4 28 12c8 8 12 19 12 34v44l-39 -9c-26 -7 -39 -22 -39 -45z" />
    <glyph glyph-name="uni1EA9" unicode="&#x1ea9;" 
d="M464 628l-43 62c19 7 33 15 40 23s11 16 11 23c0 9 -2 16 -8 21c-4 5 -12 8 -22 8c-9 0 -16 -2 -22 -7c-4 -5 -9 -11 -12 -19l-98 42c7 31 24 54 50 71s58 25 95 25c23 0 45 -4 65 -12c22 -8 39 -20 52 -37s20 -38 20 -64c0 -29 -7 -52 -22 -70c-14 -19 -31 -33 -51 -44
c-20 -10 -38 -17 -55 -22zM469 547h-141l-51 64l-51 -64h-141l96 160h192zM310 312c0 33 -14 49 -43 49c-14 0 -26 -4 -35 -12s-15 -24 -16 -48l-194 28c5 55 29 99 72 132s106 49 189 49c87 0 151 -18 193 -52c41 -36 62 -82 62 -139v-155c0 -27 13 -41 39 -41
c7 0 13 1 17 3l-10 -118c-25 -12 -54 -18 -89 -18c-39 0 -72 7 -99 20s-46 34 -55 61c-13 -24 -34 -43 -63 -59c-29 -14 -61 -22 -98 -22c-53 0 -93 12 -122 36c-28 23 -42 56 -42 97c0 37 12 67 35 89c23 24 57 39 101 48l158 33v19zM232 157c0 -11 3 -19 10 -26
s16 -10 28 -10c11 0 21 4 28 12c8 8 12 19 12 34v44l-39 -9c-26 -7 -39 -22 -39 -45z" />
    <glyph glyph-name="uni1EAB" unicode="&#x1eab;" 
d="M467 887c-1 -54 -14 -94 -37 -119c-24 -26 -51 -39 -81 -39c-23 0 -41 4 -56 11s-27 15 -38 22c-11 8 -21 12 -32 12c-16 0 -25 -14 -28 -43h-106c1 54 14 94 39 119c25 26 54 39 89 39c22 0 39 -4 53 -11c12 -8 24 -16 33 -23s20 -11 31 -11c15 0 24 14 27 43h106z
M469 547h-141l-51 64l-51 -64h-141l96 160h192zM310 312c0 33 -14 49 -43 49c-14 0 -26 -4 -35 -12s-15 -24 -16 -48l-194 28c5 55 29 99 72 132s106 49 189 49c87 0 151 -18 193 -52c41 -36 62 -82 62 -139v-155c0 -27 13 -41 39 -41c7 0 13 1 17 3l-10 -118
c-25 -12 -54 -18 -89 -18c-39 0 -72 7 -99 20s-46 34 -55 61c-13 -24 -34 -43 -63 -59c-29 -14 -61 -22 -98 -22c-53 0 -93 12 -122 36c-28 23 -42 56 -42 97c0 37 12 67 35 89c23 24 57 39 101 48l158 33v19zM232 157c0 -11 3 -19 10 -26s16 -10 28 -10c11 0 21 4 28 12
c8 8 12 19 12 34v44l-39 -9c-26 -7 -39 -22 -39 -45z" />
    <glyph glyph-name="uni0201" unicode="&#x201;" 
d="M310 312c0 33 -14 49 -43 49c-14 0 -26 -4 -35 -12s-15 -24 -16 -48l-194 28c5 55 29 99 72 132s106 49 189 49c87 0 151 -18 193 -52c41 -36 62 -82 62 -139v-155c0 -27 13 -41 39 -41c7 0 13 1 17 3l-10 -118c-25 -12 -54 -18 -89 -18c-39 0 -72 7 -99 20
s-46 34 -55 61c-13 -24 -34 -43 -63 -59c-29 -14 -61 -22 -98 -22c-53 0 -93 12 -122 36c-28 23 -42 56 -42 97c0 37 12 67 35 89c23 24 57 39 101 48l158 33v19zM232 157c0 -11 3 -19 10 -26s16 -10 28 -10c11 0 21 4 28 12c8 8 12 19 12 34v44l-39 -9
c-26 -7 -39 -22 -39 -45zM244 553h-153l-93 177h181zM480 553h-153l-93 177h181z" />
    <glyph glyph-name="adieresis" unicode="&#xe4;" 
d="M310 312c0 33 -14 49 -43 49c-14 0 -26 -4 -35 -12s-15 -24 -16 -48l-194 28c5 55 29 99 72 132s106 49 189 49c87 0 151 -18 193 -52c41 -36 62 -82 62 -139v-155c0 -27 13 -41 39 -41c7 0 13 1 17 3l-10 -118c-25 -12 -54 -18 -89 -18c-39 0 -72 7 -99 20
s-46 34 -55 61c-13 -24 -34 -43 -63 -59c-29 -14 -61 -22 -98 -22c-53 0 -93 12 -122 36c-28 23 -42 56 -42 97c0 37 12 67 35 89c23 24 57 39 101 48l158 33v19zM232 157c0 -11 3 -19 10 -26s16 -10 28 -10c11 0 21 4 28 12c8 8 12 19 12 34v44l-39 -9
c-26 -7 -39 -22 -39 -45zM157 720c33 0 59 -8 77 -24c19 -15 28 -38 28 -67s-9 -51 -28 -67c-18 -16 -44 -24 -77 -24s-58 8 -75 24c-18 16 -27 38 -27 67s9 52 27 67c17 16 42 24 75 24zM394 720c33 0 59 -8 78 -24c18 -15 27 -38 27 -67s-9 -51 -27 -67
c-19 -16 -45 -24 -78 -24s-58 8 -76 24c-17 16 -26 38 -26 67s9 52 26 67c18 16 43 24 76 24z" />
    <glyph glyph-name="uni1EA1" unicode="&#x1ea1;" 
d="M310 312c0 33 -14 49 -43 49c-14 0 -26 -4 -35 -12s-15 -24 -16 -48l-194 28c5 55 29 99 72 132s106 49 189 49c87 0 151 -18 193 -52c41 -36 62 -82 62 -139v-155c0 -27 13 -41 39 -41c7 0 13 1 17 3l-10 -118c-25 -12 -54 -18 -89 -18c-39 0 -72 7 -99 20
s-46 34 -55 61c-13 -24 -34 -43 -63 -59c-29 -14 -61 -22 -98 -22c-53 0 -93 12 -122 36c-28 23 -42 56 -42 97c0 37 12 67 35 89c23 24 57 39 101 48l158 33v19zM232 157c0 -11 3 -19 10 -26s16 -10 28 -10c11 0 21 4 28 12c8 8 12 19 12 34v44l-39 -9
c-26 -7 -39 -22 -39 -45zM284 -226c-75 0 -112 31 -112 94s37 94 112 94c77 0 115 -31 115 -94s-38 -94 -115 -94z" />
    <glyph glyph-name="agrave" unicode="&#xe0;" 
d="M310 312c0 33 -14 49 -43 49c-14 0 -26 -4 -35 -12s-15 -24 -16 -48l-194 28c5 55 29 99 72 132s106 49 189 49c87 0 151 -18 193 -52c41 -36 62 -82 62 -139v-155c0 -27 13 -41 39 -41c7 0 13 1 17 3l-10 -118c-25 -12 -54 -18 -89 -18c-39 0 -72 7 -99 20
s-46 34 -55 61c-13 -24 -34 -43 -63 -59c-29 -14 -61 -22 -98 -22c-53 0 -93 12 -122 36c-28 23 -42 56 -42 97c0 37 12 67 35 89c23 24 57 39 101 48l158 33v19zM232 157c0 -11 3 -19 10 -26s16 -10 28 -10c11 0 21 4 28 12c8 8 12 19 12 34v44l-39 -9
c-26 -7 -39 -22 -39 -45zM300 730l60 -177h-162l-103 177h205z" />
    <glyph glyph-name="uni1EA3" unicode="&#x1ea3;" 
d="M310 312c0 33 -14 49 -43 49c-14 0 -26 -4 -35 -12s-15 -24 -16 -48l-194 28c5 55 29 99 72 132s106 49 189 49c87 0 151 -18 193 -52c41 -36 62 -82 62 -139v-155c0 -27 13 -41 39 -41c7 0 13 1 17 3l-10 -118c-25 -12 -54 -18 -89 -18c-39 0 -72 7 -99 20
s-46 34 -55 61c-13 -24 -34 -43 -63 -59c-29 -14 -61 -22 -98 -22c-53 0 -93 12 -122 36c-28 23 -42 56 -42 97c0 37 12 67 35 89c23 24 57 39 101 48l158 33v19zM232 157c0 -11 3 -19 10 -26s16 -10 28 -10c11 0 21 4 28 12c8 8 12 19 12 34v44l-39 -9
c-26 -7 -39 -22 -39 -45zM278 540l-43 62c19 7 33 15 40 23s11 16 11 23c0 9 -2 16 -8 21c-4 5 -12 8 -22 8c-9 0 -16 -2 -22 -7c-4 -5 -9 -11 -12 -19l-98 42c7 31 24 54 50 71s58 25 95 25c23 0 45 -4 65 -12c22 -8 39 -20 52 -37s20 -38 20 -64c0 -29 -7 -52 -22 -70
c-14 -19 -31 -33 -51 -44c-20 -10 -38 -17 -55 -22z" />
    <glyph glyph-name="uni0203" unicode="&#x203;" 
d="M310 312c0 33 -14 49 -43 49c-14 0 -26 -4 -35 -12s-15 -24 -16 -48l-194 28c5 55 29 99 72 132s106 49 189 49c87 0 151 -18 193 -52c41 -36 62 -82 62 -139v-155c0 -27 13 -41 39 -41c7 0 13 1 17 3l-10 -118c-25 -12 -54 -18 -89 -18c-39 0 -72 7 -99 20
s-46 34 -55 61c-13 -24 -34 -43 -63 -59c-29 -14 -61 -22 -98 -22c-53 0 -93 12 -122 36c-28 23 -42 56 -42 97c0 37 12 67 35 89c23 24 57 39 101 48l158 33v19zM232 157c0 -11 3 -19 10 -26s16 -10 28 -10c11 0 21 4 28 12c8 8 12 19 12 34v44l-39 -9
c-26 -7 -39 -22 -39 -45zM460 540h-139c0 37 -15 55 -44 55s-44 -18 -44 -55h-139c0 55 16 98 49 128s77 45 134 45s102 -15 135 -45c32 -30 48 -73 48 -128z" />
    <glyph glyph-name="amacron" unicode="&#x101;" 
d="M310 312c0 33 -14 49 -43 49c-14 0 -26 -4 -35 -12s-15 -24 -16 -48l-194 28c5 55 29 99 72 132s106 49 189 49c87 0 151 -18 193 -52c41 -36 62 -82 62 -139v-155c0 -27 13 -41 39 -41c7 0 13 1 17 3l-10 -118c-25 -12 -54 -18 -89 -18c-39 0 -72 7 -99 20
s-46 34 -55 61c-13 -24 -34 -43 -63 -59c-29 -14 -61 -22 -98 -22c-53 0 -93 12 -122 36c-28 23 -42 56 -42 97c0 37 12 67 35 89c23 24 57 39 101 48l158 33v19zM232 157c0 -11 3 -19 10 -26s16 -10 28 -10c11 0 21 4 28 12c8 8 12 19 12 34v44l-39 -9
c-26 -7 -39 -22 -39 -45zM471 681v-130h-388v130h388z" />
    <glyph glyph-name="aogonek" unicode="&#x105;" 
d="M310 312c0 33 -14 49 -43 49c-14 0 -26 -4 -35 -12s-15 -24 -16 -48l-194 28c5 55 29 99 72 132s106 49 189 49c87 0 151 -18 193 -52c41 -36 62 -82 62 -139v-155c0 -27 13 -41 39 -41c7 0 13 1 17 3l-10 -118c-9 -4 -18 -7 -27 -10c-29 -12 -47 -22 -55 -31
s-12 -18 -12 -29c0 -10 4 -18 10 -24c8 -7 17 -10 30 -10c6 0 13 1 20 2c8 1 14 3 18 6l18 -108c-23 -14 -57 -21 -100 -21c-23 0 -45 4 -67 13c-22 8 -40 21 -54 38c-14 18 -21 41 -21 69c0 23 6 43 17 61c11 16 27 30 47 40c-34 14 -56 36 -67 67c-13 -24 -34 -43 -63 -59
c-29 -14 -61 -22 -98 -22c-53 0 -93 12 -122 36c-28 23 -42 56 -42 97c0 37 12 67 35 89c23 24 57 39 101 48l158 33v19zM232 157c0 -11 3 -19 10 -26s16 -10 28 -10c11 0 21 4 28 12c8 8 12 19 12 34v44l-39 -9c-26 -7 -39 -22 -39 -45z" />
    <glyph glyph-name="aring" unicode="&#xe5;" 
d="M310 312c0 33 -14 49 -43 49c-14 0 -26 -4 -35 -12s-15 -24 -16 -48l-194 28c5 55 29 99 72 132s106 49 189 49c87 0 151 -18 193 -52c41 -36 62 -82 62 -139v-155c0 -27 13 -41 39 -41c7 0 13 1 17 3l-10 -118c-25 -12 -54 -18 -89 -18c-39 0 -72 7 -99 20
s-46 34 -55 61c-13 -24 -34 -43 -63 -59c-29 -14 -61 -22 -98 -22c-53 0 -93 12 -122 36c-28 23 -42 56 -42 97c0 37 12 67 35 89c23 24 57 39 101 48l158 33v19zM232 157c0 -11 3 -19 10 -26s16 -10 28 -10c11 0 21 4 28 12c8 8 12 19 12 34v44l-39 -9
c-26 -7 -39 -22 -39 -45zM277 796c45 0 81 -12 109 -36c26 -23 40 -55 40 -95s-14 -72 -40 -95c-28 -23 -64 -35 -109 -35s-81 12 -109 35c-26 23 -40 55 -40 95s14 72 40 95c28 24 64 36 109 36zM277 707c-13 0 -23 -4 -31 -11c-7 -7 -11 -18 -11 -31s4 -23 11 -30
c8 -7 18 -11 31 -11s24 4 31 11s11 17 11 30s-4 24 -11 31s-18 11 -31 11z" />
    <glyph glyph-name="aringacute" unicode="&#x1fb;" 
d="M310 312c0 33 -14 49 -43 49c-14 0 -26 -4 -35 -12s-15 -24 -16 -48l-194 28c5 55 29 99 72 132s106 49 189 49c87 0 151 -18 193 -52c41 -36 62 -82 62 -139v-155c0 -27 13 -41 39 -41c7 0 13 1 17 3l-10 -118c-25 -12 -54 -18 -89 -18c-39 0 -72 7 -99 20
s-46 34 -55 61c-13 -24 -34 -43 -63 -59c-29 -14 -61 -22 -98 -22c-53 0 -93 12 -122 36c-28 23 -42 56 -42 97c0 37 12 67 35 89c23 24 57 39 101 48l158 33v19zM232 157c0 -11 3 -19 10 -26s16 -10 28 -10c11 0 21 4 28 12c8 8 12 19 12 34v44l-39 -9
c-26 -7 -39 -22 -39 -45zM277 796c45 0 81 -12 109 -36c26 -23 40 -55 40 -95s-14 -72 -40 -95c-28 -23 -64 -35 -109 -35s-81 12 -109 35c-26 23 -40 55 -40 95s14 72 40 95c28 24 64 36 109 36zM277 707c-13 0 -23 -4 -31 -11c-7 -7 -11 -18 -11 -31s4 -23 11 -30
c8 -7 18 -11 31 -11s24 4 31 11s11 17 11 30s-4 24 -11 31s-18 11 -31 11zM199 827l58 167h196l-91 -167h-163z" />
    <glyph glyph-name="atilde" unicode="&#xe3;" 
d="M310 312c0 33 -14 49 -43 49c-14 0 -26 -4 -35 -12s-15 -24 -16 -48l-194 28c5 55 29 99 72 132s106 49 189 49c87 0 151 -18 193 -52c41 -36 62 -82 62 -139v-155c0 -27 13 -41 39 -41c7 0 13 1 17 3l-10 -118c-25 -12 -54 -18 -89 -18c-39 0 -72 7 -99 20
s-46 34 -55 61c-13 -24 -34 -43 -63 -59c-29 -14 -61 -22 -98 -22c-53 0 -93 12 -122 36c-28 23 -42 56 -42 97c0 37 12 67 35 89c23 24 57 39 101 48l158 33v19zM232 157c0 -11 3 -19 10 -26s16 -10 28 -10c11 0 21 4 28 12c8 8 12 19 12 34v44l-39 -9
c-26 -7 -39 -22 -39 -45zM487 719c-1 -40 -7 -73 -20 -99s-29 -45 -49 -58c-19 -13 -40 -19 -62 -19c-25 0 -45 4 -62 13c-17 8 -31 16 -42 24c-12 9 -24 13 -36 13c-18 0 -28 -16 -31 -48h-118c1 60 16 104 43 133s60 43 99 43c25 0 44 -4 59 -13c14 -8 26 -16 37 -24
c11 -9 22 -13 34 -13c17 0 27 16 30 48h118z" />
    <glyph glyph-name="ae" unicode="&#xe6;" horiz-adv-x="870" 
d="M197 -10c-62 0 -108 12 -137 36c-29 25 -44 59 -44 103c0 35 12 64 36 85c24 22 57 37 100 46l159 32v17c0 35 -15 52 -46 52c-13 0 -23 -4 -33 -12c-8 -8 -14 -24 -16 -48l-194 29c4 33 16 64 36 90c20 28 48 49 83 66c35 16 77 24 126 24c79 0 138 -20 178 -60
c43 40 96 60 161 60c81 0 143 -22 184 -67c42 -45 63 -104 63 -177c0 -11 -1 -22 -1 -33c-2 -11 -3 -20 -4 -27h-317c5 -26 14 -43 28 -51s31 -12 50 -12c17 0 29 4 35 11c7 8 12 19 15 32l185 -50c-7 -33 -22 -60 -46 -82c-22 -21 -50 -37 -83 -48s-67 -16 -104 -16
c-99 0 -168 35 -205 104c-15 -29 -39 -54 -72 -74s-78 -30 -137 -30zM530 291h108c-2 22 -7 39 -14 50s-19 17 -36 17s-30 -5 -39 -14c-9 -10 -16 -28 -19 -53zM268 121c11 0 21 4 30 11s13 21 13 40v40l-39 -10c-13 -3 -22 -7 -30 -14c-6 -7 -10 -17 -10 -32
c0 -11 4 -19 10 -26c8 -6 16 -9 26 -9z" />
    <glyph glyph-name="aeacute" unicode="&#x1fd;" horiz-adv-x="870" 
d="M197 -10c-62 0 -108 12 -137 36c-29 25 -44 59 -44 103c0 35 12 64 36 85c24 22 57 37 100 46l159 32v17c0 35 -15 52 -46 52c-13 0 -23 -4 -33 -12c-8 -8 -14 -24 -16 -48l-194 29c4 33 16 64 36 90c20 28 48 49 83 66c35 16 77 24 126 24c79 0 138 -20 178 -60
c43 40 96 60 161 60c81 0 143 -22 184 -67c42 -45 63 -104 63 -177c0 -11 -1 -22 -1 -33c-2 -11 -3 -20 -4 -27h-317c5 -26 14 -43 28 -51s31 -12 50 -12c17 0 29 4 35 11c7 8 12 19 15 32l185 -50c-7 -33 -22 -60 -46 -82c-22 -21 -50 -37 -83 -48s-67 -16 -104 -16
c-99 0 -168 35 -205 104c-15 -29 -39 -54 -72 -74s-78 -30 -137 -30zM530 291h108c-2 22 -7 39 -14 50s-19 17 -36 17s-30 -5 -39 -14c-9 -10 -16 -28 -19 -53zM268 121c11 0 21 4 30 11s13 21 13 40v40l-39 -10c-13 -3 -22 -7 -30 -14c-6 -7 -10 -17 -10 -32
c0 -11 4 -19 10 -26c8 -6 16 -9 26 -9zM385 730h205l-103 -177h-162z" />
    <glyph glyph-name="b" unicode="b" horiz-adv-x="627" 
d="M411 -10c-41 0 -75 12 -103 35s-48 54 -61 92l-6 -117h-202v700h230v-284c13 29 31 52 56 68c25 18 56 26 95 26c56 0 100 -23 133 -69s49 -111 49 -194c0 -81 -16 -145 -50 -189c-32 -46 -80 -68 -141 -68zM318 151c16 0 29 7 38 20s14 40 14 79s-5 66 -14 78
c-9 14 -22 20 -38 20c-33 0 -49 -33 -49 -98c0 -35 4 -60 13 -76c9 -15 21 -23 36 -23z" />
    <glyph glyph-name="c" unicode="c" horiz-adv-x="571" 
d="M297 510c61 0 111 -8 150 -26c39 -16 67 -38 85 -64c19 -26 28 -53 29 -80l-212 -62c0 27 -3 46 -9 58c-7 13 -18 19 -33 19c-20 0 -34 -8 -43 -23s-13 -44 -13 -85c0 -29 3 -50 7 -65c6 -15 12 -24 21 -30c9 -4 18 -7 29 -7c27 0 42 22 45 66l206 -64
c-1 -28 -11 -54 -32 -77c-21 -24 -49 -43 -87 -58c-36 -15 -80 -22 -131 -22c-91 0 -161 23 -213 68c-50 45 -76 109 -76 192c0 55 12 102 34 141c24 39 56 68 98 89c41 20 90 30 145 30z" />
    <glyph glyph-name="cacute" unicode="&#x107;" horiz-adv-x="571" 
d="M297 510c61 0 111 -8 150 -26c39 -16 67 -38 85 -64c19 -26 28 -53 29 -80l-212 -62c0 27 -3 46 -9 58c-7 13 -18 19 -33 19c-20 0 -34 -8 -43 -23s-13 -44 -13 -85c0 -29 3 -50 7 -65c6 -15 12 -24 21 -30c9 -4 18 -7 29 -7c27 0 42 22 45 66l206 -64
c-1 -28 -11 -54 -32 -77c-21 -24 -49 -43 -87 -58c-36 -15 -80 -22 -131 -22c-91 0 -161 23 -213 68c-50 45 -76 109 -76 192c0 55 12 102 34 141c24 39 56 68 98 89c41 20 90 30 145 30zM262 730h205l-103 -177h-162z" />
    <glyph glyph-name="ccaron" unicode="&#x10d;" horiz-adv-x="571" 
d="M297 510c61 0 111 -8 150 -26c39 -16 67 -38 85 -64c19 -26 28 -53 29 -80l-212 -62c0 27 -3 46 -9 58c-7 13 -18 19 -33 19c-20 0 -34 -8 -43 -23s-13 -44 -13 -85c0 -29 3 -50 7 -65c6 -15 12 -24 21 -30c9 -4 18 -7 29 -7c27 0 42 22 45 66l206 -64
c-1 -28 -11 -54 -32 -77c-21 -24 -49 -43 -87 -58c-36 -15 -80 -22 -131 -22c-91 0 -161 23 -213 68c-50 45 -76 109 -76 192c0 55 12 102 34 141c24 39 56 68 98 89c41 20 90 30 145 30zM504 730l-106 -177h-214l-106 177h156l57 -71l57 71h156z" />
    <glyph glyph-name="ccedilla" unicode="&#xe7;" horiz-adv-x="571" 
d="M297 510c61 0 111 -8 150 -26c39 -16 67 -38 85 -64c19 -26 28 -53 29 -80l-212 -62c0 27 -3 46 -9 58c-7 13 -18 19 -33 19c-20 0 -34 -8 -43 -23s-13 -44 -13 -85c0 -29 3 -50 7 -65c6 -15 12 -24 21 -30c9 -4 18 -7 29 -7c27 0 42 22 45 66l206 -64
c-1 -28 -11 -54 -32 -77c-21 -24 -49 -43 -87 -58c-36 -15 -80 -22 -131 -22c-91 0 -161 23 -213 68c-50 45 -76 109 -76 192c0 55 12 102 34 141c24 39 56 68 98 89c41 20 90 30 145 30zM207 14l40 28c121 -8 182 -50 182 -126c0 -41 -13 -74 -40 -96
c-27 -24 -65 -35 -114 -35c-29 0 -51 3 -66 9s-29 13 -41 20l33 97c7 -5 15 -8 24 -11s19 -4 32 -4c16 0 29 4 39 13c9 9 14 20 14 35c0 14 -7 27 -22 38s-42 22 -81 32z" />
    <glyph glyph-name="uni1E09" unicode="&#x1e09;" horiz-adv-x="571" 
d="M297 510c61 0 111 -8 150 -26c39 -16 67 -38 85 -64c19 -26 28 -53 29 -80l-212 -62c0 27 -3 46 -9 58c-7 13 -18 19 -33 19c-20 0 -34 -8 -43 -23s-13 -44 -13 -85c0 -29 3 -50 7 -65c6 -15 12 -24 21 -30c9 -4 18 -7 29 -7c27 0 42 22 45 66l206 -64
c-1 -28 -11 -54 -32 -77c-21 -24 -49 -43 -87 -58c-36 -15 -80 -22 -131 -22c-91 0 -161 23 -213 68c-50 45 -76 109 -76 192c0 55 12 102 34 141c24 39 56 68 98 89c41 20 90 30 145 30zM207 14l40 28c121 -8 182 -50 182 -126c0 -41 -13 -74 -40 -96
c-27 -24 -65 -35 -114 -35c-29 0 -51 3 -66 9s-29 13 -41 20l33 97c7 -5 15 -8 24 -11s19 -4 32 -4c16 0 29 4 39 13c9 9 14 20 14 35c0 14 -7 27 -22 38s-42 22 -81 32zM262 730h205l-103 -177h-162z" />
    <glyph glyph-name="ccircumflex" unicode="&#x109;" horiz-adv-x="571" 
d="M297 510c61 0 111 -8 150 -26c39 -16 67 -38 85 -64c19 -26 28 -53 29 -80l-212 -62c0 27 -3 46 -9 58c-7 13 -18 19 -33 19c-20 0 -34 -8 -43 -23s-13 -44 -13 -85c0 -29 3 -50 7 -65c6 -15 12 -24 21 -30c9 -4 18 -7 29 -7c27 0 42 22 45 66l206 -64
c-1 -28 -11 -54 -32 -77c-21 -24 -49 -43 -87 -58c-36 -15 -80 -22 -131 -22c-91 0 -161 23 -213 68c-50 45 -76 109 -76 192c0 55 12 102 34 141c24 39 56 68 98 89c41 20 90 30 145 30zM510 547h-156l-57 71l-57 -71h-156l106 177h214z" />
    <glyph glyph-name="cdotaccent" unicode="&#x10b;" horiz-adv-x="571" 
d="M297 510c61 0 111 -8 150 -26c39 -16 67 -38 85 -64c19 -26 28 -53 29 -80l-212 -62c0 27 -3 46 -9 58c-7 13 -18 19 -33 19c-20 0 -34 -8 -43 -23s-13 -44 -13 -85c0 -29 3 -50 7 -65c6 -15 12 -24 21 -30c9 -4 18 -7 29 -7c27 0 42 22 45 66l206 -64
c-1 -28 -11 -54 -32 -77c-21 -24 -49 -43 -87 -58c-36 -15 -80 -22 -131 -22c-91 0 -161 23 -213 68c-50 45 -76 109 -76 192c0 55 12 102 34 141c24 39 56 68 98 89c41 20 90 30 145 30zM297 726c77 0 115 -31 115 -94s-38 -94 -115 -94c-75 0 -112 31 -112 94
s37 94 112 94z" />
    <glyph glyph-name="d" unicode="d" horiz-adv-x="627" 
d="M216 -10c-61 0 -108 22 -142 68c-32 44 -49 108 -49 189c0 83 17 148 51 194c33 46 80 69 141 69c35 0 64 -8 87 -26c23 -16 41 -39 54 -67v283h230v-700h-207l-7 99c-14 -33 -34 -59 -61 -79s-59 -30 -97 -30zM309 151c15 0 27 8 36 23c9 16 13 41 13 76
c0 65 -16 98 -49 98c-16 0 -29 -6 -38 -20c-9 -12 -14 -39 -14 -78s5 -66 14 -79s22 -20 38 -20z" />
    <glyph glyph-name="eth" unicode="&#xf0;" horiz-adv-x="593" 
d="M298 -10c-86 0 -153 22 -200 67s-71 108 -71 189c0 55 10 101 31 139c20 38 48 67 84 87c37 20 79 30 126 30c35 0 64 -7 86 -20s38 -32 49 -55c-6 29 -15 54 -27 77s-27 44 -44 65l-150 -26l-10 61l106 18c-17 15 -35 30 -56 46c-21 15 -43 32 -66 49h185
c15 -7 30 -17 47 -28s33 -25 50 -41l129 22l12 -58l-96 -16c25 -34 47 -74 63 -122c18 -46 26 -100 26 -161c0 -73 -12 -133 -37 -181c-25 -47 -58 -83 -99 -106c-41 -24 -87 -36 -138 -36zM306 145c19 0 33 7 40 21c7 15 11 41 11 80c0 45 -4 75 -11 92
c-7 16 -21 24 -40 24s-31 -8 -38 -24c-7 -17 -10 -47 -10 -92c0 -37 3 -64 10 -78c7 -16 19 -23 38 -23z" />
    <glyph glyph-name="dcaron" unicode="&#x10f;" horiz-adv-x="737" 
d="M808 700l-61 -267h-126l22 267h165zM216 -10c-61 0 -108 22 -142 68c-32 44 -49 108 -49 189c0 83 17 148 51 194c33 46 80 69 141 69c35 0 64 -8 87 -26c23 -16 41 -39 54 -67v283h230v-700h-207l-7 99c-14 -33 -34 -59 -61 -79s-59 -30 -97 -30zM309 151
c15 0 27 8 36 23c9 16 13 41 13 76c0 65 -16 98 -49 98c-16 0 -29 -6 -38 -20c-9 -12 -14 -39 -14 -78s5 -66 14 -79s22 -20 38 -20z" />
    <glyph glyph-name="dcroat" unicode="&#x111;" horiz-adv-x="627" 
d="M216 -10c-61 0 -108 22 -142 68c-32 44 -49 108 -49 189c0 83 17 148 51 194c33 46 80 69 141 69c35 0 64 -8 87 -26c23 -16 41 -39 54 -67v102h-112v121h112v60h230v-60h76v-121h-76v-519h-207l-7 99c-14 -33 -34 -59 -61 -79s-59 -30 -97 -30zM309 151c15 0 27 8 36 23
c9 16 13 41 13 76c0 65 -16 98 -49 98c-16 0 -29 -6 -38 -20c-9 -12 -14 -39 -14 -78s5 -66 14 -79s22 -20 38 -20z" />
    <glyph glyph-name="uni1E0D" unicode="&#x1e0d;" horiz-adv-x="627" 
d="M216 -10c-61 0 -108 22 -142 68c-32 44 -49 108 -49 189c0 83 17 148 51 194c33 46 80 69 141 69c35 0 64 -8 87 -26c23 -16 41 -39 54 -67v283h230v-700h-207l-7 99c-14 -33 -34 -59 -61 -79s-59 -30 -97 -30zM309 151c15 0 27 8 36 23c9 16 13 41 13 76
c0 65 -16 98 -49 98c-16 0 -29 -6 -38 -20c-9 -12 -14 -39 -14 -78s5 -66 14 -79s22 -20 38 -20zM310 -226c-75 0 -112 31 -112 94s37 94 112 94c77 0 115 -31 115 -94s-38 -94 -115 -94z" />
    <glyph glyph-name="uni1E0F" unicode="&#x1e0f;" horiz-adv-x="627" 
d="M216 -10c-61 0 -108 22 -142 68c-32 44 -49 108 -49 189c0 83 17 148 51 194c33 46 80 69 141 69c35 0 64 -8 87 -26c23 -16 41 -39 54 -67v283h230v-700h-207l-7 99c-14 -33 -34 -59 -61 -79s-59 -30 -97 -30zM309 151c15 0 27 8 36 23c9 16 13 41 13 76
c0 65 -16 98 -49 98c-16 0 -29 -6 -38 -20c-9 -12 -14 -39 -14 -78s5 -66 14 -79s22 -20 38 -20zM504 -51v-130h-388v130h388z" />
    <glyph glyph-name="uni01F3" unicode="&#x1f3;" horiz-adv-x="1131" 
d="M216 -10c-61 0 -108 22 -142 68c-32 44 -49 108 -49 189c0 83 17 148 51 194c33 46 80 69 141 69c35 0 64 -8 87 -26c23 -16 41 -39 54 -67v283h230v-700h-207l-7 99c-14 -33 -34 -59 -61 -79s-59 -30 -97 -30zM309 151c15 0 27 8 36 23c9 16 13 41 13 76
c0 65 -16 98 -49 98c-16 0 -29 -6 -38 -20c-9 -12 -14 -39 -14 -78s5 -66 14 -79s22 -20 38 -20zM648 0v132l156 172l47 46l-73 -2h-130v152h457v-132l-153 -170l-49 -48l82 2h130v-152h-467z" />
    <glyph glyph-name="uni01C6" unicode="&#x1c6;" horiz-adv-x="1131" 
d="M216 -10c-61 0 -108 22 -142 68c-32 44 -49 108 -49 189c0 83 17 148 51 194c33 46 80 69 141 69c35 0 64 -8 87 -26c23 -16 41 -39 54 -67v283h230v-700h-207l-7 99c-14 -33 -34 -59 -61 -79s-59 -30 -97 -30zM309 151c15 0 27 8 36 23c9 16 13 41 13 76
c0 65 -16 98 -49 98c-16 0 -29 -6 -38 -20c-9 -12 -14 -39 -14 -78s5 -66 14 -79s22 -20 38 -20zM648 0v132l156 172l47 46l-73 -2h-130v152h457v-132l-153 -170l-49 -48l82 2h130v-152h-467zM1085 730l-106 -177h-214l-106 177h156l57 -71l57 71h156z" />
    <glyph glyph-name="e" unicode="e" horiz-adv-x="580" 
d="M306 -10c-91 0 -161 23 -211 68s-75 109 -75 192c0 55 12 102 34 141c24 39 56 68 98 89c41 20 90 30 145 30c57 0 105 -10 145 -30c39 -21 69 -49 90 -86s31 -79 31 -128c0 -11 -1 -22 -1 -33c-2 -11 -3 -20 -4 -27h-318c3 -26 11 -43 22 -51s27 -12 47 -12
c33 0 53 14 60 43l185 -50c-7 -33 -24 -60 -49 -82c-25 -21 -55 -37 -91 -48c-34 -11 -71 -16 -108 -16zM298 358c-17 0 -30 -5 -40 -14c-8 -10 -15 -28 -18 -53h108c-2 22 -7 39 -14 50s-19 17 -36 17z" />
    <glyph glyph-name="eacute" unicode="&#xe9;" horiz-adv-x="580" 
d="M306 -10c-91 0 -161 23 -211 68s-75 109 -75 192c0 55 12 102 34 141c24 39 56 68 98 89c41 20 90 30 145 30c57 0 105 -10 145 -30c39 -21 69 -49 90 -86s31 -79 31 -128c0 -11 -1 -22 -1 -33c-2 -11 -3 -20 -4 -27h-318c3 -26 11 -43 22 -51s27 -12 47 -12
c33 0 53 14 60 43l185 -50c-7 -33 -24 -60 -49 -82c-25 -21 -55 -37 -91 -48c-34 -11 -71 -16 -108 -16zM298 358c-17 0 -30 -5 -40 -14c-8 -10 -15 -28 -18 -53h108c-2 22 -7 39 -14 50s-19 17 -36 17zM261 730h205l-103 -177h-162z" />
    <glyph glyph-name="ebreve" unicode="&#x115;" horiz-adv-x="580" 
d="M306 -10c-91 0 -161 23 -211 68s-75 109 -75 192c0 55 12 102 34 141c24 39 56 68 98 89c41 20 90 30 145 30c57 0 105 -10 145 -30c39 -21 69 -49 90 -86s31 -79 31 -128c0 -11 -1 -22 -1 -33c-2 -11 -3 -20 -4 -27h-318c3 -26 11 -43 22 -51s27 -12 47 -12
c33 0 53 14 60 43l185 -50c-7 -33 -24 -60 -49 -82c-25 -21 -55 -37 -91 -48c-34 -11 -71 -16 -108 -16zM298 358c-17 0 -30 -5 -40 -14c-8 -10 -15 -28 -18 -53h108c-2 22 -7 39 -14 50s-19 17 -36 17zM479 713c0 -55 -16 -97 -49 -127c-32 -31 -77 -46 -134 -46
s-101 15 -134 46c-33 30 -49 72 -49 127h139c0 -37 15 -55 44 -55s44 18 44 55h139z" />
    <glyph glyph-name="ecaron" unicode="&#x11b;" horiz-adv-x="580" 
d="M306 -10c-91 0 -161 23 -211 68s-75 109 -75 192c0 55 12 102 34 141c24 39 56 68 98 89c41 20 90 30 145 30c57 0 105 -10 145 -30c39 -21 69 -49 90 -86s31 -79 31 -128c0 -11 -1 -22 -1 -33c-2 -11 -3 -20 -4 -27h-318c3 -26 11 -43 22 -51s27 -12 47 -12
c33 0 53 14 60 43l185 -50c-7 -33 -24 -60 -49 -82c-25 -21 -55 -37 -91 -48c-34 -11 -71 -16 -108 -16zM298 358c-17 0 -30 -5 -40 -14c-8 -10 -15 -28 -18 -53h108c-2 22 -7 39 -14 50s-19 17 -36 17zM503 730l-106 -177h-214l-106 177h156l57 -71l57 71h156z" />
    <glyph glyph-name="uni1E1D" unicode="&#x1e1d;" horiz-adv-x="580" 
d="M306 -10c-91 0 -161 23 -211 68s-75 109 -75 192c0 55 12 102 34 141c24 39 56 68 98 89c41 20 90 30 145 30c57 0 105 -10 145 -30c39 -21 69 -49 90 -86s31 -79 31 -128c0 -11 -1 -22 -1 -33c-2 -11 -3 -20 -4 -27h-318c3 -26 11 -43 22 -51s27 -12 47 -12
c33 0 53 14 60 43l185 -50c-7 -33 -24 -60 -49 -82c-25 -21 -55 -37 -91 -48c-34 -11 -71 -16 -108 -16zM298 358c-17 0 -30 -5 -40 -14c-8 -10 -15 -28 -18 -53h108c-2 22 -7 39 -14 50s-19 17 -36 17zM208 14l40 28c121 -8 182 -50 182 -126c0 -41 -13 -74 -40 -96
c-27 -24 -65 -35 -114 -35c-29 0 -51 3 -66 9s-29 13 -41 20l33 97c7 -5 15 -8 24 -11s19 -4 32 -4c16 0 29 4 38 13c10 9 15 20 15 35c0 14 -7 27 -22 38s-42 22 -81 32zM479 713c0 -55 -16 -97 -49 -127c-32 -31 -77 -46 -134 -46s-101 15 -134 46c-33 30 -49 72 -49 127
h139c0 -37 15 -55 44 -55s44 18 44 55h139z" />
    <glyph glyph-name="ecircumflex" unicode="&#xea;" horiz-adv-x="580" 
d="M306 -10c-91 0 -161 23 -211 68s-75 109 -75 192c0 55 12 102 34 141c24 39 56 68 98 89c41 20 90 30 145 30c57 0 105 -10 145 -30c39 -21 69 -49 90 -86s31 -79 31 -128c0 -11 -1 -22 -1 -33c-2 -11 -3 -20 -4 -27h-318c3 -26 11 -43 22 -51s27 -12 47 -12
c33 0 53 14 60 43l185 -50c-7 -33 -24 -60 -49 -82c-25 -21 -55 -37 -91 -48c-34 -11 -71 -16 -108 -16zM298 358c-17 0 -30 -5 -40 -14c-8 -10 -15 -28 -18 -53h108c-2 22 -7 39 -14 50s-19 17 -36 17zM509 547h-156l-57 71l-57 -71h-156l106 177h214z" />
    <glyph glyph-name="uni1EBF" unicode="&#x1ebf;" horiz-adv-x="580" 
d="M513 792h177l-82 -150h-147zM488 547h-141l-51 64l-51 -64h-141l96 160h192zM306 -10c-91 0 -161 23 -211 68s-75 109 -75 192c0 55 12 102 34 141c24 39 56 68 98 89c41 20 90 30 145 30c57 0 105 -10 145 -30c39 -21 69 -49 90 -86s31 -79 31 -128c0 -11 -1 -22 -1 -33
c-2 -11 -3 -20 -4 -27h-318c3 -26 11 -43 22 -51s27 -12 47 -12c33 0 53 14 60 43l185 -50c-7 -33 -24 -60 -49 -82c-25 -21 -55 -37 -91 -48c-34 -11 -71 -16 -108 -16zM298 358c-17 0 -30 -5 -40 -14c-8 -10 -15 -28 -18 -53h108c-2 22 -7 39 -14 50s-19 17 -36 17z" />
    <glyph glyph-name="uni1EC7" unicode="&#x1ec7;" horiz-adv-x="580" 
d="M306 -10c-91 0 -161 23 -211 68s-75 109 -75 192c0 55 12 102 34 141c24 39 56 68 98 89c41 20 90 30 145 30c57 0 105 -10 145 -30c39 -21 69 -49 90 -86s31 -79 31 -128c0 -11 -1 -22 -1 -33c-2 -11 -3 -20 -4 -27h-318c3 -26 11 -43 22 -51s27 -12 47 -12
c33 0 53 14 60 43l185 -50c-7 -33 -24 -60 -49 -82c-25 -21 -55 -37 -91 -48c-34 -11 -71 -16 -108 -16zM298 358c-17 0 -30 -5 -40 -14c-8 -10 -15 -28 -18 -53h108c-2 22 -7 39 -14 50s-19 17 -36 17zM296 -226c-75 0 -112 31 -112 94s37 94 112 94c77 0 115 -31 115 -94
s-38 -94 -115 -94zM509 547h-156l-57 71l-57 -71h-156l106 177h214z" />
    <glyph glyph-name="uni1EC1" unicode="&#x1ec1;" horiz-adv-x="580" 
d="M573 792l52 -150h-147l-82 150h177zM488 547h-141l-51 64l-51 -64h-141l96 160h192zM306 -10c-91 0 -161 23 -211 68s-75 109 -75 192c0 55 12 102 34 141c24 39 56 68 98 89c41 20 90 30 145 30c57 0 105 -10 145 -30c39 -21 69 -49 90 -86s31 -79 31 -128
c0 -11 -1 -22 -1 -33c-2 -11 -3 -20 -4 -27h-318c3 -26 11 -43 22 -51s27 -12 47 -12c33 0 53 14 60 43l185 -50c-7 -33 -24 -60 -49 -82c-25 -21 -55 -37 -91 -48c-34 -11 -71 -16 -108 -16zM298 358c-17 0 -30 -5 -40 -14c-8 -10 -15 -28 -18 -53h108c-2 22 -7 39 -14 50
s-19 17 -36 17z" />
    <glyph glyph-name="uni1EC3" unicode="&#x1ec3;" horiz-adv-x="580" 
d="M483 628l-43 62c19 7 33 15 40 23s11 16 11 23c0 9 -3 16 -7 21c-6 5 -13 8 -23 8c-9 0 -17 -2 -21 -7c-6 -5 -10 -11 -13 -19l-98 42c7 31 24 54 50 71s58 25 95 25c23 0 44 -4 66 -12c20 -8 38 -20 51 -37s20 -38 20 -64c0 -29 -7 -52 -21 -70c-15 -19 -32 -33 -52 -44
c-20 -10 -38 -17 -55 -22zM488 547h-141l-51 64l-51 -64h-141l96 160h192zM306 -10c-91 0 -161 23 -211 68s-75 109 -75 192c0 55 12 102 34 141c24 39 56 68 98 89c41 20 90 30 145 30c57 0 105 -10 145 -30c39 -21 69 -49 90 -86s31 -79 31 -128c0 -11 -1 -22 -1 -33
c-2 -11 -3 -20 -4 -27h-318c3 -26 11 -43 22 -51s27 -12 47 -12c33 0 53 14 60 43l185 -50c-7 -33 -24 -60 -49 -82c-25 -21 -55 -37 -91 -48c-34 -11 -71 -16 -108 -16zM298 358c-17 0 -30 -5 -40 -14c-8 -10 -15 -28 -18 -53h108c-2 22 -7 39 -14 50s-19 17 -36 17z" />
    <glyph glyph-name="uni1EC5" unicode="&#x1ec5;" horiz-adv-x="580" 
d="M486 887c-1 -54 -14 -94 -38 -119c-23 -26 -50 -39 -80 -39c-23 0 -41 4 -56 11s-27 15 -38 22c-11 8 -21 12 -32 12c-16 0 -25 -14 -28 -43h-106c1 54 14 94 39 119c25 26 54 39 89 39c22 0 40 -4 52 -11c14 -8 25 -16 34 -23s20 -11 31 -11c15 0 24 14 27 43h106z
M488 547h-141l-51 64l-51 -64h-141l96 160h192zM306 -10c-91 0 -161 23 -211 68s-75 109 -75 192c0 55 12 102 34 141c24 39 56 68 98 89c41 20 90 30 145 30c57 0 105 -10 145 -30c39 -21 69 -49 90 -86s31 -79 31 -128c0 -11 -1 -22 -1 -33c-2 -11 -3 -20 -4 -27h-318
c3 -26 11 -43 22 -51s27 -12 47 -12c33 0 53 14 60 43l185 -50c-7 -33 -24 -60 -49 -82c-25 -21 -55 -37 -91 -48c-34 -11 -71 -16 -108 -16zM298 358c-17 0 -30 -5 -40 -14c-8 -10 -15 -28 -18 -53h108c-2 22 -7 39 -14 50s-19 17 -36 17z" />
    <glyph glyph-name="uni0205" unicode="&#x205;" horiz-adv-x="580" 
d="M306 -10c-91 0 -161 23 -211 68s-75 109 -75 192c0 55 12 102 34 141c24 39 56 68 98 89c41 20 90 30 145 30c57 0 105 -10 145 -30c39 -21 69 -49 90 -86s31 -79 31 -128c0 -11 -1 -22 -1 -33c-2 -11 -3 -20 -4 -27h-318c3 -26 11 -43 22 -51s27 -12 47 -12
c33 0 53 14 60 43l185 -50c-7 -33 -24 -60 -49 -82c-25 -21 -55 -37 -91 -48c-34 -11 -71 -16 -108 -16zM298 358c-17 0 -30 -5 -40 -14c-8 -10 -15 -28 -18 -53h108c-2 22 -7 39 -14 50s-19 17 -36 17zM263 553h-153l-93 177h181zM499 553h-153l-93 177h181z" />
    <glyph glyph-name="edieresis" unicode="&#xeb;" horiz-adv-x="580" 
d="M306 -10c-91 0 -161 23 -211 68s-75 109 -75 192c0 55 12 102 34 141c24 39 56 68 98 89c41 20 90 30 145 30c57 0 105 -10 145 -30c39 -21 69 -49 90 -86s31 -79 31 -128c0 -11 -1 -22 -1 -33c-2 -11 -3 -20 -4 -27h-318c3 -26 11 -43 22 -51s27 -12 47 -12
c33 0 53 14 60 43l185 -50c-7 -33 -24 -60 -49 -82c-25 -21 -55 -37 -91 -48c-34 -11 -71 -16 -108 -16zM298 358c-17 0 -30 -5 -40 -14c-8 -10 -15 -28 -18 -53h108c-2 22 -7 39 -14 50s-19 17 -36 17zM176 720c33 0 59 -8 78 -24c18 -15 27 -38 27 -67s-9 -51 -27 -67
c-19 -16 -45 -24 -78 -24s-58 8 -76 24c-17 16 -26 38 -26 67s9 52 26 67c18 16 43 24 76 24zM413 720c33 0 59 -8 77 -24c19 -15 28 -38 28 -67s-9 -51 -28 -67c-18 -16 -44 -24 -77 -24s-58 8 -75 24c-18 16 -27 38 -27 67s9 52 27 67c17 16 42 24 75 24z" />
    <glyph glyph-name="edotaccent" unicode="&#x117;" horiz-adv-x="580" 
d="M306 -10c-91 0 -161 23 -211 68s-75 109 -75 192c0 55 12 102 34 141c24 39 56 68 98 89c41 20 90 30 145 30c57 0 105 -10 145 -30c39 -21 69 -49 90 -86s31 -79 31 -128c0 -11 -1 -22 -1 -33c-2 -11 -3 -20 -4 -27h-318c3 -26 11 -43 22 -51s27 -12 47 -12
c33 0 53 14 60 43l185 -50c-7 -33 -24 -60 -49 -82c-25 -21 -55 -37 -91 -48c-34 -11 -71 -16 -108 -16zM298 358c-17 0 -30 -5 -40 -14c-8 -10 -15 -28 -18 -53h108c-2 22 -7 39 -14 50s-19 17 -36 17zM296 726c77 0 115 -31 115 -94s-38 -94 -115 -94
c-75 0 -112 31 -112 94s37 94 112 94z" />
    <glyph glyph-name="uni1EB9" unicode="&#x1eb9;" horiz-adv-x="580" 
d="M306 -10c-91 0 -161 23 -211 68s-75 109 -75 192c0 55 12 102 34 141c24 39 56 68 98 89c41 20 90 30 145 30c57 0 105 -10 145 -30c39 -21 69 -49 90 -86s31 -79 31 -128c0 -11 -1 -22 -1 -33c-2 -11 -3 -20 -4 -27h-318c3 -26 11 -43 22 -51s27 -12 47 -12
c33 0 53 14 60 43l185 -50c-7 -33 -24 -60 -49 -82c-25 -21 -55 -37 -91 -48c-34 -11 -71 -16 -108 -16zM298 358c-17 0 -30 -5 -40 -14c-8 -10 -15 -28 -18 -53h108c-2 22 -7 39 -14 50s-19 17 -36 17zM296 -226c-75 0 -112 31 -112 94s37 94 112 94c77 0 115 -31 115 -94
s-38 -94 -115 -94z" />
    <glyph glyph-name="egrave" unicode="&#xe8;" horiz-adv-x="580" 
d="M306 -10c-91 0 -161 23 -211 68s-75 109 -75 192c0 55 12 102 34 141c24 39 56 68 98 89c41 20 90 30 145 30c57 0 105 -10 145 -30c39 -21 69 -49 90 -86s31 -79 31 -128c0 -11 -1 -22 -1 -33c-2 -11 -3 -20 -4 -27h-318c3 -26 11 -43 22 -51s27 -12 47 -12
c33 0 53 14 60 43l185 -50c-7 -33 -24 -60 -49 -82c-25 -21 -55 -37 -91 -48c-34 -11 -71 -16 -108 -16zM298 358c-17 0 -30 -5 -40 -14c-8 -10 -15 -28 -18 -53h108c-2 22 -7 39 -14 50s-19 17 -36 17zM319 730l60 -177h-162l-103 177h205z" />
    <glyph glyph-name="uni1EBB" unicode="&#x1ebb;" horiz-adv-x="580" 
d="M306 -10c-91 0 -161 23 -211 68s-75 109 -75 192c0 55 12 102 34 141c24 39 56 68 98 89c41 20 90 30 145 30c57 0 105 -10 145 -30c39 -21 69 -49 90 -86s31 -79 31 -128c0 -11 -1 -22 -1 -33c-2 -11 -3 -20 -4 -27h-318c3 -26 11 -43 22 -51s27 -12 47 -12
c33 0 53 14 60 43l185 -50c-7 -33 -24 -60 -49 -82c-25 -21 -55 -37 -91 -48c-34 -11 -71 -16 -108 -16zM298 358c-17 0 -30 -5 -40 -14c-8 -10 -15 -28 -18 -53h108c-2 22 -7 39 -14 50s-19 17 -36 17zM297 540l-43 62c19 7 33 15 40 23s11 16 11 23c0 9 -3 16 -7 21
c-6 5 -13 8 -23 8c-9 0 -17 -2 -21 -7c-6 -5 -10 -11 -13 -19l-98 42c7 31 24 54 50 71s58 25 95 25c23 0 44 -4 66 -12c20 -8 38 -20 51 -37s20 -38 20 -64c0 -29 -7 -52 -21 -70c-15 -19 -32 -33 -52 -44c-20 -10 -38 -17 -55 -22z" />
    <glyph glyph-name="uni0207" unicode="&#x207;" horiz-adv-x="580" 
d="M306 -10c-91 0 -161 23 -211 68s-75 109 -75 192c0 55 12 102 34 141c24 39 56 68 98 89c41 20 90 30 145 30c57 0 105 -10 145 -30c39 -21 69 -49 90 -86s31 -79 31 -128c0 -11 -1 -22 -1 -33c-2 -11 -3 -20 -4 -27h-318c3 -26 11 -43 22 -51s27 -12 47 -12
c33 0 53 14 60 43l185 -50c-7 -33 -24 -60 -49 -82c-25 -21 -55 -37 -91 -48c-34 -11 -71 -16 -108 -16zM298 358c-17 0 -30 -5 -40 -14c-8 -10 -15 -28 -18 -53h108c-2 22 -7 39 -14 50s-19 17 -36 17zM479 540h-139c0 37 -15 55 -44 55s-44 -18 -44 -55h-139
c0 55 16 98 49 128s77 45 134 45s102 -15 134 -45c33 -30 49 -73 49 -128z" />
    <glyph glyph-name="emacron" unicode="&#x113;" horiz-adv-x="580" 
d="M306 -10c-91 0 -161 23 -211 68s-75 109 -75 192c0 55 12 102 34 141c24 39 56 68 98 89c41 20 90 30 145 30c57 0 105 -10 145 -30c39 -21 69 -49 90 -86s31 -79 31 -128c0 -11 -1 -22 -1 -33c-2 -11 -3 -20 -4 -27h-318c3 -26 11 -43 22 -51s27 -12 47 -12
c33 0 53 14 60 43l185 -50c-7 -33 -24 -60 -49 -82c-25 -21 -55 -37 -91 -48c-34 -11 -71 -16 -108 -16zM298 358c-17 0 -30 -5 -40 -14c-8 -10 -15 -28 -18 -53h108c-2 22 -7 39 -14 50s-19 17 -36 17zM490 681v-130h-388v130h388z" />
    <glyph glyph-name="uni1E17" unicode="&#x1e17;" horiz-adv-x="580" 
d="M306 -10c-91 0 -161 23 -211 68s-75 109 -75 192c0 55 12 102 34 141c24 39 56 68 98 89c41 20 90 30 145 30c57 0 105 -10 145 -30c39 -21 69 -49 90 -86s31 -79 31 -128c0 -11 -1 -22 -1 -33c-2 -11 -3 -20 -4 -27h-318c3 -26 11 -43 22 -51s27 -12 47 -12
c33 0 53 14 60 43l185 -50c-7 -33 -24 -60 -49 -82c-25 -21 -55 -37 -91 -48c-34 -11 -71 -16 -108 -16zM298 358c-17 0 -30 -5 -40 -14c-8 -10 -15 -28 -18 -53h108c-2 22 -7 39 -14 50s-19 17 -36 17zM490 681v-130h-388v130h388zM263 895h196l-91 -167h-163z" />
    <glyph glyph-name="uni1E15" unicode="&#x1e15;" horiz-adv-x="580" 
d="M306 -10c-91 0 -161 23 -211 68s-75 109 -75 192c0 55 12 102 34 141c24 39 56 68 98 89c41 20 90 30 145 30c57 0 105 -10 145 -30c39 -21 69 -49 90 -86s31 -79 31 -128c0 -11 -1 -22 -1 -33c-2 -11 -3 -20 -4 -27h-318c3 -26 11 -43 22 -51s27 -12 47 -12
c33 0 53 14 60 43l185 -50c-7 -33 -24 -60 -49 -82c-25 -21 -55 -37 -91 -48c-34 -11 -71 -16 -108 -16zM298 358c-17 0 -30 -5 -40 -14c-8 -10 -15 -28 -18 -53h108c-2 22 -7 39 -14 50s-19 17 -36 17zM490 681v-130h-388v130h388zM329 895l58 -167h-163l-91 167h196z" />
    <glyph glyph-name="eogonek" unicode="&#x119;" horiz-adv-x="580" 
d="M306 -10c-91 0 -161 23 -211 68s-75 109 -75 192c0 55 12 102 34 141c24 39 56 68 98 89c41 20 90 30 145 30c57 0 105 -10 145 -30c39 -21 69 -49 90 -86s31 -79 31 -128c0 -11 -1 -22 -1 -33c-2 -11 -3 -20 -4 -27h-318c3 -26 11 -43 22 -51s27 -12 47 -12
c33 0 53 14 60 43l185 -50c-7 -33 -24 -60 -49 -82c-25 -21 -55 -37 -91 -48c-34 -11 -71 -16 -108 -16zM298 358c-17 0 -30 -5 -40 -14c-8 -10 -15 -28 -18 -53h108c-2 22 -7 39 -14 50s-19 17 -36 17zM317 -218c-45 0 -80 10 -106 31s-39 49 -39 86c0 40 15 71 46 93
s70 34 118 37l82 -22c-32 -9 -57 -17 -76 -27c-18 -8 -27 -22 -27 -39c0 -25 16 -38 49 -38c7 0 15 1 22 2s13 3 18 6l21 -107c-15 -9 -31 -14 -47 -18c-17 -2 -37 -4 -61 -4z" />
    <glyph glyph-name="uni1EBD" unicode="&#x1ebd;" horiz-adv-x="580" 
d="M306 -10c-91 0 -161 23 -211 68s-75 109 -75 192c0 55 12 102 34 141c24 39 56 68 98 89c41 20 90 30 145 30c57 0 105 -10 145 -30c39 -21 69 -49 90 -86s31 -79 31 -128c0 -11 -1 -22 -1 -33c-2 -11 -3 -20 -4 -27h-318c3 -26 11 -43 22 -51s27 -12 47 -12
c33 0 53 14 60 43l185 -50c-7 -33 -24 -60 -49 -82c-25 -21 -55 -37 -91 -48c-34 -11 -71 -16 -108 -16zM298 358c-17 0 -30 -5 -40 -14c-8 -10 -15 -28 -18 -53h108c-2 22 -7 39 -14 50s-19 17 -36 17zM506 719c-1 -40 -7 -73 -20 -99s-29 -45 -48 -58
c-20 -13 -41 -19 -63 -19c-25 0 -45 4 -62 13c-17 8 -31 16 -43 24c-11 9 -23 13 -35 13c-18 0 -28 -16 -31 -48h-118c1 60 16 104 43 133s60 43 99 43c25 0 44 -4 58 -13c15 -8 27 -16 38 -24c11 -9 22 -13 34 -13c17 0 27 16 30 48h118z" />
    <glyph glyph-name="uni01DD" unicode="&#x1dd;" horiz-adv-x="580" 
d="M274 510c91 0 161 -22 211 -68c50 -44 75 -109 75 -192c0 -55 -12 -102 -34 -141c-24 -39 -56 -68 -97 -89c-41 -20 -90 -30 -145 -30c-57 0 -105 11 -144 32c-40 22 -70 52 -92 88c-20 38 -31 79 -31 124c0 11 1 22 1 34c2 10 3 19 4 26h318c-3 26 -11 43 -22 51
s-27 12 -47 12c-33 0 -53 -14 -60 -43l-185 50c11 29 28 55 54 76c24 22 54 39 88 52c33 12 69 18 106 18zM282 142c17 0 30 5 40 14c8 10 15 28 18 53h-108c2 -22 7 -39 14 -50s19 -17 36 -17z" />
    <glyph glyph-name="uni0259" unicode="&#x259;" horiz-adv-x="582" 
d="M286 -10c-86 0 -152 23 -197 68s-68 104 -68 177c0 15 1 29 3 44h319c-2 33 -9 54 -19 63c-12 10 -27 15 -46 15s-33 -5 -41 -16s-14 -23 -17 -36l-191 48c11 33 28 62 53 85s54 41 90 54c34 12 72 18 113 18c89 0 158 -22 205 -68c48 -44 72 -109 72 -192
s-24 -147 -72 -192s-116 -68 -204 -68zM290 142c13 0 24 4 32 12c9 7 15 21 18 40h-106c6 -35 25 -52 56 -52z" />
    <glyph glyph-name="f" unicode="f" horiz-adv-x="430" 
d="M426 500v-155h-126v-345h-230v345h-67v155h67v20c0 39 6 71 20 96c12 26 30 47 52 62s46 26 72 32c27 7 53 10 79 10c33 0 62 -3 87 -10s42 -14 53 -21l-15 -133c-7 3 -15 6 -24 10c-9 2 -22 4 -37 4c-21 0 -38 -4 -52 -12c-14 -9 -21 -25 -21 -50v-8h142z" />
    <glyph glyph-name="g" unicode="g" horiz-adv-x="578" 
d="M381 142c65 0 114 -13 148 -39s51 -65 51 -117c0 -71 -26 -122 -78 -154c-51 -31 -125 -47 -220 -47c-98 0 -167 10 -208 30s-61 50 -61 90c0 22 8 40 24 55c16 14 42 24 78 29c-30 10 -52 25 -65 43c-13 20 -20 42 -20 69c0 25 8 47 22 65c16 17 36 30 61 39
c-53 27 -80 72 -80 134c0 57 23 100 67 129c46 28 112 42 199 42c37 0 70 -2 99 -7c3 26 9 51 19 76s25 45 45 61c21 15 47 23 80 23h11c4 0 8 0 12 -1l12 -142c-7 1 -13 2 -19 3c-5 1 -11 1 -16 1c-19 0 -35 -4 -47 -12c-12 -9 -20 -19 -25 -30c63 -27 95 -75 95 -143
c0 -57 -23 -99 -67 -127c-46 -28 -112 -42 -199 -42c-43 0 -80 3 -113 10c-9 -3 -14 -9 -14 -17c0 -7 3 -12 10 -15c6 -4 16 -6 31 -6h168zM299 391c-28 0 -42 -17 -42 -51s14 -51 42 -51s42 17 42 51s-14 51 -42 51zM285 -76c83 0 125 10 125 29c0 9 -6 13 -19 13h-195
c-7 0 -12 -2 -15 -5s-5 -7 -5 -12c0 -9 10 -15 29 -19s46 -6 80 -6z" />
    <glyph glyph-name="gbreve" unicode="&#x11f;" horiz-adv-x="578" 
d="M472 713c0 -55 -16 -97 -48 -127c-33 -31 -78 -46 -135 -46s-101 15 -134 46c-33 30 -49 72 -49 127h139c0 -37 15 -55 44 -55s44 18 44 55h139zM381 142c65 0 114 -13 148 -39s51 -65 51 -117c0 -71 -26 -122 -78 -154c-51 -31 -125 -47 -220 -47c-98 0 -167 10 -208 30
s-61 50 -61 90c0 22 8 40 24 55c16 14 42 24 78 29c-30 10 -52 25 -65 43c-13 20 -20 42 -20 69c0 25 8 47 22 65c16 17 36 30 61 39c-53 27 -80 72 -80 134c0 57 23 100 67 129c46 28 112 42 199 42c51 0 95 -5 132 -15c3 32 11 61 25 85c12 26 29 45 50 60s44 22 70 22h2
l19 -142c-3 1 -5 1 -8 1h-9c-19 0 -36 -5 -50 -13c-16 -10 -26 -23 -31 -41c44 -29 66 -71 66 -128s-23 -99 -67 -127c-46 -28 -112 -42 -199 -42c-43 0 -80 3 -113 10c-9 -3 -14 -9 -14 -17c0 -7 3 -12 10 -15c6 -4 16 -6 31 -6h168zM299 391c-28 0 -42 -17 -42 -51
s14 -51 42 -51s42 17 42 51s-14 51 -42 51zM285 -76c83 0 125 10 125 29c0 9 -6 13 -19 13h-195c-7 0 -12 -2 -15 -5s-5 -7 -5 -12c0 -9 10 -15 29 -19s46 -6 80 -6z" />
    <glyph glyph-name="gcaron" unicode="&#x1e7;" horiz-adv-x="578" 
d="M381 142c65 0 114 -13 148 -39s51 -65 51 -117c0 -71 -26 -122 -78 -154c-51 -31 -125 -47 -220 -47c-98 0 -167 10 -208 30s-61 50 -61 90c0 22 8 40 24 55c16 14 42 24 78 29c-30 10 -52 25 -65 43c-13 20 -20 42 -20 69c0 25 8 47 22 65c16 17 36 30 61 39
c-53 27 -80 72 -80 134c0 57 23 100 67 129c46 28 112 42 199 42c37 0 70 -2 99 -7c3 26 9 51 19 76s25 45 45 61c21 15 47 23 80 23h11c4 0 8 0 12 -1l12 -142c-7 1 -13 2 -19 3c-5 1 -11 1 -16 1c-19 0 -35 -4 -47 -12c-12 -9 -20 -19 -25 -30c63 -27 95 -75 95 -143
c0 -57 -23 -99 -67 -127c-46 -28 -112 -42 -199 -42c-43 0 -80 3 -113 10c-9 -3 -14 -9 -14 -17c0 -7 3 -12 10 -15c6 -4 16 -6 31 -6h168zM299 391c-28 0 -42 -17 -42 -51s14 -51 42 -51s42 17 42 51s-14 51 -42 51zM285 -76c83 0 125 10 125 29c0 9 -6 13 -19 13h-195
c-7 0 -12 -2 -15 -5s-5 -7 -5 -12c0 -9 10 -15 29 -19s46 -6 80 -6zM462 730l-106 -177h-214l-106 177h156l57 -71l57 71h156z" />
    <glyph glyph-name="gcircumflex" unicode="&#x11d;" horiz-adv-x="578" 
d="M92 547l61 177h184l61 -177h-116l-37 84l-37 -84h-116zM381 142c65 0 114 -13 148 -39s51 -65 51 -117c0 -71 -26 -122 -78 -154c-51 -31 -125 -47 -220 -47c-98 0 -167 10 -208 30s-61 50 -61 90c0 22 8 40 24 55c16 14 42 24 78 29c-30 10 -52 25 -65 43
c-13 20 -20 42 -20 69c0 25 8 47 22 65c16 17 36 30 61 39c-53 27 -80 72 -80 134c0 57 23 100 67 129c46 28 112 42 199 42c51 0 95 -5 132 -15c3 32 11 61 25 85c12 26 29 45 50 60s44 22 70 22h2l19 -142c-3 1 -5 1 -8 1h-9c-19 0 -36 -5 -50 -13
c-16 -10 -26 -23 -31 -41c44 -29 66 -71 66 -128s-23 -99 -67 -127c-46 -28 -112 -42 -199 -42c-43 0 -80 3 -113 10c-9 -3 -14 -9 -14 -17c0 -7 3 -12 10 -15c6 -4 16 -6 31 -6h168zM299 391c-28 0 -42 -17 -42 -51s14 -51 42 -51s42 17 42 51s-14 51 -42 51zM285 -76
c83 0 125 10 125 29c0 9 -6 13 -19 13h-195c-7 0 -12 -2 -15 -5s-5 -7 -5 -12c0 -9 10 -15 29 -19s46 -6 80 -6z" />
    <glyph glyph-name="uni0123" unicode="&#x123;" horiz-adv-x="578" 
d="M381 142c65 0 114 -13 148 -39s51 -65 51 -117c0 -71 -26 -122 -78 -154c-51 -31 -125 -47 -220 -47c-98 0 -167 10 -208 30s-61 50 -61 90c0 22 8 40 24 55c16 14 42 24 78 29c-30 10 -52 25 -65 43c-13 20 -20 42 -20 69c0 25 8 47 22 65c16 17 36 30 61 39
c-53 27 -80 72 -80 134c0 57 23 100 67 129c46 28 112 42 199 42c37 0 70 -2 99 -7c3 26 9 51 19 76s25 45 45 61c21 15 47 23 80 23h11c4 0 8 0 12 -1l12 -142c-7 1 -13 2 -19 3c-5 1 -11 1 -16 1c-19 0 -35 -4 -47 -12c-12 -9 -20 -19 -25 -30c63 -27 95 -75 95 -143
c0 -57 -23 -99 -67 -127c-46 -28 -112 -42 -199 -42c-43 0 -80 3 -113 10c-9 -3 -14 -9 -14 -17c0 -7 3 -12 10 -15c6 -4 16 -6 31 -6h168zM299 391c-28 0 -42 -17 -42 -51s14 -51 42 -51s42 17 42 51s-14 51 -42 51zM285 -76c83 0 125 10 125 29c0 9 -6 13 -19 13h-195
c-7 0 -12 -2 -15 -5s-5 -7 -5 -12c0 -9 10 -15 29 -19s46 -6 80 -6zM401 768l-32 -221h-178l71 221h139z" />
    <glyph glyph-name="gdotaccent" unicode="&#x121;" horiz-adv-x="578" 
d="M381 142c65 0 114 -13 148 -39s51 -65 51 -117c0 -71 -26 -122 -78 -154c-51 -31 -125 -47 -220 -47c-98 0 -167 10 -208 30s-61 50 -61 90c0 22 8 40 24 55c16 14 42 24 78 29c-30 10 -52 25 -65 43c-13 20 -20 42 -20 69c0 25 8 47 22 65c16 17 36 30 61 39
c-53 27 -80 72 -80 134c0 57 23 100 67 129c46 28 112 42 199 42c37 0 70 -2 99 -7c3 26 9 51 19 76s25 45 45 61c21 15 47 23 80 23h11c4 0 8 0 12 -1l12 -142c-7 1 -13 2 -19 3c-5 1 -11 1 -16 1c-19 0 -35 -4 -47 -12c-12 -9 -20 -19 -25 -30c63 -27 95 -75 95 -143
c0 -57 -23 -99 -67 -127c-46 -28 -112 -42 -199 -42c-43 0 -80 3 -113 10c-9 -3 -14 -9 -14 -17c0 -7 3 -12 10 -15c6 -4 16 -6 31 -6h168zM299 391c-28 0 -42 -17 -42 -51s14 -51 42 -51s42 17 42 51s-14 51 -42 51zM285 -76c83 0 125 10 125 29c0 9 -6 13 -19 13h-195
c-7 0 -12 -2 -15 -5s-5 -7 -5 -12c0 -9 10 -15 29 -19s46 -6 80 -6zM255 726c77 0 115 -31 115 -94s-38 -94 -115 -94c-75 0 -112 31 -112 94s37 94 112 94z" />
    <glyph glyph-name="uni0242" unicode="&#x242;" horiz-adv-x="597" 
d="M303 511c53 0 101 -7 144 -21c43 -13 77 -34 101 -63c26 -29 38 -65 38 -110s-9 -81 -26 -109c-17 -27 -40 -48 -68 -63c-29 -15 -60 -25 -93 -32v-113h-230v203c65 5 109 15 132 29c23 15 35 33 35 54c0 30 -16 45 -48 45c-19 0 -33 -6 -42 -19c-10 -12 -17 -31 -20 -58
l-226 67c9 35 24 67 46 96c23 29 55 51 96 69c42 16 96 25 161 25z" />
    <glyph glyph-name="uni1E21" unicode="&#x1e21;" horiz-adv-x="578" 
d="M384 681v-130h-258v130h258zM381 142c65 0 114 -13 148 -39s51 -65 51 -117c0 -71 -26 -122 -78 -154c-51 -31 -125 -47 -220 -47c-98 0 -167 10 -208 30s-61 50 -61 90c0 22 8 40 24 55c16 14 42 24 78 29c-30 10 -52 25 -65 43c-13 20 -20 42 -20 69c0 25 8 47 22 65
c16 17 36 30 61 39c-53 27 -80 72 -80 134c0 57 23 100 67 129c46 28 112 42 199 42c37 0 70 -2 99 -7c3 26 9 51 19 76s25 45 45 61c21 15 47 23 80 23h11c4 0 8 0 12 -1l12 -142c-7 1 -13 2 -19 3c-5 1 -11 1 -16 1c-19 0 -35 -4 -47 -12c-12 -9 -20 -19 -25 -30
c63 -27 95 -75 95 -143c0 -57 -23 -99 -67 -127c-46 -28 -112 -42 -199 -42c-43 0 -80 3 -113 10c-9 -3 -14 -9 -14 -17c0 -7 3 -12 10 -15c6 -4 16 -6 31 -6h168zM299 391c-28 0 -42 -17 -42 -51s14 -51 42 -51s42 17 42 51s-14 51 -42 51zM285 -76c83 0 125 10 125 29
c0 9 -6 13 -19 13h-195c-7 0 -12 -2 -15 -5s-5 -7 -5 -12c0 -9 10 -15 29 -19s46 -6 80 -6z" />
    <glyph glyph-name="h" unicode="h" horiz-adv-x="620" 
d="M39 0v700h230v-302c13 36 33 64 59 83c27 19 59 29 97 29c49 0 88 -15 115 -44c28 -29 42 -71 42 -124v-342h-230v282c0 23 -3 38 -8 46c-6 9 -15 13 -27 13c-32 0 -48 -26 -48 -79v-262h-230z" />
    <glyph glyph-name="hbar" unicode="&#x127;" horiz-adv-x="620" 
d="M39 0v519h-76v121h76v60h230v-60h112v-121h-112v-121c13 36 33 64 59 83c27 19 59 29 97 29c49 0 88 -15 115 -44c28 -29 42 -71 42 -124v-342h-230v282c0 23 -3 38 -8 46c-6 9 -15 13 -27 13c-32 0 -48 -26 -48 -79v-262h-230z" />
    <glyph glyph-name="uni1E2B" unicode="&#x1e2b;" horiz-adv-x="620" 
d="M39 0v700h230v-302c13 36 33 64 59 83c27 19 59 29 97 29c49 0 88 -15 115 -44c28 -29 42 -71 42 -124v-342h-230v282c0 23 -3 38 -8 46c-6 9 -15 13 -27 13c-32 0 -48 -26 -48 -79v-262h-230zM486 -40c0 -55 -16 -97 -48 -128c-33 -30 -78 -45 -135 -45s-101 15 -134 45
c-33 31 -49 73 -49 128h139c0 -37 15 -55 44 -55s44 18 44 55h139z" />
    <glyph glyph-name="hcircumflex" unicode="&#x125;" horiz-adv-x="620" 
d="M39 0v700h230v-302c13 36 33 64 59 83c27 19 59 29 97 29c49 0 88 -15 115 -44c28 -29 42 -71 42 -124v-342h-230v282c0 23 -3 38 -8 46c-6 9 -15 13 -27 13c-32 0 -48 -26 -48 -79v-262h-230zM357 749h-148l-55 82l-55 -82h-148l94 167h218z" />
    <glyph glyph-name="uni1E25" unicode="&#x1e25;" horiz-adv-x="620" 
d="M39 0v700h230v-302c13 36 33 64 59 83c27 19 59 29 97 29c49 0 88 -15 115 -44c28 -29 42 -71 42 -124v-342h-230v282c0 23 -3 38 -8 46c-6 9 -15 13 -27 13c-32 0 -48 -26 -48 -79v-262h-230zM303 -226c-75 0 -112 31 -112 94s37 94 112 94c77 0 115 -31 115 -94
s-38 -94 -115 -94z" />
    <glyph glyph-name="i" unicode="i" horiz-adv-x="308" 
d="M154 532c-45 0 -78 7 -96 22c-20 15 -29 39 -29 74s9 60 29 74c18 15 51 22 96 22s78 -7 96 -22c20 -14 29 -39 29 -74s-9 -59 -29 -74c-18 -15 -51 -22 -96 -22zM269 500v-500h-230v500h230z" />
    <glyph glyph-name="dotlessi" unicode="&#x131;" horiz-adv-x="308" 
d="M269 500v-500h-230v500h230z" />
    <glyph glyph-name="iacute" unicode="&#xed;" horiz-adv-x="308" 
d="M269 500v-500h-230v500h230zM119 730h205l-103 -177h-162z" />
    <glyph glyph-name="ibreve" unicode="&#x12d;" horiz-adv-x="308" 
d="M269 500v-500h-230v500h230zM337 713c0 -55 -16 -97 -49 -127c-32 -31 -77 -46 -134 -46s-101 15 -134 46c-33 30 -49 72 -49 127h139c0 -37 15 -55 44 -55s44 18 44 55h139z" />
    <glyph glyph-name="icircumflex" unicode="&#xee;" horiz-adv-x="308" 
d="M269 500v-500h-230v500h230zM367 547h-156l-57 71l-57 -71h-156l106 177h214z" />
    <glyph glyph-name="uni0209" unicode="&#x209;" horiz-adv-x="308" 
d="M269 500v-500h-230v500h230zM121 553h-153l-93 177h181zM357 553h-153l-93 177h181z" />
    <glyph glyph-name="idieresis" unicode="&#xef;" horiz-adv-x="308" 
d="M261 535c-64 0 -96 31 -96 94s32 94 96 94s96 -31 96 -94s-32 -94 -96 -94zM47 535c-64 0 -96 31 -96 94s32 94 96 94s96 -31 96 -94s-32 -94 -96 -94zM269 500v-500h-230v500h230z" />
    <glyph glyph-name="uni1E2F" unicode="&#x1e2f;" horiz-adv-x="308" 
d="M269 500v-500h-230v500h230zM34 720c33 0 59 -8 78 -24c18 -15 27 -38 27 -67s-9 -51 -27 -67c-19 -16 -45 -24 -78 -24s-58 8 -76 24c-17 16 -26 38 -26 67s9 52 26 67c18 16 43 24 76 24zM271 720c33 0 59 -8 77 -24c19 -15 28 -38 28 -67s-9 -51 -28 -67
c-18 -16 -44 -24 -77 -24s-58 8 -75 24c-18 16 -27 38 -27 67s9 52 27 67c17 16 42 24 75 24zM121 920h196l-91 -167h-163z" />
    <glyph glyph-name="i.loclTRK" horiz-adv-x="308" 
d="M154 532c-45 0 -78 7 -96 22c-20 15 -29 39 -29 74s9 60 29 74c18 15 51 22 96 22s78 -7 96 -22c20 -14 29 -39 29 -74s-9 -59 -29 -74c-18 -15 -51 -22 -96 -22zM269 500v-500h-230v500h230z" />
    <glyph glyph-name="uni1ECB" unicode="&#x1ecb;" horiz-adv-x="308" 
d="M154 532c-45 0 -78 7 -96 22c-20 15 -29 39 -29 74s9 60 29 74c18 15 51 22 96 22s78 -7 96 -22c20 -14 29 -39 29 -74s-9 -59 -29 -74c-18 -15 -51 -22 -96 -22zM269 500v-500h-230v500h230zM154 -226c-75 0 -112 31 -112 94s37 94 112 94c77 0 115 -31 115 -94
s-38 -94 -115 -94z" />
    <glyph glyph-name="igrave" unicode="&#xec;" horiz-adv-x="308" 
d="M269 500v-500h-230v500h230zM177 730l60 -177h-162l-103 177h205z" />
    <glyph glyph-name="uni1EC9" unicode="&#x1ec9;" horiz-adv-x="308" 
d="M269 500v-500h-230v500h230zM155 540l-43 62c19 7 33 15 40 23s11 16 11 23c0 9 -3 16 -7 21c-6 5 -13 8 -23 8c-9 0 -17 -2 -21 -7c-6 -5 -10 -11 -13 -19l-98 42c7 31 24 54 50 71s58 25 95 25c23 0 44 -4 66 -12c20 -8 38 -20 51 -37s20 -38 20 -64
c0 -29 -7 -52 -21 -70c-15 -19 -32 -33 -52 -44c-20 -10 -38 -17 -55 -22z" />
    <glyph glyph-name="uni020B" unicode="&#x20b;" horiz-adv-x="308" 
d="M269 500v-500h-230v500h230zM337 540h-139c0 37 -15 55 -44 55s-44 -18 -44 -55h-139c0 55 16 98 49 128s77 45 134 45s102 -15 134 -45c33 -30 49 -73 49 -128z" />
    <glyph glyph-name="ij" unicode="&#x133;" horiz-adv-x="616" 
d="M154 532c-45 0 -78 7 -96 22c-20 15 -29 39 -29 74s9 60 29 74c18 15 51 22 96 22s78 -7 96 -22c20 -14 29 -39 29 -74s-9 -59 -29 -74c-18 -15 -51 -22 -96 -22zM269 500v-500h-230v500h230zM462 532c-45 0 -78 7 -96 22c-20 15 -29 39 -29 74s9 60 29 74
c18 15 51 22 96 22s78 -7 96 -22c20 -14 29 -39 29 -74s-9 -59 -29 -74c-18 -15 -51 -22 -96 -22zM577 500v-513c0 -71 -17 -122 -53 -154c-34 -32 -91 -48 -168 -48c-31 0 -59 3 -84 7c-25 6 -47 13 -68 24l28 133c7 -3 14 -6 22 -8c9 -2 19 -3 30 -3c19 0 35 5 46 16
c11 10 17 28 17 53v493h230z" />
    <glyph glyph-name="imacron" unicode="&#x12b;" horiz-adv-x="308" 
d="M309 681v-130h-310v130h310zM269 500v-500h-230v500h230z" />
    <glyph glyph-name="iogonek" unicode="&#x12f;" horiz-adv-x="308" 
d="M154 532c-45 0 -78 7 -96 22c-20 15 -29 39 -29 74s9 60 29 74c18 15 51 22 96 22s78 -7 96 -22c20 -14 29 -39 29 -74s-9 -59 -29 -74c-18 -15 -51 -22 -96 -22zM164 -225c-27 0 -54 4 -79 12s-46 21 -61 41c-16 18 -24 44 -24 77c0 21 4 40 10 56c8 16 17 30 29 41v498
h230v-500c-32 -9 -57 -18 -75 -26c-19 -10 -28 -23 -28 -40c0 -25 16 -38 49 -38c7 0 15 1 22 2s13 3 18 6l27 -103c-16 -10 -33 -17 -52 -21c-19 -3 -41 -5 -66 -5z" />
    <glyph glyph-name="itilde" unicode="&#x129;" horiz-adv-x="308" 
d="M269 500v-500h-230v500h230zM364 719c-1 -40 -7 -73 -20 -99s-29 -45 -48 -58c-20 -13 -41 -19 -63 -19c-25 0 -45 4 -62 13c-17 8 -31 16 -43 24c-11 9 -23 13 -35 13c-18 0 -28 -16 -31 -48h-118c1 60 16 104 43 133s60 43 99 43c25 0 44 -4 58 -13
c15 -8 27 -16 38 -24c11 -9 22 -13 34 -13c17 0 27 16 30 48h118z" />
    <glyph glyph-name="j" unicode="j" horiz-adv-x="308" 
d="M154 532c-45 0 -78 7 -96 22c-20 15 -29 39 -29 74s9 60 29 74c18 15 51 22 96 22s78 -7 96 -22c20 -14 29 -39 29 -74s-9 -59 -29 -74c-18 -15 -51 -22 -96 -22zM269 500v-513c0 -71 -17 -122 -53 -154c-34 -32 -91 -48 -168 -48c-31 0 -59 3 -84 7c-25 6 -47 13 -68 24
l28 133c7 -3 14 -6 22 -8c9 -2 19 -3 30 -3c19 0 35 5 46 16c11 10 17 28 17 53v493h230z" />
    <glyph glyph-name="uni0237" unicode="&#x237;" horiz-adv-x="308" 
d="M269 500v-513c0 -71 -17 -122 -53 -154c-34 -32 -91 -48 -168 -48c-31 0 -59 3 -84 7c-25 6 -47 13 -68 24l28 133c7 -3 14 -6 22 -8c9 -2 19 -3 30 -3c19 0 35 5 46 16c11 10 17 28 17 53v493h230z" />
    <glyph glyph-name="jcircumflex" unicode="&#x135;" horiz-adv-x="308" 
d="M269 500v-513c0 -71 -17 -122 -53 -154c-34 -32 -91 -48 -168 -48c-31 0 -59 3 -84 7c-25 6 -47 13 -68 24l28 133c7 -3 14 -6 22 -8c9 -2 19 -3 30 -3c19 0 35 5 46 16c11 10 17 28 17 53v493h230zM367 547h-156l-57 71l-57 -71h-156l106 177h214z" />
    <glyph glyph-name="k" unicode="k" horiz-adv-x="658" 
d="M269 700v-377l146 177h247l-178 -196l189 -304h-250l-90 175l-64 -78v-97h-230v700h230z" />
    <glyph glyph-name="uni0137" unicode="&#x137;" horiz-adv-x="658" 
d="M269 700v-377l146 177h247l-178 -196l189 -304h-250l-90 175l-64 -78v-97h-230v700h230zM456 -50l-75 -193h-142l24 193h193z" />
    <glyph glyph-name="kgreenlandic" unicode="&#x138;" horiz-adv-x="658" 
d="M269 500v-177l146 177h247l-178 -196l189 -304h-250l-90 175l-64 -78v-97h-230v500h230z" />
    <glyph glyph-name="l" unicode="l" horiz-adv-x="341" 
d="M269 700v-501c0 -20 3 -35 9 -44s17 -14 32 -14c7 0 14 1 20 1c5 2 11 3 16 4l-10 -124c-13 -9 -31 -17 -54 -23c-24 -6 -47 -9 -70 -9c-62 0 -106 13 -133 40s-40 71 -40 134v536h230z" />
    <glyph glyph-name="lacute" unicode="&#x13a;" horiz-adv-x="341" 
d="M269 700v-501c0 -20 3 -35 9 -44s17 -14 32 -14c7 0 14 1 20 1c5 2 11 3 16 4l-10 -124c-13 -9 -31 -17 -54 -23c-24 -6 -47 -9 -70 -9c-62 0 -106 13 -133 40s-40 71 -40 134v536h230zM49 746l58 167h196l-91 -167h-163z" />
    <glyph glyph-name="lcaron" unicode="&#x13e;" horiz-adv-x="441" 
d="M482 700l-61 -267h-126l22 267h165zM269 700v-501c0 -20 3 -35 9 -44s17 -14 32 -14c7 0 14 1 20 1c5 2 11 3 16 4l-10 -124c-13 -9 -31 -17 -54 -23c-24 -6 -47 -9 -70 -9c-62 0 -106 13 -133 40s-40 71 -40 134v536h230z" />
    <glyph glyph-name="uni013C" unicode="&#x13c;" horiz-adv-x="341" 
d="M269 700v-501c0 -20 3 -35 9 -44s17 -14 32 -14c7 0 14 1 20 1c5 2 11 3 16 4l-10 -124c-13 -9 -31 -17 -54 -23c-24 -6 -47 -9 -70 -9c-62 0 -106 13 -133 40s-40 71 -40 134v536h230zM311 -50l-75 -193h-142l24 193h193z" />
    <glyph glyph-name="ldot" unicode="&#x140;" horiz-adv-x="557" 
d="M269 700v-501c0 -20 3 -35 9 -44s17 -14 32 -14c7 0 14 1 20 1c5 2 11 3 16 4l-10 -124c-13 -9 -31 -17 -54 -23c-24 -6 -47 -9 -70 -9c-62 0 -106 13 -133 40s-40 71 -40 134v536h230zM434 459c39 0 70 -9 91 -28s32 -45 32 -79s-11 -60 -32 -79s-52 -28 -91 -28
s-69 9 -90 28c-22 19 -33 45 -33 79s11 60 33 79c21 19 51 28 90 28z" />
    <glyph glyph-name="uni1E37" unicode="&#x1e37;" horiz-adv-x="341" 
d="M269 700v-501c0 -20 3 -35 9 -44s17 -14 32 -14c7 0 14 1 20 1c5 2 11 3 16 4l-10 -124c-13 -9 -31 -17 -54 -23c-24 -6 -47 -9 -70 -9c-62 0 -106 13 -133 40s-40 71 -40 134v536h230zM192 -226c-75 0 -112 31 -112 94s37 94 112 94c77 0 115 -31 115 -94
s-38 -94 -115 -94z" />
    <glyph glyph-name="uni01C9" unicode="&#x1c9;" horiz-adv-x="649" 
d="M269 700v-501c0 -20 3 -35 9 -44s17 -14 32 -14c7 0 14 1 20 1c5 2 11 3 16 4l-10 -124c-13 -9 -31 -17 -54 -23c-24 -6 -47 -9 -70 -9c-62 0 -106 13 -133 40s-40 71 -40 134v536h230zM495 532c-45 0 -77 7 -97 22c-18 15 -28 39 -28 74s10 60 28 74c20 15 52 22 97 22
s77 -7 97 -22c18 -14 28 -39 28 -74s-10 -59 -28 -74c-20 -15 -52 -22 -97 -22zM610 500v-513c0 -71 -18 -122 -52 -154c-36 -32 -92 -48 -169 -48c-31 0 -59 3 -84 7c-25 6 -47 13 -68 24l28 133c7 -3 14 -6 23 -8c8 -2 18 -3 29 -3c19 0 35 5 46 16c11 10 17 28 17 53v493
h230z" />
    <glyph glyph-name="uni1E3B" unicode="&#x1e3b;" horiz-adv-x="341" 
d="M345 -51v-130h-306v130h306zM269 700v-501c0 -20 3 -35 9 -44s17 -14 32 -14c7 0 14 1 20 1c5 2 11 3 16 4l-10 -124c-13 -9 -31 -17 -54 -23c-24 -6 -47 -9 -70 -9c-62 0 -106 13 -133 40s-40 71 -40 134v536h230z" />
    <glyph glyph-name="lslash" unicode="&#x142;" horiz-adv-x="431" 
d="M414 515v-143l-94 -57v-116c0 -20 3 -35 9 -44s17 -14 32 -14c7 0 14 1 19 1c6 2 12 3 17 4l-10 -124c-13 -9 -31 -17 -55 -23c-23 -6 -46 -9 -69 -9c-62 0 -106 13 -133 40s-40 71 -40 134v35l-80 -45v143l80 44v359h230v-245z" />
    <glyph glyph-name="m" unicode="m" horiz-adv-x="933" 
d="M39 0v500h207l5 -109c15 38 37 67 66 88s65 31 108 31c38 0 69 -9 95 -26c24 -17 42 -42 53 -74c15 32 37 57 65 74s61 26 100 26c49 0 88 -15 116 -44c27 -29 41 -71 41 -124v-342h-230v282c0 23 -3 38 -9 46c-5 8 -14 12 -26 12c-32 0 -48 -26 -48 -78v-262h-230v282
c0 23 -3 38 -8 46c-6 8 -15 12 -27 12c-32 0 -48 -26 -48 -78v-262h-230z" />
    <glyph glyph-name="uni1E43" unicode="&#x1e43;" horiz-adv-x="933" 
d="M39 0v500h207l5 -109c15 38 37 67 66 88s65 31 108 31c38 0 69 -9 95 -26c24 -17 42 -42 53 -74c15 32 37 57 65 74s61 26 100 26c49 0 88 -15 116 -44c27 -29 41 -71 41 -124v-342h-230v282c0 23 -3 38 -9 46c-5 8 -14 12 -26 12c-32 0 -48 -26 -48 -78v-262h-230v282
c0 23 -3 38 -8 46c-6 8 -15 12 -27 12c-32 0 -48 -26 -48 -78v-262h-230zM467 -226c-75 0 -112 31 -112 94s37 94 112 94c77 0 115 -31 115 -94s-38 -94 -115 -94z" />
    <glyph glyph-name="n" unicode="n" horiz-adv-x="620" 
d="M39 0v500h207l5 -109c15 38 37 67 66 88s65 31 108 31c49 0 88 -15 115 -44c28 -29 42 -71 42 -124v-342h-230v285c0 21 -3 36 -9 43c-6 8 -15 12 -27 12c-17 0 -29 -6 -36 -18c-7 -11 -11 -31 -11 -58v-264h-230z" />
    <glyph glyph-name="nacute" unicode="&#x144;" horiz-adv-x="620" 
d="M39 0v500h207l5 -109c15 38 37 67 66 88s65 31 108 31c49 0 88 -15 115 -44c28 -29 42 -71 42 -124v-342h-230v285c0 21 -3 36 -9 43c-6 8 -15 12 -27 12c-17 0 -29 -6 -36 -18c-7 -11 -11 -31 -11 -58v-264h-230zM274 730h205l-103 -177h-162z" />
    <glyph glyph-name="ncaron" unicode="&#x148;" horiz-adv-x="620" 
d="M39 0v500h207l5 -109c15 38 37 67 66 88s65 31 108 31c49 0 88 -15 115 -44c28 -29 42 -71 42 -124v-342h-230v285c0 21 -3 36 -9 43c-6 8 -15 12 -27 12c-17 0 -29 -6 -36 -18c-7 -11 -11 -31 -11 -58v-264h-230zM516 730l-106 -177h-214l-106 177h156l57 -71l57 71h156
z" />
    <glyph glyph-name="uni0146" unicode="&#x146;" horiz-adv-x="620" 
d="M39 0v500h207l5 -109c15 38 37 67 66 88s65 31 108 31c49 0 88 -15 115 -44c28 -29 42 -71 42 -124v-342h-230v285c0 21 -3 36 -9 43c-6 8 -15 12 -27 12c-17 0 -29 -6 -36 -18c-7 -11 -11 -31 -11 -58v-264h-230zM422 -50l-75 -193h-142l24 193h193z" />
    <glyph glyph-name="uni1E45" unicode="&#x1e45;" horiz-adv-x="620" 
d="M39 0v500h207l5 -109c15 38 37 67 66 88s65 31 108 31c49 0 88 -15 115 -44c28 -29 42 -71 42 -124v-342h-230v285c0 21 -3 36 -9 43c-6 8 -15 12 -27 12c-17 0 -29 -6 -36 -18c-7 -11 -11 -31 -11 -58v-264h-230zM309 726c77 0 115 -31 115 -94s-38 -94 -115 -94
c-75 0 -112 31 -112 94s37 94 112 94z" />
    <glyph glyph-name="uni1E47" unicode="&#x1e47;" horiz-adv-x="620" 
d="M39 0v500h207l5 -109c15 38 37 67 66 88s65 31 108 31c49 0 88 -15 115 -44c28 -29 42 -71 42 -124v-342h-230v285c0 21 -3 36 -9 43c-6 8 -15 12 -27 12c-17 0 -29 -6 -36 -18c-7 -11 -11 -31 -11 -58v-264h-230zM303 -226c-75 0 -112 31 -112 94s37 94 112 94
c77 0 115 -31 115 -94s-38 -94 -115 -94z" />
    <glyph glyph-name="uni01CC" unicode="&#x1cc;" horiz-adv-x="928" 
d="M39 0v500h207l5 -109c15 38 37 67 66 88s65 31 108 31c49 0 88 -15 115 -44c28 -29 42 -71 42 -124v-342h-230v285c0 21 -3 36 -9 43c-6 8 -15 12 -27 12c-17 0 -29 -6 -36 -18c-7 -11 -11 -31 -11 -58v-264h-230zM774 532c-45 0 -78 7 -96 22c-20 15 -29 39 -29 74
s9 60 29 74c18 15 51 22 96 22s78 -7 96 -22c20 -14 29 -39 29 -74s-9 -59 -29 -74c-18 -15 -51 -22 -96 -22zM889 500v-513c0 -71 -17 -122 -53 -154c-34 -32 -91 -48 -168 -48c-31 0 -59 3 -84 7c-25 6 -47 13 -68 24l28 133c7 -3 14 -6 22 -8c9 -2 19 -3 30 -3
c19 0 35 5 46 16c11 10 17 28 17 53v493h230z" />
    <glyph glyph-name="uni1E49" unicode="&#x1e49;" horiz-adv-x="620" 
d="M39 0v500h207l5 -109c15 38 37 67 66 88s65 31 108 31c49 0 88 -15 115 -44c28 -29 42 -71 42 -124v-342h-230v285c0 21 -3 36 -9 43c-6 8 -15 12 -27 12c-17 0 -29 -6 -36 -18c-7 -11 -11 -31 -11 -58v-264h-230zM497 -51v-130h-388v130h388z" />
    <glyph glyph-name="ntilde" unicode="&#xf1;" horiz-adv-x="620" 
d="M39 0v500h207l5 -109c15 38 37 67 66 88s65 31 108 31c49 0 88 -15 115 -44c28 -29 42 -71 42 -124v-342h-230v285c0 21 -3 36 -9 43c-6 8 -15 12 -27 12c-17 0 -29 -6 -36 -18c-7 -11 -11 -31 -11 -58v-264h-230zM519 719c-1 -40 -7 -73 -20 -99s-29 -45 -49 -58
c-19 -13 -40 -19 -62 -19c-25 0 -45 4 -62 13c-17 8 -31 16 -42 24c-12 9 -24 13 -36 13c-18 0 -28 -16 -31 -48h-118c1 60 16 104 43 133s60 43 99 43c25 0 44 -4 59 -13c14 -8 26 -16 37 -24c11 -9 22 -13 34 -13c17 0 27 16 30 48h118z" />
    <glyph glyph-name="eng" unicode="&#x14b;" horiz-adv-x="620" 
d="M39 0v500h207l5 -109c15 38 37 67 66 88s65 31 108 31c49 0 88 -15 115 -44c28 -29 42 -71 42 -124v-342v0c-1 -79 -19 -134 -54 -166c-35 -33 -88 -49 -159 -49c-37 0 -67 3 -92 7c-25 6 -47 13 -68 24l28 133c7 -3 14 -6 23 -8c8 -2 18 -3 29 -3c19 0 35 5 46 16
c11 10 17 28 17 53v278c0 21 -3 36 -9 43c-6 8 -15 12 -27 12c-17 0 -29 -6 -36 -18c-7 -11 -11 -31 -11 -58v-264h-230z" />
    <glyph glyph-name="o" unicode="o" horiz-adv-x="598" 
d="M299 510c56 0 105 -10 147 -30c41 -21 74 -50 97 -89s35 -86 35 -141s-12 -102 -35 -140c-23 -40 -56 -69 -97 -90c-42 -20 -91 -30 -147 -30c-55 0 -104 10 -146 30c-42 21 -75 50 -98 90c-23 38 -35 85 -35 140s12 102 35 141s56 68 98 89c42 20 91 30 146 30zM299 355
c-15 0 -27 -7 -35 -21c-9 -14 -13 -42 -13 -84s4 -70 13 -84c8 -14 20 -21 35 -21s27 7 35 21c9 14 13 42 13 84s-4 70 -13 84c-8 14 -20 21 -35 21z" />
    <glyph glyph-name="oacute" unicode="&#xf3;" horiz-adv-x="598" 
d="M299 510c56 0 105 -10 147 -30c41 -21 74 -50 97 -89s35 -86 35 -141s-12 -102 -35 -140c-23 -40 -56 -69 -97 -90c-42 -20 -91 -30 -147 -30c-55 0 -104 10 -146 30c-42 21 -75 50 -98 90c-23 38 -35 85 -35 140s12 102 35 141s56 68 98 89c42 20 91 30 146 30zM299 355
c-15 0 -27 -7 -35 -21c-9 -14 -13 -42 -13 -84s4 -70 13 -84c8 -14 20 -21 35 -21s27 7 35 21c9 14 13 42 13 84s-4 70 -13 84c-8 14 -20 21 -35 21zM264 730h205l-103 -177h-162z" />
    <glyph glyph-name="obreve" unicode="&#x14f;" horiz-adv-x="598" 
d="M299 510c56 0 105 -10 147 -30c41 -21 74 -50 97 -89s35 -86 35 -141s-12 -102 -35 -140c-23 -40 -56 -69 -97 -90c-42 -20 -91 -30 -147 -30c-55 0 -104 10 -146 30c-42 21 -75 50 -98 90c-23 38 -35 85 -35 140s12 102 35 141s56 68 98 89c42 20 91 30 146 30zM299 355
c-15 0 -27 -7 -35 -21c-9 -14 -13 -42 -13 -84s4 -70 13 -84c8 -14 20 -21 35 -21s27 7 35 21c9 14 13 42 13 84s-4 70 -13 84c-8 14 -20 21 -35 21zM482 713c0 -55 -16 -97 -48 -127c-33 -31 -78 -46 -135 -46s-101 15 -134 46c-33 30 -49 72 -49 127h139
c0 -37 15 -55 44 -55s44 18 44 55h139z" />
    <glyph glyph-name="ocircumflex" unicode="&#xf4;" horiz-adv-x="598" 
d="M299 510c56 0 105 -10 147 -30c41 -21 74 -50 97 -89s35 -86 35 -141s-12 -102 -35 -140c-23 -40 -56 -69 -97 -90c-42 -20 -91 -30 -147 -30c-55 0 -104 10 -146 30c-42 21 -75 50 -98 90c-23 38 -35 85 -35 140s12 102 35 141s56 68 98 89c42 20 91 30 146 30zM299 355
c-15 0 -27 -7 -35 -21c-9 -14 -13 -42 -13 -84s4 -70 13 -84c8 -14 20 -21 35 -21s27 7 35 21c9 14 13 42 13 84s-4 70 -13 84c-8 14 -20 21 -35 21zM512 547h-156l-57 71l-57 -71h-156l106 177h214z" />
    <glyph glyph-name="uni1ED1" unicode="&#x1ed1;" horiz-adv-x="598" 
d="M516 792h177l-82 -150h-147zM491 547h-141l-51 64l-51 -64h-141l96 160h192zM299 510c56 0 105 -10 147 -30c41 -21 74 -50 97 -89s35 -86 35 -141s-12 -102 -35 -140c-23 -40 -56 -69 -97 -90c-42 -20 -91 -30 -147 -30c-55 0 -104 10 -146 30c-42 21 -75 50 -98 90
c-23 38 -35 85 -35 140s12 102 35 141s56 68 98 89c42 20 91 30 146 30zM299 355c-15 0 -27 -7 -35 -21c-9 -14 -13 -42 -13 -84s4 -70 13 -84c8 -14 20 -21 35 -21s27 7 35 21c9 14 13 42 13 84s-4 70 -13 84c-8 14 -20 21 -35 21z" />
    <glyph glyph-name="uni1ED9" unicode="&#x1ed9;" horiz-adv-x="598" 
d="M299 510c56 0 105 -10 147 -30c41 -21 74 -50 97 -89s35 -86 35 -141s-12 -102 -35 -140c-23 -40 -56 -69 -97 -90c-42 -20 -91 -30 -147 -30c-55 0 -104 10 -146 30c-42 21 -75 50 -98 90c-23 38 -35 85 -35 140s12 102 35 141s56 68 98 89c42 20 91 30 146 30zM299 355
c-15 0 -27 -7 -35 -21c-9 -14 -13 -42 -13 -84s4 -70 13 -84c8 -14 20 -21 35 -21s27 7 35 21c9 14 13 42 13 84s-4 70 -13 84c-8 14 -20 21 -35 21zM299 -226c-75 0 -112 31 -112 94s37 94 112 94c77 0 115 -31 115 -94s-38 -94 -115 -94zM512 547h-156l-57 71l-57 -71
h-156l106 177h214z" />
    <glyph glyph-name="uni1ED3" unicode="&#x1ed3;" horiz-adv-x="598" 
d="M576 792l52 -150h-147l-82 150h177zM491 547h-141l-51 64l-51 -64h-141l96 160h192zM299 510c56 0 105 -10 147 -30c41 -21 74 -50 97 -89s35 -86 35 -141s-12 -102 -35 -140c-23 -40 -56 -69 -97 -90c-42 -20 -91 -30 -147 -30c-55 0 -104 10 -146 30
c-42 21 -75 50 -98 90c-23 38 -35 85 -35 140s12 102 35 141s56 68 98 89c42 20 91 30 146 30zM299 355c-15 0 -27 -7 -35 -21c-9 -14 -13 -42 -13 -84s4 -70 13 -84c8 -14 20 -21 35 -21s27 7 35 21c9 14 13 42 13 84s-4 70 -13 84c-8 14 -20 21 -35 21z" />
    </font>
</defs>
</svg>
